{"glyphs":{"0":{"ha":743,"x_min":54,"x_max":688,"o":"m 369 981 q 529 927 457 981 q 644 763 601 874 q 688 486 688 651 q 644 210 688 321 q 529 45 601 99 q 369 -8 457 -8 q 211 45 282 -8 q 97 210 140 99 q 54 486 54 321 q 97 763 54 651 q 211 927 140 874 q 369 981 282 981 m 369 881 q 272 841 317 881 q 199 713 226 801 q 172 486 172 624 q 199 260 172 349 q 272 131 226 171 q 369 92 317 92 q 469 132 424 92 q 542 260 514 172 q 569 486 569 349 q 542 712 569 624 q 469 840 514 800 q 369 881 424 881 z "},"1":{"ha":743,"x_min":56,"x_max":679,"o":"m 403 975 q 433 967 419 975 q 446 946 446 958 l 446 100 l 651 100 q 673 90 667 100 q 679 58 679 81 l 679 42 q 673 10 679 19 q 651 0 667 0 l 88 0 q 67 10 74 0 q 60 42 60 19 l 60 58 q 67 90 60 81 q 88 100 74 100 l 329 100 l 329 849 l 83 807 q 63 831 71 807 q 56 878 56 854 q 81 904 56 899 l 403 975 z "},"2":{"ha":743,"x_min":71,"x_max":657,"o":"m 353 981 q 569 917 489 981 q 649 744 649 854 q 628 624 649 675 q 549 495 607 572 q 331 222 490 418 l 229 99 l 629 99 q 651 89 644 99 q 657 57 657 79 l 657 42 q 651 10 657 19 q 629 0 644 0 l 99 0 q 79 19 88 0 q 71 61 71 39 q 76 85 71 79 l 435 535 q 498 625 478 592 q 524 681 518 658 q 529 736 529 704 q 483 842 529 803 q 356 881 436 881 q 258 865 297 881 q 179 825 218 850 q 147 810 154 810 q 120 837 138 810 q 103 879 103 864 q 146 930 103 907 q 249 967 189 953 q 353 981 308 981 z "},"3":{"ha":743,"x_min":63,"x_max":651,"o":"m 339 981 q 543 918 467 981 q 619 735 619 856 q 578 617 619 667 q 476 543 538 567 l 476 538 q 599 451 546 519 q 651 282 651 383 q 605 117 651 182 q 488 22 558 51 q 342 -8 417 -8 q 200 4 264 -8 q 99 35 136 17 q 63 71 63 53 q 81 115 63 90 q 111 140 99 140 q 150 129 121 140 q 331 92 239 92 q 469 136 408 92 q 531 283 531 181 q 477 425 531 383 q 322 467 424 467 l 276 467 q 256 476 263 467 q 249 508 249 486 l 249 524 q 256 556 249 546 q 276 565 263 565 l 317 565 q 424 595 383 565 q 483 667 465 625 q 501 747 501 708 q 464 840 501 799 q 336 881 426 881 q 240 870 278 881 q 167 844 201 860 q 136 835 143 835 q 108 863 125 835 q 90 907 90 890 q 178 958 90 936 q 339 981 265 981 z "},"4":{"ha":743,"x_min":25,"x_max":717,"o":"m 554 975 q 596 944 596 975 l 596 332 l 689 332 q 710 322 704 332 q 717 290 717 313 l 717 274 q 710 242 717 251 q 689 232 704 232 l 596 232 l 596 28 q 554 -3 596 -3 l 522 -3 q 481 28 481 -3 l 481 232 l 58 232 q 36 257 47 232 q 25 303 25 282 q 28 318 25 315 l 485 956 q 532 975 500 975 l 554 975 m 475 776 l 163 332 l 481 332 l 481 774 l 475 776 z "},"5":{"ha":743,"x_min":65,"x_max":658,"o":"m 569 972 q 591 963 585 972 q 597 931 597 953 l 597 914 q 591 882 597 892 q 569 872 585 872 l 268 872 l 250 586 l 322 586 q 482 558 406 586 q 608 466 558 531 q 658 296 658 401 q 562 61 658 131 q 325 -8 465 -8 q 193 5 253 -8 q 99 38 133 18 q 65 75 65 57 q 83 119 65 94 q 114 144 101 144 q 151 132 121 144 q 231 103 192 114 q 324 92 269 92 q 476 145 414 92 q 539 296 539 199 q 475 438 539 389 q 289 486 411 486 l 171 486 q 140 496 149 486 q 132 528 132 506 l 156 931 q 167 963 157 953 q 200 972 178 972 l 569 972 z "},"6":{"ha":743,"x_min":71,"x_max":667,"o":"m 522 975 q 555 947 542 975 q 568 901 568 919 q 557 886 568 890 q 334 734 419 829 q 214 517 249 639 q 401 563 293 563 q 535 528 475 563 q 631 429 596 493 q 667 282 667 365 q 627 130 667 196 q 519 28 588 64 q 367 -7 451 -7 q 146 84 221 -7 q 71 343 71 175 q 158 669 71 526 q 355 894 244 813 q 522 975 465 975 m 367 463 q 193 415 276 463 q 188 332 188 360 q 241 147 188 200 q 374 93 294 93 q 454 113 414 93 q 522 175 494 133 q 549 276 549 217 q 496 417 549 371 q 367 463 443 463 z "},"7":{"ha":743,"x_min":76,"x_max":681,"o":"m 653 972 q 671 947 661 972 q 681 901 681 922 q 678 886 681 894 l 267 19 q 247 3 261 10 q 211 -3 232 -3 l 194 -3 q 149 3 163 -3 q 135 22 135 8 q 140 39 135 25 l 542 872 l 104 872 q 83 882 90 872 q 76 914 76 892 l 76 931 q 83 963 76 953 q 104 972 90 972 l 653 972 z "},"8":{"ha":743,"x_min":71,"x_max":672,"o":"m 374 981 q 565 917 489 981 q 640 740 640 854 q 506 529 640 592 q 628 439 585 493 q 672 281 672 385 q 588 65 672 139 q 371 -8 504 -8 q 155 65 239 -8 q 71 281 71 139 q 111 438 71 382 q 225 528 151 493 q 141 613 172 560 q 110 740 110 665 q 184 917 110 854 q 374 981 258 981 m 374 881 q 267 846 308 881 q 226 740 226 811 q 249 656 226 688 q 308 606 272 624 q 404 567 344 588 q 524 740 524 636 q 482 846 524 811 q 374 881 440 881 m 318 486 q 224 402 258 450 q 190 281 190 354 q 242 141 190 190 q 371 92 293 92 q 501 141 449 92 q 553 281 553 190 q 528 373 553 338 q 465 427 503 408 q 363 469 428 446 l 318 486 z "},"9":{"ha":743,"x_min":76,"x_max":672,"o":"m 376 979 q 597 888 522 979 q 672 629 672 797 q 585 303 672 446 q 388 78 499 160 q 221 -3 278 -3 q 188 25 201 -3 q 175 71 175 53 q 186 86 175 82 q 409 238 324 143 q 529 456 494 333 q 342 410 450 410 q 208 444 268 410 q 112 543 147 479 q 76 690 76 607 q 116 842 76 776 q 224 944 156 908 q 376 979 292 979 m 369 879 q 289 859 329 879 q 222 797 249 839 q 194 696 194 756 q 247 556 194 601 q 376 510 300 510 q 550 557 468 510 q 556 640 556 613 q 502 826 556 772 q 369 879 449 879 z "},"\u0000":{"ha":0,"x_min":0,"x_max":0,"o":""},"\r":{"ha":333,"x_min":0,"x_max":0,"o":""}," ":{"ha":333,"x_min":0,"x_max":0,"o":""},"A":{"ha":851,"x_min":17,"x_max":835,"o":"m 446 975 q 501 953 494 975 l 831 39 q 835 21 835 29 q 775 -3 835 -3 l 764 -3 q 708 19 715 -3 l 626 247 l 218 247 l 139 19 q 83 -3 132 -3 l 76 -3 q 17 21 17 -3 q 21 40 17 28 l 350 953 q 406 975 357 975 l 446 975 m 424 847 q 403 767 413 792 l 257 353 l 589 353 l 443 767 q 426 847 436 789 l 424 847 z "},"Á":{"ha":851,"x_min":17,"x_max":835,"o":"m 17 0 m 446 975 q 501 953 494 975 l 831 39 q 835 21 835 29 q 775 -3 835 -3 l 764 -3 q 708 19 715 -3 l 626 247 l 218 247 l 139 19 q 83 -3 132 -3 l 76 -3 q 17 21 17 -3 q 21 40 17 28 l 350 953 q 406 975 357 975 l 446 975 m 424 847 q 403 767 413 792 l 257 353 l 589 353 l 443 767 q 426 847 436 789 l 424 847 m 538 1263 q 588 1258 572 1263 q 604 1244 604 1254 q 592 1220 604 1236 q 526 1143 581 1204 l 474 1083 q 403 1058 451 1058 q 371 1072 371 1058 q 391 1119 371 1082 q 451 1226 411 1157 q 483 1254 463 1246 q 538 1263 504 1263 z "},"Ă":{"ha":851,"x_min":17,"x_max":835,"o":"m 17 0 m 446 975 q 501 953 494 975 l 831 39 q 835 21 835 29 q 775 -3 835 -3 l 764 -3 q 708 19 715 -3 l 626 247 l 218 247 l 139 19 q 83 -3 132 -3 l 76 -3 q 17 21 17 -3 q 21 40 17 28 l 350 953 q 406 975 357 975 l 446 975 m 424 847 q 403 767 413 792 l 257 353 l 589 353 l 443 767 q 426 847 436 789 l 424 847 m 606 1239 q 626 1218 626 1239 q 567 1101 626 1143 q 426 1058 507 1058 q 285 1101 344 1058 q 225 1218 225 1143 q 246 1239 225 1239 q 263 1235 258 1239 q 269 1222 267 1231 q 276 1204 272 1213 q 332 1163 292 1176 q 426 1150 372 1150 q 520 1163 481 1150 q 575 1204 560 1176 q 583 1222 579 1213 q 590 1235 586 1232 q 606 1239 594 1239 z "},"Ắ":{"ha":851,"x_min":17,"x_max":835,"o":"m 524 1374 q 557 1369 547 1374 q 567 1356 567 1365 q 553 1328 567 1347 q 511 1271 540 1310 l 464 1208 q 414 1183 446 1183 q 382 1197 382 1183 q 399 1240 382 1206 q 449 1338 415 1275 q 524 1374 469 1374 m 607 1224 q 628 1203 628 1224 q 567 1097 628 1136 q 428 1058 507 1058 q 287 1097 347 1058 q 226 1203 226 1136 q 247 1224 226 1224 q 260 1220 257 1224 q 267 1206 264 1217 q 278 1189 271 1196 q 338 1149 296 1168 q 428 1131 381 1131 q 518 1149 476 1131 q 576 1189 560 1167 q 585 1206 581 1196 q 592 1220 589 1217 q 607 1224 596 1224 m 446 975 q 501 953 494 975 l 831 39 q 835 21 835 29 q 775 -3 835 -3 l 764 -3 q 708 19 715 -3 l 626 247 l 218 247 l 139 19 q 83 -3 132 -3 l 76 -3 q 17 21 17 -3 q 21 40 17 28 l 350 953 q 406 975 357 975 l 446 975 m 424 847 q 403 767 413 792 l 257 353 l 589 353 l 443 767 q 426 847 436 789 l 424 847 z "},"Ặ":{"ha":851,"x_min":17,"x_max":835,"o":"m 17 0 m 446 975 q 501 953 494 975 l 831 39 q 835 21 835 29 q 775 -3 835 -3 l 764 -3 q 708 19 715 -3 l 626 247 l 218 247 l 139 19 q 83 -3 132 -3 l 76 -3 q 17 21 17 -3 q 21 40 17 28 l 350 953 q 406 975 357 975 l 446 975 m 424 847 q 403 767 413 792 l 257 353 l 589 353 l 443 767 q 426 847 436 789 l 424 847 m 606 1239 q 626 1218 626 1239 q 567 1101 626 1143 q 426 1058 507 1058 q 285 1101 344 1058 q 225 1218 225 1143 q 246 1239 225 1239 q 263 1235 258 1239 q 269 1222 267 1231 q 276 1204 272 1213 q 332 1163 292 1176 q 426 1150 372 1150 q 520 1163 481 1150 q 575 1204 560 1176 q 583 1222 579 1213 q 590 1235 586 1232 q 606 1239 594 1239 m 436 -111 q 492 -142 492 -111 l 492 -212 q 431 -243 492 -243 q 375 -212 375 -243 l 375 -142 q 436 -111 375 -111 z "},"Ằ":{"ha":851,"x_min":17,"x_max":835,"o":"m 365 1374 q 408 1365 389 1374 q 435 1338 426 1356 q 474 1241 461 1275 q 488 1197 488 1207 q 456 1183 488 1183 q 428 1190 442 1183 q 406 1208 414 1196 q 378 1251 392 1229 q 351 1292 365 1272 q 325 1334 333 1319 q 317 1356 317 1349 q 326 1370 317 1367 q 365 1374 336 1374 m 607 1224 q 628 1203 628 1224 q 567 1097 628 1136 q 428 1058 507 1058 q 287 1097 347 1058 q 226 1203 226 1136 q 247 1224 226 1224 q 260 1220 257 1224 q 267 1206 264 1217 q 278 1189 271 1196 q 338 1149 296 1168 q 428 1131 381 1131 q 518 1149 476 1131 q 576 1189 560 1167 q 585 1206 581 1196 q 592 1220 589 1217 q 607 1224 596 1224 m 446 975 q 501 953 494 975 l 831 39 q 835 21 835 29 q 775 -3 835 -3 l 764 -3 q 708 19 715 -3 l 626 247 l 218 247 l 139 19 q 83 -3 132 -3 l 76 -3 q 17 21 17 -3 q 21 40 17 28 l 350 953 q 406 975 357 975 l 446 975 m 424 847 q 403 767 413 792 l 257 353 l 589 353 l 443 767 q 426 847 436 789 l 424 847 z "},"Ẳ":{"ha":851,"x_min":17,"x_max":835,"o":"m 460 1294 q 445 1322 460 1313 q 408 1332 431 1332 q 363 1323 378 1332 q 344 1314 349 1314 q 324 1331 336 1314 q 311 1360 311 1349 q 347 1386 311 1374 q 419 1399 383 1399 q 501 1376 464 1399 q 539 1304 539 1353 q 526 1254 539 1275 q 490 1215 513 1233 q 458 1194 476 1204 q 433 1185 440 1185 q 397 1194 413 1185 q 382 1213 382 1203 q 390 1226 382 1219 q 417 1243 397 1232 q 460 1294 460 1267 m 607 1224 q 628 1203 628 1224 q 567 1097 628 1136 q 428 1058 507 1058 q 287 1097 347 1058 q 226 1203 226 1136 q 247 1224 226 1224 q 260 1220 257 1224 q 267 1206 264 1217 q 278 1189 271 1196 q 338 1149 296 1168 q 428 1131 381 1131 q 518 1149 476 1131 q 576 1189 560 1167 q 585 1206 581 1196 q 592 1220 589 1217 q 607 1224 596 1224 m 446 975 q 501 953 494 975 l 831 39 q 835 21 835 29 q 775 -3 835 -3 l 764 -3 q 708 19 715 -3 l 626 247 l 218 247 l 139 19 q 83 -3 132 -3 l 76 -3 q 17 21 17 -3 q 21 40 17 28 l 350 953 q 406 975 357 975 l 446 975 m 424 847 q 403 767 413 792 l 257 353 l 589 353 l 443 767 q 426 847 436 789 l 424 847 z "},"Ẵ":{"ha":851,"x_min":17,"x_max":835,"o":"m 322 1400 q 374 1392 347 1400 q 443 1368 400 1385 q 497 1349 469 1357 q 542 1340 524 1340 q 571 1349 558 1340 q 597 1381 583 1358 q 622 1400 608 1400 q 635 1397 631 1400 l 644 1393 q 660 1376 660 1386 q 654 1357 660 1374 q 606 1285 633 1307 q 539 1263 578 1263 q 482 1271 511 1263 q 413 1296 453 1279 q 356 1316 378 1310 q 315 1322 333 1322 q 288 1313 300 1322 q 263 1281 276 1304 q 240 1261 251 1261 q 226 1264 232 1261 l 214 1269 q 201 1286 201 1275 q 206 1304 201 1294 q 254 1378 226 1356 q 322 1400 282 1400 m 607 1224 q 628 1203 628 1224 q 567 1097 628 1136 q 428 1058 507 1058 q 287 1097 347 1058 q 226 1203 226 1136 q 247 1224 226 1224 q 260 1220 257 1224 q 267 1206 264 1217 q 278 1189 271 1196 q 338 1149 296 1168 q 428 1131 381 1131 q 518 1149 476 1131 q 576 1189 560 1167 q 585 1206 581 1196 q 592 1220 589 1217 q 607 1224 596 1224 m 446 975 q 501 953 494 975 l 831 39 q 835 21 835 29 q 775 -3 835 -3 l 764 -3 q 708 19 715 -3 l 626 247 l 218 247 l 139 19 q 83 -3 132 -3 l 76 -3 q 17 21 17 -3 q 21 40 17 28 l 350 953 q 406 975 357 975 l 446 975 m 424 847 q 403 767 413 792 l 257 353 l 589 353 l 443 767 q 426 847 436 789 l 424 847 z "},"Â":{"ha":851,"x_min":17,"x_max":835,"o":"m 17 0 m 446 975 q 501 953 494 975 l 831 39 q 835 21 835 29 q 775 -3 835 -3 l 764 -3 q 708 19 715 -3 l 626 247 l 218 247 l 139 19 q 83 -3 132 -3 l 76 -3 q 17 21 17 -3 q 21 40 17 28 l 350 953 q 406 975 357 975 l 446 975 m 424 847 q 403 767 413 792 l 257 353 l 589 353 l 443 767 q 426 847 436 789 l 424 847 m 443 1243 q 507 1213 486 1243 l 586 1090 q 594 1067 594 1078 q 561 1046 594 1046 l 558 1046 q 513 1064 532 1046 l 425 1167 l 340 1064 q 293 1046 321 1046 l 290 1046 q 258 1065 258 1046 q 267 1090 258 1076 l 344 1213 q 408 1243 365 1243 l 443 1243 z "},"Ấ":{"ha":851,"x_min":17,"x_max":835,"o":"m 718 1335 q 751 1331 742 1335 q 761 1317 761 1326 q 748 1290 761 1308 q 706 1232 735 1271 l 658 1169 q 608 1144 640 1144 q 576 1158 576 1144 q 593 1201 576 1167 q 643 1299 610 1236 q 718 1335 664 1335 m 449 1243 q 499 1213 479 1243 l 571 1090 q 579 1067 579 1078 q 546 1046 579 1046 l 543 1046 q 497 1064 510 1046 l 431 1167 l 346 1064 q 299 1046 326 1046 l 296 1046 q 264 1065 264 1046 q 272 1090 264 1076 l 350 1213 q 414 1243 371 1243 l 449 1243 m 446 975 q 501 953 494 975 l 831 39 q 835 21 835 29 q 775 -3 835 -3 l 764 -3 q 708 19 715 -3 l 626 247 l 218 247 l 139 19 q 83 -3 132 -3 l 76 -3 q 17 21 17 -3 q 21 40 17 28 l 350 953 q 406 975 357 975 l 446 975 m 424 847 q 403 767 413 792 l 257 353 l 589 353 l 443 767 q 426 847 436 789 l 424 847 z "},"Ậ":{"ha":851,"x_min":17,"x_max":835,"o":"m 17 0 m 446 975 q 501 953 494 975 l 831 39 q 835 21 835 29 q 775 -3 835 -3 l 764 -3 q 708 19 715 -3 l 626 247 l 218 247 l 139 19 q 83 -3 132 -3 l 76 -3 q 17 21 17 -3 q 21 40 17 28 l 350 953 q 406 975 357 975 l 446 975 m 424 847 q 403 767 413 792 l 257 353 l 589 353 l 443 767 q 426 847 436 789 l 424 847 m 443 1243 q 507 1213 486 1243 l 586 1090 q 594 1067 594 1078 q 561 1046 594 1046 l 558 1046 q 513 1064 532 1046 l 425 1167 l 340 1064 q 293 1046 321 1046 l 290 1046 q 258 1065 258 1046 q 267 1090 258 1076 l 344 1213 q 408 1243 365 1243 l 443 1243 m 436 -111 q 492 -142 492 -111 l 492 -212 q 431 -243 492 -243 q 375 -212 375 -243 l 375 -142 q 436 -111 375 -111 z "},"Ầ":{"ha":851,"x_min":17,"x_max":835,"o":"m 560 1335 q 602 1326 583 1335 q 629 1299 621 1317 q 669 1202 656 1236 q 682 1158 682 1168 q 650 1144 682 1144 q 622 1151 636 1144 q 600 1169 608 1157 q 573 1212 586 1190 q 546 1253 560 1233 q 519 1295 528 1281 q 511 1317 511 1310 q 521 1331 511 1328 q 560 1335 531 1335 m 449 1243 q 499 1213 479 1243 l 571 1090 q 579 1067 579 1078 q 546 1046 579 1046 l 543 1046 q 497 1064 510 1046 l 431 1167 l 346 1064 q 299 1046 326 1046 l 296 1046 q 264 1065 264 1046 q 272 1090 264 1076 l 350 1213 q 414 1243 371 1243 l 449 1243 m 446 975 q 501 953 494 975 l 831 39 q 835 21 835 29 q 775 -3 835 -3 l 764 -3 q 708 19 715 -3 l 626 247 l 218 247 l 139 19 q 83 -3 132 -3 l 76 -3 q 17 21 17 -3 q 21 40 17 28 l 350 953 q 406 975 357 975 l 446 975 m 424 847 q 403 767 413 792 l 257 353 l 589 353 l 443 767 q 426 847 436 789 l 424 847 z "},"Ẩ":{"ha":851,"x_min":17,"x_max":835,"o":"m 654 1256 q 640 1283 654 1274 q 603 1293 625 1293 q 558 1284 572 1293 q 539 1275 543 1275 q 518 1292 531 1275 q 506 1321 506 1310 q 542 1347 506 1335 q 614 1360 578 1360 q 696 1337 658 1360 q 733 1265 733 1314 q 720 1215 733 1236 q 685 1176 707 1194 q 653 1156 671 1165 q 628 1146 635 1146 q 592 1155 607 1146 q 576 1174 576 1164 q 584 1187 576 1181 q 611 1204 592 1193 q 654 1256 654 1228 m 449 1243 q 499 1213 479 1243 l 571 1090 q 579 1067 579 1078 q 546 1046 579 1046 l 543 1046 q 497 1064 510 1046 l 431 1167 l 346 1064 q 299 1046 326 1046 l 296 1046 q 264 1065 264 1046 q 272 1090 264 1076 l 350 1213 q 414 1243 371 1243 l 449 1243 m 446 975 q 501 953 494 975 l 831 39 q 835 21 835 29 q 775 -3 835 -3 l 764 -3 q 708 19 715 -3 l 626 247 l 218 247 l 139 19 q 83 -3 132 -3 l 76 -3 q 17 21 17 -3 q 21 40 17 28 l 350 953 q 406 975 357 975 l 446 975 m 424 847 q 403 767 413 792 l 257 353 l 589 353 l 443 767 q 426 847 436 789 l 424 847 z "},"Ẫ":{"ha":851,"x_min":17,"x_max":835,"o":"m 324 1400 q 375 1392 349 1400 q 444 1368 401 1385 q 498 1349 471 1357 q 543 1340 525 1340 q 572 1349 560 1340 q 599 1381 585 1358 q 624 1400 610 1400 q 636 1397 632 1400 l 646 1393 q 661 1376 661 1386 q 656 1357 661 1374 q 607 1285 635 1307 q 540 1263 579 1263 q 483 1271 513 1263 q 414 1296 454 1279 q 357 1316 379 1310 q 317 1322 335 1322 q 290 1313 301 1322 q 264 1281 278 1304 q 242 1261 253 1261 q 228 1264 233 1261 l 215 1269 q 203 1286 203 1275 q 207 1304 203 1294 q 256 1378 228 1356 q 324 1400 283 1400 m 443 1210 q 477 1202 463 1210 q 507 1179 492 1194 l 586 1090 q 594 1067 594 1078 q 561 1046 594 1046 l 558 1046 q 535 1051 546 1046 q 513 1064 524 1057 l 425 1133 l 340 1064 q 293 1046 314 1046 l 290 1046 q 258 1065 258 1046 q 267 1090 258 1076 l 344 1179 q 375 1202 361 1194 q 408 1210 389 1210 l 443 1210 m 446 975 q 501 953 494 975 l 831 39 q 835 21 835 29 q 775 -3 835 -3 l 764 -3 q 708 19 715 -3 l 626 247 l 218 247 l 139 19 q 83 -3 132 -3 l 76 -3 q 17 21 17 -3 q 21 40 17 28 l 350 953 q 406 975 357 975 l 446 975 m 424 847 q 403 767 413 792 l 257 353 l 589 353 l 443 767 q 426 847 436 789 l 424 847 z "},"Ä":{"ha":851,"x_min":17,"x_max":835,"o":"m 17 0 m 446 975 q 501 953 494 975 l 831 39 q 835 21 835 29 q 775 -3 835 -3 l 764 -3 q 708 19 715 -3 l 626 247 l 218 247 l 139 19 q 83 -3 132 -3 l 76 -3 q 17 21 17 -3 q 21 40 17 28 l 350 953 q 406 975 357 975 l 446 975 m 424 847 q 403 767 413 792 l 257 353 l 589 353 l 443 767 q 426 847 436 789 l 424 847 m 329 1221 q 385 1190 385 1221 l 385 1119 q 324 1089 385 1089 q 268 1119 268 1089 l 268 1190 q 329 1221 268 1221 m 529 1221 q 585 1190 585 1221 l 585 1119 q 524 1089 585 1089 q 468 1119 468 1089 l 468 1190 q 529 1221 468 1221 z "},"Ạ":{"ha":851,"x_min":17,"x_max":835,"o":"m 17 0 m 446 975 q 501 953 494 975 l 831 39 q 835 21 835 29 q 775 -3 835 -3 l 764 -3 q 708 19 715 -3 l 626 247 l 218 247 l 139 19 q 83 -3 132 -3 l 76 -3 q 17 21 17 -3 q 21 40 17 28 l 350 953 q 406 975 357 975 l 446 975 m 424 847 q 403 767 413 792 l 257 353 l 589 353 l 443 767 q 426 847 436 789 l 424 847 m 436 -111 q 492 -142 492 -111 l 492 -212 q 431 -243 492 -243 q 375 -212 375 -243 l 375 -142 q 436 -111 375 -111 z "},"À":{"ha":851,"x_min":17,"x_max":835,"o":"m 17 0 m 446 975 q 501 953 494 975 l 831 39 q 835 21 835 29 q 775 -3 835 -3 l 764 -3 q 708 19 715 -3 l 626 247 l 218 247 l 139 19 q 83 -3 132 -3 l 76 -3 q 17 21 17 -3 q 21 40 17 28 l 350 953 q 406 975 357 975 l 446 975 m 424 847 q 403 767 413 792 l 257 353 l 589 353 l 443 767 q 426 847 436 789 l 424 847 m 329 1263 q 383 1254 363 1263 q 415 1226 404 1246 q 476 1119 456 1157 q 496 1072 496 1082 q 464 1058 496 1058 q 393 1083 417 1058 l 340 1143 q 274 1220 286 1204 q 263 1244 263 1236 q 278 1258 263 1254 q 329 1263 294 1263 z "},"Ả":{"ha":851,"x_min":17,"x_max":835,"o":"m 17 0 m 446 975 q 501 953 494 975 l 831 39 q 835 21 835 29 q 775 -3 835 -3 l 764 -3 q 708 19 715 -3 l 626 247 l 218 247 l 139 19 q 83 -3 132 -3 l 76 -3 q 17 21 17 -3 q 21 40 17 28 l 350 953 q 406 975 357 975 l 446 975 m 424 847 q 403 767 413 792 l 257 353 l 589 353 l 443 767 q 426 847 436 789 l 424 847 m 476 1179 q 462 1207 476 1197 q 425 1217 447 1217 q 380 1208 394 1217 q 361 1199 365 1199 q 340 1216 353 1199 q 328 1244 328 1233 q 364 1273 328 1258 q 436 1288 400 1288 q 522 1264 482 1288 q 563 1189 563 1240 q 537 1111 563 1147 q 479 1051 511 1075 q 436 1028 447 1028 q 408 1035 425 1028 q 390 1051 390 1043 q 398 1072 390 1064 q 425 1097 406 1081 q 463 1135 449 1117 q 476 1179 476 1153 z "},"Ā":{"ha":851,"x_min":17,"x_max":835,"o":"m 17 0 m 446 975 q 501 953 494 975 l 831 39 q 835 21 835 29 q 775 -3 835 -3 l 764 -3 q 708 19 715 -3 l 626 247 l 218 247 l 139 19 q 83 -3 132 -3 l 76 -3 q 17 21 17 -3 q 21 40 17 28 l 350 953 q 406 975 357 975 l 446 975 m 424 847 q 403 767 413 792 l 257 353 l 589 353 l 443 767 q 426 847 436 789 l 424 847 m 581 1193 q 602 1183 596 1193 q 608 1151 608 1174 l 608 1138 q 602 1106 608 1115 q 581 1096 596 1096 l 271 1096 q 250 1106 257 1096 q 243 1138 243 1115 l 243 1151 q 250 1183 243 1174 q 271 1193 257 1193 l 581 1193 z "},"Ą":{"ha":851,"x_min":17,"x_max":979,"o":"m 953 -143 q 979 -178 979 -143 q 951 -238 979 -222 q 865 -254 922 -254 q 735 -208 768 -254 q 701 -112 701 -162 q 736 0 701 -33 q 708 19 714 4 l 626 247 l 218 247 l 139 19 q 83 -3 132 -3 l 76 -3 q 17 21 17 -3 q 21 40 17 28 l 350 953 q 406 975 357 975 l 446 975 q 501 953 494 975 l 831 39 q 835 21 835 29 q 811 1 835 6 l 811 -1 q 804 -33 811 -12 q 794 -86 794 -69 q 819 -144 794 -131 q 881 -157 844 -157 q 915 -150 894 -157 q 953 -143 947 -143 m 589 353 l 443 767 q 426 847 436 789 l 424 847 q 403 767 413 792 l 257 353 l 589 353 z "},"Å":{"ha":851,"x_min":17,"x_max":835,"o":"m 17 0 m 446 975 q 501 953 494 975 l 831 39 q 835 21 835 29 q 775 -3 835 -3 l 764 -3 q 708 19 715 -3 l 626 247 l 218 247 l 139 19 q 83 -3 132 -3 l 76 -3 q 17 21 17 -3 q 21 40 17 28 l 350 953 q 406 975 357 975 l 446 975 m 424 847 q 403 767 413 792 l 257 353 l 589 353 l 443 767 q 426 847 436 789 l 424 847 m 425 1264 q 508 1229 474 1264 q 543 1146 543 1194 q 508 1063 543 1097 q 425 1029 474 1029 q 342 1063 376 1029 q 308 1146 308 1097 q 342 1229 308 1194 q 425 1264 376 1264 m 425 1215 q 376 1195 396 1215 q 357 1146 357 1175 q 376 1097 357 1117 q 425 1078 396 1078 q 474 1097 454 1078 q 494 1146 494 1117 q 474 1195 494 1175 q 425 1215 454 1215 z "},"Ǻ":{"ha":851,"x_min":17,"x_max":835,"o":"m 403 1142 q 371 1156 371 1142 q 422 1254 397 1208 q 453 1283 433 1275 q 508 1290 474 1290 q 559 1286 543 1290 q 575 1272 575 1282 q 569 1262 575 1268 q 556 1248 564 1256 q 542 1233 549 1240 l 474 1167 q 403 1142 451 1142 m 831 39 q 835 21 835 29 q 775 -3 835 -3 l 764 -3 q 708 19 715 -3 l 626 247 l 218 247 l 139 19 q 83 -3 132 -3 l 76 -3 q 17 21 17 -3 q 21 40 17 28 l 335 911 q 310 983 310 943 q 344 1067 310 1032 q 426 1101 378 1101 q 510 1067 475 1101 q 544 983 544 1032 q 517 908 544 940 l 831 39 m 426 1053 q 378 1033 397 1053 q 358 983 358 1013 q 378 935 358 954 q 426 915 397 915 q 476 935 456 915 q 496 983 496 954 q 476 1033 496 1013 q 426 1053 456 1053 m 589 353 l 443 767 q 426 847 436 789 l 424 847 q 403 767 413 792 l 257 353 l 589 353 z "},"Ã":{"ha":851,"x_min":17,"x_max":835,"o":"m 17 0 m 446 975 q 501 953 494 975 l 831 39 q 835 21 835 29 q 775 -3 835 -3 l 764 -3 q 708 19 715 -3 l 626 247 l 218 247 l 139 19 q 83 -3 132 -3 l 76 -3 q 17 21 17 -3 q 21 40 17 28 l 350 953 q 406 975 357 975 l 446 975 m 424 847 q 403 767 413 792 l 257 353 l 589 353 l 443 767 q 426 847 436 789 l 424 847 m 318 1204 q 376 1197 347 1204 q 453 1172 406 1189 q 516 1151 493 1158 q 560 1144 539 1144 q 593 1153 579 1144 q 621 1185 607 1163 q 649 1204 635 1204 q 663 1201 657 1204 l 674 1197 q 689 1181 689 1192 q 683 1161 689 1172 q 631 1089 661 1111 q 557 1067 600 1067 q 418 1100 507 1067 q 356 1120 379 1114 q 311 1126 332 1126 q 281 1117 293 1126 q 253 1085 268 1108 q 240 1069 244 1074 q 228 1065 235 1065 q 214 1068 219 1065 l 200 1074 q 186 1090 186 1079 q 190 1108 186 1099 q 244 1182 213 1160 q 318 1204 275 1204 z "},"Æ":{"ha":1271,"x_min":-15,"x_max":1143,"o":"m 1114 972 q 1135 963 1129 972 q 1142 931 1142 953 l 1142 908 q 1135 876 1142 886 q 1114 867 1129 867 l 611 867 l 681 550 l 1072 550 q 1094 540 1088 550 q 1100 508 1100 531 l 1100 486 q 1094 454 1100 464 q 1072 444 1088 444 l 703 444 l 776 106 l 1115 106 q 1137 96 1131 106 q 1143 64 1143 86 l 1143 42 q 1137 10 1143 19 q 1115 0 1131 0 l 717 0 q 667 40 675 0 l 622 247 l 213 247 l 101 19 q 46 -3 89 -3 l 39 -3 q -3 3 8 -3 q -15 21 -15 8 q -10 43 -15 32 l 436 935 q 460 963 446 954 q 496 972 474 972 l 1114 972 m 504 847 l 501 847 l 472 767 l 267 351 l 599 351 l 510 767 l 504 847 z "},"Ǽ":{"ha":1271,"x_min":-15,"x_max":1143,"o":"m 0 0 m 1114 972 q 1135 963 1129 972 q 1142 931 1142 953 l 1142 908 q 1135 876 1142 886 q 1114 867 1129 867 l 611 867 l 681 550 l 1072 550 q 1094 540 1088 550 q 1100 508 1100 531 l 1100 486 q 1094 454 1100 464 q 1072 444 1088 444 l 703 444 l 776 106 l 1115 106 q 1137 96 1131 106 q 1143 64 1143 86 l 1143 42 q 1137 10 1143 19 q 1115 0 1131 0 l 717 0 q 667 40 675 0 l 622 247 l 213 247 l 101 19 q 46 -3 89 -3 l 39 -3 q -3 3 8 -3 q -15 21 -15 8 q -10 43 -15 32 l 436 935 q 460 963 446 954 q 496 972 474 972 l 1114 972 m 504 847 l 501 847 l 472 767 l 267 351 l 599 351 l 510 767 l 504 847 m 747 1263 q 798 1258 782 1263 q 814 1244 814 1254 q 802 1220 814 1236 q 736 1143 790 1204 l 683 1083 q 613 1058 661 1058 q 581 1072 581 1058 q 601 1119 581 1082 q 661 1226 621 1157 q 693 1254 672 1246 q 747 1263 714 1263 z "},"B":{"ha":824,"x_min":135,"x_max":778,"o":"m 425 972 q 656 906 576 972 q 736 726 736 839 q 690 594 736 657 q 583 515 644 532 l 583 510 q 638 489 583 515 q 735 412 692 463 q 778 279 778 361 q 415 0 778 0 l 176 0 q 144 10 154 0 q 135 42 135 19 l 135 931 q 144 963 135 953 q 176 972 154 972 l 425 972 m 257 867 l 257 553 l 418 553 q 556 600 501 553 q 610 715 610 647 q 563 830 610 793 q 413 867 515 867 l 257 867 m 257 447 l 257 106 l 460 106 q 601 153 551 106 q 651 285 651 201 q 597 405 651 363 q 436 447 542 447 l 257 447 z "},"C":{"ha":860,"x_min":79,"x_max":814,"o":"m 529 981 q 656 967 594 981 q 756 933 718 954 q 794 894 794 913 q 777 844 794 875 q 747 814 760 814 q 712 831 743 814 q 635 862 681 849 q 532 875 590 875 q 285 782 364 875 q 206 485 206 689 q 284 191 206 285 q 526 97 363 97 q 643 113 594 97 q 739 154 692 129 q 765 167 758 167 q 796 136 778 167 q 814 92 814 106 q 774 49 814 72 q 669 8 735 25 q 526 -8 603 -8 q 188 112 297 -8 q 79 486 79 232 q 529 981 79 981 z "},"Ć":{"ha":860,"x_min":79,"x_max":814,"o":"m 79 0 m 529 981 q 656 967 594 981 q 756 933 718 954 q 794 894 794 913 q 777 844 794 875 q 747 814 760 814 q 712 831 743 814 q 635 862 681 849 q 532 875 590 875 q 285 782 364 875 q 206 485 206 689 q 284 191 206 285 q 526 97 363 97 q 643 113 594 97 q 739 154 692 129 q 765 167 758 167 q 796 136 778 167 q 814 92 814 106 q 774 49 814 72 q 669 8 735 25 q 526 -8 603 -8 q 188 112 297 -8 q 79 486 79 232 q 529 981 79 981 m 604 1263 q 655 1258 639 1263 q 671 1244 671 1254 q 659 1220 671 1236 q 593 1143 647 1204 l 540 1083 q 469 1058 518 1058 q 438 1072 438 1058 q 458 1119 438 1082 q 518 1226 478 1157 q 550 1254 529 1246 q 604 1263 571 1263 z "},"Č":{"ha":860,"x_min":79,"x_max":814,"o":"m 79 0 m 529 981 q 656 967 594 981 q 756 933 718 954 q 794 894 794 913 q 777 844 794 875 q 747 814 760 814 q 712 831 743 814 q 635 862 681 849 q 532 875 590 875 q 285 782 364 875 q 206 485 206 689 q 284 191 206 285 q 526 97 363 97 q 643 113 594 97 q 739 154 692 129 q 765 167 758 167 q 796 136 778 167 q 814 92 814 106 q 774 49 814 72 q 669 8 735 25 q 526 -8 603 -8 q 188 112 297 -8 q 79 486 79 232 q 529 981 79 981 m 628 1251 q 661 1231 661 1251 q 653 1207 661 1219 l 574 1085 q 510 1054 553 1054 l 475 1054 q 411 1085 432 1054 l 333 1207 q 325 1232 325 1222 q 357 1251 325 1251 l 360 1251 q 407 1233 388 1251 l 492 1131 l 579 1233 q 625 1251 599 1251 l 628 1251 z "},"Ç":{"ha":860,"x_min":79,"x_max":814,"o":"m 814 92 q 776 49 814 72 q 672 8 738 25 q 532 -8 607 -8 l 515 -68 l 521 -68 q 600 -89 561 -68 q 639 -168 639 -110 q 479 -292 639 -292 q 372 -275 425 -292 q 319 -232 319 -258 q 346 -196 319 -196 q 381 -206 357 -196 q 461 -224 426 -224 q 540 -175 540 -224 q 526 -141 540 -151 q 486 -122 513 -131 q 458 -111 467 -117 q 449 -94 449 -106 q 454 -67 449 -86 q 472 -7 460 -47 q 176 127 272 7 q 79 486 79 247 q 529 981 79 981 q 656 967 594 981 q 756 933 718 954 q 794 894 794 913 q 777 844 794 875 q 747 814 760 814 q 712 831 743 814 q 635 862 681 849 q 532 875 590 875 q 285 782 364 875 q 206 485 206 689 q 284 191 206 285 q 526 97 363 97 q 643 113 594 97 q 739 154 692 129 q 765 167 758 167 q 796 136 778 167 q 814 92 814 106 z "},"Ĉ":{"ha":860,"x_min":79,"x_max":814,"o":"m 79 0 m 529 981 q 656 967 594 981 q 756 933 718 954 q 794 894 794 913 q 777 844 794 875 q 747 814 760 814 q 712 831 743 814 q 635 862 681 849 q 532 875 590 875 q 285 782 364 875 q 206 485 206 689 q 284 191 206 285 q 526 97 363 97 q 643 113 594 97 q 739 154 692 129 q 765 167 758 167 q 796 136 778 167 q 814 92 814 106 q 774 49 814 72 q 669 8 735 25 q 526 -8 603 -8 q 188 112 297 -8 q 79 486 79 232 q 529 981 79 981 m 510 1243 q 574 1213 553 1243 l 653 1090 q 661 1067 661 1078 q 628 1046 661 1046 l 625 1046 q 579 1064 599 1046 l 492 1167 l 407 1064 q 360 1046 388 1046 l 357 1046 q 325 1065 325 1046 q 333 1090 325 1076 l 411 1213 q 475 1243 432 1243 l 510 1243 z "},"Ċ":{"ha":860,"x_min":79,"x_max":814,"o":"m 79 0 m 529 981 q 656 967 594 981 q 756 933 718 954 q 794 894 794 913 q 777 844 794 875 q 747 814 760 814 q 712 831 743 814 q 635 862 681 849 q 532 875 590 875 q 285 782 364 875 q 206 485 206 689 q 284 191 206 285 q 526 97 363 97 q 643 113 594 97 q 739 154 692 129 q 765 167 758 167 q 796 136 778 167 q 814 92 814 106 q 774 49 814 72 q 669 8 735 25 q 526 -8 603 -8 q 188 112 297 -8 q 79 486 79 232 q 529 981 79 981 m 496 1221 q 551 1190 551 1221 l 551 1119 q 490 1089 551 1089 q 435 1119 435 1089 l 435 1190 q 496 1221 435 1221 z "},"D":{"ha":965,"x_min":135,"x_max":886,"o":"m 457 972 q 769 856 651 972 q 886 486 886 740 q 769 115 886 231 q 457 0 651 0 l 176 0 q 144 10 154 0 q 135 42 135 19 l 135 931 q 144 963 135 953 q 176 972 154 972 l 457 972 m 257 867 l 257 106 l 447 106 q 674 197 588 106 q 760 486 760 289 q 674 774 760 682 q 447 867 588 867 l 257 867 z "},"Ǳ":{"ha":1821,"x_min":135,"x_max":1758,"o":"m 135 0 m 457 972 q 769 856 651 972 q 886 486 886 740 q 769 115 886 231 q 457 0 651 0 l 176 0 q 144 10 154 0 q 135 42 135 19 l 135 931 q 144 963 135 953 q 176 972 154 972 l 457 972 m 257 867 l 257 106 l 447 106 q 674 197 588 106 q 760 486 760 289 q 674 774 760 682 q 447 867 588 867 l 257 867 m 1728 972 q 1747 946 1736 972 q 1758 899 1758 919 q 1754 882 1758 889 l 1185 106 l 1728 106 q 1749 94 1743 106 q 1756 58 1756 83 l 1756 47 q 1749 11 1756 22 q 1728 0 1743 0 l 1051 0 q 1030 26 1042 0 q 1018 74 1018 53 q 1022 90 1018 85 l 1592 867 l 1092 867 q 1070 878 1076 867 q 1064 914 1064 889 l 1064 925 q 1070 961 1064 950 q 1092 972 1076 972 l 1728 972 z "},"Ǆ":{"ha":1821,"x_min":135,"x_max":1758,"o":"m 135 0 m 457 972 q 769 856 651 972 q 886 486 886 740 q 769 115 886 231 q 457 0 651 0 l 176 0 q 144 10 154 0 q 135 42 135 19 l 135 931 q 144 963 135 953 q 176 972 154 972 l 457 972 m 257 867 l 257 106 l 447 106 q 674 197 588 106 q 760 486 760 289 q 674 774 760 682 q 447 867 588 867 l 257 867 m 1728 972 q 1747 946 1736 972 q 1758 899 1758 919 q 1754 882 1758 889 l 1185 106 l 1728 106 q 1749 94 1743 106 q 1756 58 1756 83 l 1756 47 q 1749 11 1756 22 q 1728 0 1743 0 l 1051 0 q 1030 26 1042 0 q 1018 74 1018 53 q 1022 90 1018 85 l 1592 867 l 1092 867 q 1070 878 1076 867 q 1064 914 1064 889 l 1064 925 q 1070 961 1064 950 q 1092 972 1076 972 l 1728 972 m 1528 1251 q 1561 1231 1561 1251 q 1553 1207 1561 1219 l 1474 1085 q 1410 1054 1453 1054 l 1375 1054 q 1311 1085 1332 1054 l 1233 1207 q 1225 1232 1225 1222 q 1257 1251 1225 1251 l 1260 1251 q 1307 1233 1288 1251 l 1392 1131 l 1479 1233 q 1525 1251 1499 1251 l 1528 1251 z "},"Ð":{"ha":967,"x_min":0,"x_max":890,"o":"m 458 972 q 772 856 654 972 q 890 486 890 740 q 772 115 890 231 q 458 0 654 0 l 160 0 q 128 10 138 0 q 118 42 118 19 l 118 444 l 28 444 q 7 454 14 444 q 0 486 0 464 l 0 508 q 7 540 0 531 q 28 550 14 550 l 118 550 l 118 931 q 128 963 118 953 q 160 972 138 972 l 458 972 m 240 867 l 240 550 l 393 550 q 415 540 408 550 q 421 508 421 531 l 421 486 q 415 454 421 464 q 393 444 408 444 l 240 444 l 240 106 l 449 106 q 677 197 590 106 q 764 486 764 289 q 677 774 764 682 q 449 867 590 867 l 240 867 z "},"Ď":{"ha":965,"x_min":135,"x_max":886,"o":"m 135 0 m 457 972 q 769 856 651 972 q 886 486 886 740 q 769 115 886 231 q 457 0 651 0 l 176 0 q 144 10 154 0 q 135 42 135 19 l 135 931 q 144 963 135 953 q 176 972 154 972 l 457 972 m 257 867 l 257 106 l 447 106 q 674 197 588 106 q 760 486 760 289 q 674 774 760 682 q 447 867 588 867 l 257 867 m 568 1251 q 601 1231 601 1251 q 593 1207 601 1219 l 514 1085 q 450 1054 493 1054 l 415 1054 q 351 1085 372 1054 l 274 1207 q 265 1232 265 1222 q 297 1251 265 1251 l 300 1251 q 347 1233 328 1251 l 432 1131 l 519 1233 q 565 1251 539 1251 l 568 1251 z "},"Đ":{"ha":967,"x_min":0,"x_max":890,"o":"m 0 0 m 458 972 q 772 856 654 972 q 890 486 890 740 q 772 115 890 231 q 458 0 654 0 l 160 0 q 128 10 138 0 q 118 42 118 19 l 118 444 l 28 444 q 7 454 14 444 q 0 486 0 464 l 0 508 q 7 540 0 531 q 28 550 14 550 l 118 550 l 118 931 q 128 963 118 953 q 160 972 138 972 l 458 972 m 240 867 l 240 550 l 393 550 q 415 540 408 550 q 421 508 421 531 l 421 486 q 415 454 421 464 q 393 444 408 444 l 240 444 l 240 106 l 449 106 q 677 197 590 106 q 764 486 764 289 q 677 774 764 682 q 449 867 590 867 l 240 867 z "},"Ḍ":{"ha":965,"x_min":135,"x_max":886,"o":"m 135 0 m 457 972 q 769 856 651 972 q 886 486 886 740 q 769 115 886 231 q 457 0 651 0 l 176 0 q 144 10 154 0 q 135 42 135 19 l 135 931 q 144 963 135 953 q 176 972 154 972 l 457 972 m 257 867 l 257 106 l 447 106 q 674 197 588 106 q 760 486 760 289 q 674 774 760 682 q 447 867 588 867 l 257 867 m 460 -111 q 515 -142 515 -111 l 515 -212 q 454 -243 515 -243 q 399 -212 399 -243 l 399 -142 q 460 -111 399 -111 z "},"ǲ":{"ha":1644,"x_min":135,"x_max":1589,"o":"m 135 0 m 457 972 q 769 856 651 972 q 886 486 886 740 q 769 115 886 231 q 457 0 651 0 l 176 0 q 144 10 154 0 q 135 42 135 19 l 135 931 q 144 963 135 953 q 176 972 154 972 l 457 972 m 257 867 l 257 106 l 447 106 q 674 197 588 106 q 760 486 760 289 q 674 774 760 682 q 447 867 588 867 l 257 867 m 1560 726 q 1578 701 1569 726 q 1588 654 1588 675 q 1585 640 1588 646 l 1179 100 l 1561 100 q 1583 90 1576 100 q 1589 58 1589 81 l 1589 42 q 1583 10 1589 19 q 1561 0 1576 0 l 1047 0 q 1028 25 1039 0 q 1017 71 1017 50 q 1021 86 1017 81 l 1428 626 l 1072 626 q 1051 636 1058 626 q 1044 668 1044 646 l 1044 685 q 1051 717 1044 707 q 1072 726 1058 726 l 1560 726 z "},"ǅ":{"ha":1644,"x_min":135,"x_max":1589,"o":"m 135 0 m 457 972 q 769 856 651 972 q 886 486 886 740 q 769 115 886 231 q 457 0 651 0 l 176 0 q 144 10 154 0 q 135 42 135 19 l 135 931 q 144 963 135 953 q 176 972 154 972 l 457 972 m 257 867 l 257 106 l 447 106 q 674 197 588 106 q 760 486 760 289 q 674 774 760 682 q 447 867 588 867 l 257 867 m 1560 726 q 1578 701 1569 726 q 1588 654 1588 675 q 1585 640 1588 646 l 1179 100 l 1561 100 q 1583 90 1576 100 q 1589 58 1589 81 l 1589 42 q 1583 10 1589 19 q 1561 0 1576 0 l 1047 0 q 1028 25 1039 0 q 1017 71 1017 50 q 1021 86 1017 81 l 1428 626 l 1072 626 q 1051 636 1058 626 q 1044 668 1044 646 l 1044 685 q 1051 717 1044 707 q 1072 726 1058 726 l 1560 726 m 1440 1006 q 1474 985 1474 1006 q 1465 961 1474 974 l 1386 839 q 1322 808 1365 808 l 1288 808 q 1224 839 1244 808 l 1146 961 q 1138 986 1138 976 q 1169 1006 1138 1006 l 1172 1006 q 1219 988 1200 1006 l 1304 885 l 1392 988 q 1438 1006 1411 1006 l 1440 1006 z "},"E":{"ha":758,"x_min":135,"x_max":690,"o":"m 661 972 q 683 963 676 972 q 689 931 689 953 l 689 908 q 683 876 689 886 q 661 867 676 867 l 257 867 l 257 550 l 619 550 q 641 540 635 550 q 647 508 647 531 l 647 486 q 641 454 647 464 q 619 444 635 444 l 257 444 l 257 106 l 663 106 q 684 96 678 106 q 690 64 690 86 l 690 42 q 684 10 690 19 q 663 0 678 0 l 176 0 q 144 10 154 0 q 135 42 135 19 l 135 931 q 144 963 135 953 q 176 972 154 972 l 661 972 z "},"É":{"ha":758,"x_min":135,"x_max":690,"o":"m 135 0 m 661 972 q 683 963 676 972 q 689 931 689 953 l 689 908 q 683 876 689 886 q 661 867 676 867 l 257 867 l 257 550 l 619 550 q 641 540 635 550 q 647 508 647 531 l 647 486 q 641 454 647 464 q 619 444 635 444 l 257 444 l 257 106 l 663 106 q 684 96 678 106 q 690 64 690 86 l 690 42 q 684 10 690 19 q 663 0 678 0 l 176 0 q 144 10 154 0 q 135 42 135 19 l 135 931 q 144 963 135 953 q 176 972 154 972 l 661 972 m 522 1263 q 573 1258 557 1263 q 589 1244 589 1254 q 577 1220 589 1236 q 511 1143 565 1204 l 458 1083 q 388 1058 436 1058 q 356 1072 356 1058 q 376 1119 356 1082 q 436 1226 396 1157 q 468 1254 447 1246 q 522 1263 489 1263 z "},"Ĕ":{"ha":758,"x_min":135,"x_max":690,"o":"m 135 0 m 661 972 q 683 963 676 972 q 689 931 689 953 l 689 908 q 683 876 689 886 q 661 867 676 867 l 257 867 l 257 550 l 619 550 q 641 540 635 550 q 647 508 647 531 l 647 486 q 641 454 647 464 q 619 444 635 444 l 257 444 l 257 106 l 663 106 q 684 96 678 106 q 690 64 690 86 l 690 42 q 684 10 690 19 q 663 0 678 0 l 176 0 q 144 10 154 0 q 135 42 135 19 l 135 931 q 144 963 135 953 q 176 972 154 972 l 661 972 m 590 1239 q 611 1218 611 1239 q 551 1101 611 1143 q 411 1058 492 1058 q 269 1101 329 1058 q 210 1218 210 1143 q 231 1239 210 1239 q 247 1235 243 1239 q 254 1222 251 1231 q 261 1204 257 1213 q 317 1163 276 1176 q 411 1150 357 1150 q 505 1163 465 1150 q 560 1204 544 1176 q 567 1222 564 1213 q 575 1235 571 1232 q 590 1239 579 1239 z "},"Ě":{"ha":758,"x_min":135,"x_max":690,"o":"m 135 0 m 661 972 q 683 963 676 972 q 689 931 689 953 l 689 908 q 683 876 689 886 q 661 867 676 867 l 257 867 l 257 550 l 619 550 q 641 540 635 550 q 647 508 647 531 l 647 486 q 641 454 647 464 q 619 444 635 444 l 257 444 l 257 106 l 663 106 q 684 96 678 106 q 690 64 690 86 l 690 42 q 684 10 690 19 q 663 0 678 0 l 176 0 q 144 10 154 0 q 135 42 135 19 l 135 931 q 144 963 135 953 q 176 972 154 972 l 661 972 m 546 1251 q 579 1231 579 1251 q 571 1207 579 1219 l 492 1085 q 428 1054 471 1054 l 393 1054 q 329 1085 350 1054 l 251 1207 q 243 1232 243 1222 q 275 1251 243 1251 l 278 1251 q 325 1233 306 1251 l 410 1131 l 497 1233 q 543 1251 517 1251 l 546 1251 z "},"Ê":{"ha":758,"x_min":135,"x_max":690,"o":"m 135 0 m 661 972 q 683 963 676 972 q 689 931 689 953 l 689 908 q 683 876 689 886 q 661 867 676 867 l 257 867 l 257 550 l 619 550 q 641 540 635 550 q 647 508 647 531 l 647 486 q 641 454 647 464 q 619 444 635 444 l 257 444 l 257 106 l 663 106 q 684 96 678 106 q 690 64 690 86 l 690 42 q 684 10 690 19 q 663 0 678 0 l 176 0 q 144 10 154 0 q 135 42 135 19 l 135 931 q 144 963 135 953 q 176 972 154 972 l 661 972 m 428 1243 q 492 1213 471 1243 l 571 1090 q 579 1067 579 1078 q 546 1046 579 1046 l 543 1046 q 497 1064 517 1046 l 410 1167 l 325 1064 q 278 1046 306 1046 l 275 1046 q 243 1065 243 1046 q 251 1090 243 1076 l 329 1213 q 393 1243 350 1243 l 428 1243 z "},"Ế":{"ha":758,"x_min":135,"x_max":746,"o":"m 703 1335 q 736 1331 726 1335 q 746 1317 746 1326 q 733 1290 746 1308 q 690 1232 719 1271 l 643 1169 q 593 1144 624 1144 q 561 1158 561 1144 q 578 1201 561 1167 q 628 1299 594 1236 q 703 1335 649 1335 m 433 1243 q 483 1213 464 1243 l 556 1090 q 564 1067 564 1078 q 531 1046 564 1046 l 528 1046 q 482 1064 494 1046 l 415 1167 l 331 1064 q 283 1046 311 1046 l 281 1046 q 249 1065 249 1046 q 257 1090 249 1076 l 335 1213 q 399 1243 356 1243 l 433 1243 m 661 972 q 683 963 676 972 q 689 931 689 953 l 689 908 q 683 876 689 886 q 661 867 676 867 l 257 867 l 257 550 l 619 550 q 641 540 635 550 q 647 508 647 531 l 647 486 q 641 454 647 464 q 619 444 635 444 l 257 444 l 257 106 l 663 106 q 684 96 678 106 q 690 64 690 86 l 690 42 q 684 10 690 19 q 663 0 678 0 l 176 0 q 144 10 154 0 q 135 42 135 19 l 135 931 q 144 963 135 953 q 176 972 154 972 l 661 972 z "},"Ệ":{"ha":758,"x_min":135,"x_max":690,"o":"m 135 0 m 661 972 q 683 963 676 972 q 689 931 689 953 l 689 908 q 683 876 689 886 q 661 867 676 867 l 257 867 l 257 550 l 619 550 q 641 540 635 550 q 647 508 647 531 l 647 486 q 641 454 647 464 q 619 444 635 444 l 257 444 l 257 106 l 663 106 q 684 96 678 106 q 690 64 690 86 l 690 42 q 684 10 690 19 q 663 0 678 0 l 176 0 q 144 10 154 0 q 135 42 135 19 l 135 931 q 144 963 135 953 q 176 972 154 972 l 661 972 m 428 1243 q 492 1213 471 1243 l 571 1090 q 579 1067 579 1078 q 546 1046 579 1046 l 543 1046 q 497 1064 517 1046 l 410 1167 l 325 1064 q 278 1046 306 1046 l 275 1046 q 243 1065 243 1046 q 251 1090 243 1076 l 329 1213 q 393 1243 350 1243 l 428 1243 m 422 -111 q 478 -142 478 -111 l 478 -212 q 417 -243 478 -243 q 361 -212 361 -243 l 361 -142 q 422 -111 361 -111 z "},"Ề":{"ha":758,"x_min":135,"x_max":690,"o":"m 544 1335 q 587 1326 568 1335 q 614 1299 606 1317 q 653 1202 640 1236 q 667 1158 667 1168 q 635 1144 667 1144 q 607 1151 621 1144 q 585 1169 593 1157 q 558 1212 571 1190 q 531 1253 544 1233 q 504 1295 513 1281 q 496 1317 496 1310 q 506 1331 496 1328 q 544 1335 515 1335 m 433 1243 q 483 1213 464 1243 l 556 1090 q 564 1067 564 1078 q 531 1046 564 1046 l 528 1046 q 482 1064 494 1046 l 415 1167 l 331 1064 q 283 1046 311 1046 l 281 1046 q 249 1065 249 1046 q 257 1090 249 1076 l 335 1213 q 399 1243 356 1243 l 433 1243 m 661 972 q 683 963 676 972 q 689 931 689 953 l 689 908 q 683 876 689 886 q 661 867 676 867 l 257 867 l 257 550 l 619 550 q 641 540 635 550 q 647 508 647 531 l 647 486 q 641 454 647 464 q 619 444 635 444 l 257 444 l 257 106 l 663 106 q 684 96 678 106 q 690 64 690 86 l 690 42 q 684 10 690 19 q 663 0 678 0 l 176 0 q 144 10 154 0 q 135 42 135 19 l 135 931 q 144 963 135 953 q 176 972 154 972 l 661 972 z "},"Ể":{"ha":758,"x_min":135,"x_max":718,"o":"m 639 1256 q 624 1283 639 1274 q 588 1293 610 1293 q 542 1284 557 1293 q 524 1275 528 1275 q 503 1292 515 1275 q 490 1321 490 1310 q 526 1347 490 1335 q 599 1360 563 1360 q 681 1337 643 1360 q 718 1265 718 1314 q 705 1215 718 1236 q 669 1176 692 1194 q 638 1156 656 1165 q 613 1146 619 1146 q 576 1155 592 1146 q 561 1174 561 1164 q 569 1187 561 1181 q 596 1204 576 1193 q 639 1256 639 1228 m 433 1243 q 483 1213 464 1243 l 556 1090 q 564 1067 564 1078 q 531 1046 564 1046 l 528 1046 q 482 1064 494 1046 l 415 1167 l 331 1064 q 283 1046 311 1046 l 281 1046 q 249 1065 249 1046 q 257 1090 249 1076 l 335 1213 q 399 1243 356 1243 l 433 1243 m 661 972 q 683 963 676 972 q 689 931 689 953 l 689 908 q 683 876 689 886 q 661 867 676 867 l 257 867 l 257 550 l 619 550 q 641 540 635 550 q 647 508 647 531 l 647 486 q 641 454 647 464 q 619 444 635 444 l 257 444 l 257 106 l 663 106 q 684 96 678 106 q 690 64 690 86 l 690 42 q 684 10 690 19 q 663 0 678 0 l 176 0 q 144 10 154 0 q 135 42 135 19 l 135 931 q 144 963 135 953 q 176 972 154 972 l 661 972 z "},"Ễ":{"ha":758,"x_min":135,"x_max":690,"o":"m 308 1400 q 360 1392 333 1400 q 429 1368 386 1385 q 483 1349 456 1357 q 528 1340 510 1340 q 557 1349 544 1340 q 583 1381 569 1358 q 608 1400 594 1400 q 621 1397 617 1400 l 631 1393 q 646 1376 646 1386 q 640 1357 646 1374 q 592 1285 619 1307 q 525 1263 564 1263 q 468 1271 497 1263 q 399 1296 439 1279 q 342 1316 364 1310 q 301 1322 319 1322 q 274 1313 286 1322 q 249 1281 263 1304 q 226 1261 238 1261 q 213 1264 218 1261 l 200 1269 q 188 1286 188 1275 q 192 1304 188 1294 q 240 1378 213 1356 q 308 1400 268 1400 m 428 1210 q 462 1202 447 1210 q 492 1179 476 1194 l 571 1090 q 579 1067 579 1078 q 546 1046 579 1046 l 543 1046 q 519 1051 531 1046 q 497 1064 508 1057 l 410 1133 l 325 1064 q 278 1046 299 1046 l 275 1046 q 243 1065 243 1046 q 251 1090 243 1076 l 329 1179 q 360 1202 346 1194 q 393 1210 374 1210 l 428 1210 m 661 972 q 683 963 676 972 q 689 931 689 953 l 689 908 q 683 876 689 886 q 661 867 676 867 l 257 867 l 257 550 l 619 550 q 641 540 635 550 q 647 508 647 531 l 647 486 q 641 454 647 464 q 619 444 635 444 l 257 444 l 257 106 l 663 106 q 684 96 678 106 q 690 64 690 86 l 690 42 q 684 10 690 19 q 663 0 678 0 l 176 0 q 144 10 154 0 q 135 42 135 19 l 135 931 q 144 963 135 953 q 176 972 154 972 l 661 972 z "},"Ë":{"ha":758,"x_min":135,"x_max":690,"o":"m 135 0 m 661 972 q 683 963 676 972 q 689 931 689 953 l 689 908 q 683 876 689 886 q 661 867 676 867 l 257 867 l 257 550 l 619 550 q 641 540 635 550 q 647 508 647 531 l 647 486 q 641 454 647 464 q 619 444 635 444 l 257 444 l 257 106 l 663 106 q 684 96 678 106 q 690 64 690 86 l 690 42 q 684 10 690 19 q 663 0 678 0 l 176 0 q 144 10 154 0 q 135 42 135 19 l 135 931 q 144 963 135 953 q 176 972 154 972 l 661 972 m 314 1221 q 369 1190 369 1221 l 369 1119 q 308 1089 369 1089 q 253 1119 253 1089 l 253 1190 q 314 1221 253 1221 m 514 1221 q 569 1190 569 1221 l 569 1119 q 508 1089 569 1089 q 453 1119 453 1089 l 453 1190 q 514 1221 453 1221 z "},"Ė":{"ha":758,"x_min":135,"x_max":690,"o":"m 135 0 m 661 972 q 683 963 676 972 q 689 931 689 953 l 689 908 q 683 876 689 886 q 661 867 676 867 l 257 867 l 257 550 l 619 550 q 641 540 635 550 q 647 508 647 531 l 647 486 q 641 454 647 464 q 619 444 635 444 l 257 444 l 257 106 l 663 106 q 684 96 678 106 q 690 64 690 86 l 690 42 q 684 10 690 19 q 663 0 678 0 l 176 0 q 144 10 154 0 q 135 42 135 19 l 135 931 q 144 963 135 953 q 176 972 154 972 l 661 972 m 414 1221 q 469 1190 469 1221 l 469 1119 q 408 1089 469 1089 q 353 1119 353 1089 l 353 1190 q 414 1221 353 1221 z "},"Ẹ":{"ha":758,"x_min":135,"x_max":690,"o":"m 135 0 m 661 972 q 683 963 676 972 q 689 931 689 953 l 689 908 q 683 876 689 886 q 661 867 676 867 l 257 867 l 257 550 l 619 550 q 641 540 635 550 q 647 508 647 531 l 647 486 q 641 454 647 464 q 619 444 635 444 l 257 444 l 257 106 l 663 106 q 684 96 678 106 q 690 64 690 86 l 690 42 q 684 10 690 19 q 663 0 678 0 l 176 0 q 144 10 154 0 q 135 42 135 19 l 135 931 q 144 963 135 953 q 176 972 154 972 l 661 972 m 422 -111 q 478 -142 478 -111 l 478 -212 q 417 -243 478 -243 q 361 -212 361 -243 l 361 -142 q 422 -111 361 -111 z "},"È":{"ha":758,"x_min":135,"x_max":690,"o":"m 135 0 m 661 972 q 683 963 676 972 q 689 931 689 953 l 689 908 q 683 876 689 886 q 661 867 676 867 l 257 867 l 257 550 l 619 550 q 641 540 635 550 q 647 508 647 531 l 647 486 q 641 454 647 464 q 619 444 635 444 l 257 444 l 257 106 l 663 106 q 684 96 678 106 q 690 64 690 86 l 690 42 q 684 10 690 19 q 663 0 678 0 l 176 0 q 144 10 154 0 q 135 42 135 19 l 135 931 q 144 963 135 953 q 176 972 154 972 l 661 972 m 314 1263 q 368 1254 347 1263 q 400 1226 389 1246 q 460 1119 440 1157 q 481 1072 481 1082 q 449 1058 481 1058 q 378 1083 401 1058 l 325 1143 q 259 1220 271 1204 q 247 1244 247 1236 q 263 1258 247 1254 q 314 1263 279 1263 z "},"Ẻ":{"ha":758,"x_min":135,"x_max":690,"o":"m 135 0 m 661 972 q 683 963 676 972 q 689 931 689 953 l 689 908 q 683 876 689 886 q 661 867 676 867 l 257 867 l 257 550 l 619 550 q 641 540 635 550 q 647 508 647 531 l 647 486 q 641 454 647 464 q 619 444 635 444 l 257 444 l 257 106 l 663 106 q 684 96 678 106 q 690 64 690 86 l 690 42 q 684 10 690 19 q 663 0 678 0 l 176 0 q 144 10 154 0 q 135 42 135 19 l 135 931 q 144 963 135 953 q 176 972 154 972 l 661 972 m 461 1179 q 447 1207 461 1197 q 410 1217 432 1217 q 365 1208 379 1217 q 346 1199 350 1199 q 325 1216 338 1199 q 313 1244 313 1233 q 349 1273 313 1258 q 421 1288 385 1288 q 507 1264 467 1288 q 547 1189 547 1240 q 522 1111 547 1147 q 464 1051 496 1075 q 421 1028 432 1028 q 392 1035 410 1028 q 375 1051 375 1043 q 383 1072 375 1064 q 410 1097 390 1081 q 447 1135 433 1117 q 461 1179 461 1153 z "},"Ē":{"ha":758,"x_min":135,"x_max":690,"o":"m 135 0 m 661 972 q 683 963 676 972 q 689 931 689 953 l 689 908 q 683 876 689 886 q 661 867 676 867 l 257 867 l 257 550 l 619 550 q 641 540 635 550 q 647 508 647 531 l 647 486 q 641 454 647 464 q 619 444 635 444 l 257 444 l 257 106 l 663 106 q 684 96 678 106 q 690 64 690 86 l 690 42 q 684 10 690 19 q 663 0 678 0 l 176 0 q 144 10 154 0 q 135 42 135 19 l 135 931 q 144 963 135 953 q 176 972 154 972 l 661 972 m 565 1193 q 587 1183 581 1193 q 593 1151 593 1174 l 593 1138 q 587 1106 593 1115 q 565 1096 581 1096 l 256 1096 q 235 1106 242 1096 q 228 1138 228 1115 l 228 1151 q 235 1183 228 1174 q 256 1193 242 1193 l 565 1193 z "},"Ę":{"ha":758,"x_min":135,"x_max":831,"o":"m 804 -143 q 831 -178 831 -143 q 802 -238 831 -222 q 717 -254 774 -254 q 586 -208 619 -254 q 553 -112 553 -162 q 588 0 553 -33 l 176 0 q 144 10 154 0 q 135 42 135 19 l 135 931 q 144 963 135 953 q 176 972 154 972 l 661 972 q 683 963 676 972 q 689 931 689 953 l 689 908 q 683 876 689 886 q 661 867 676 867 l 257 867 l 257 550 l 619 550 q 641 540 635 550 q 647 508 647 531 l 647 486 q 641 454 647 464 q 619 444 635 444 l 257 444 l 257 106 l 663 106 q 684 96 678 106 q 690 64 690 86 l 690 42 q 684 10 690 19 q 663 0 678 0 l 663 -1 q 656 -33 663 -12 q 646 -86 646 -69 q 671 -144 646 -131 q 732 -157 696 -157 q 767 -150 746 -157 q 804 -143 799 -143 z "},"Ẽ":{"ha":758,"x_min":135,"x_max":690,"o":"m 135 0 m 661 972 q 683 963 676 972 q 689 931 689 953 l 689 908 q 683 876 689 886 q 661 867 676 867 l 257 867 l 257 550 l 619 550 q 641 540 635 550 q 647 508 647 531 l 647 486 q 641 454 647 464 q 619 444 635 444 l 257 444 l 257 106 l 663 106 q 684 96 678 106 q 690 64 690 86 l 690 42 q 684 10 690 19 q 663 0 678 0 l 176 0 q 144 10 154 0 q 135 42 135 19 l 135 931 q 144 963 135 953 q 176 972 154 972 l 661 972 m 303 1204 q 361 1197 332 1204 q 438 1172 390 1189 q 501 1151 478 1158 q 544 1144 524 1144 q 578 1153 564 1144 q 606 1185 592 1163 q 633 1204 619 1204 q 647 1201 642 1204 l 658 1197 q 674 1181 674 1192 q 668 1161 674 1172 q 615 1089 646 1111 q 542 1067 585 1067 q 403 1100 492 1067 q 340 1120 364 1114 q 296 1126 317 1126 q 265 1117 278 1126 q 238 1085 253 1108 q 224 1069 229 1074 q 213 1065 219 1065 q 199 1068 204 1065 l 185 1074 q 171 1090 171 1079 q 175 1108 171 1099 q 228 1182 197 1160 q 303 1204 260 1204 z "},"F":{"ha":699,"x_min":135,"x_max":642,"o":"m 614 972 q 635 963 629 972 q 642 931 642 953 l 642 908 q 635 876 642 886 q 614 867 629 867 l 257 867 l 257 550 l 589 550 q 610 540 604 550 q 617 508 617 531 l 617 486 q 610 454 617 464 q 589 444 604 444 l 257 444 l 257 28 q 201 -3 257 -3 l 190 -3 q 135 28 135 -3 l 135 931 q 144 963 135 953 q 176 972 154 972 l 614 972 z "},"G":{"ha":933,"x_min":79,"x_max":818,"o":"m 529 981 q 656 967 594 981 q 756 933 718 954 q 794 894 794 913 q 777 844 794 875 q 747 814 760 814 q 712 831 743 814 q 635 862 681 849 q 532 875 590 875 q 281 778 356 875 q 206 490 206 681 q 275 203 206 310 q 517 97 344 97 q 617 102 568 97 q 696 115 667 107 l 696 396 l 533 396 q 513 406 519 396 q 506 438 506 415 l 506 460 q 513 492 506 482 q 533 501 519 501 l 776 501 q 808 492 799 501 q 818 460 818 482 l 818 92 q 731 15 818 38 q 508 -8 644 -8 q 189 113 299 -8 q 79 478 79 233 q 529 981 79 981 z "},"Ğ":{"ha":933,"x_min":79,"x_max":818,"o":"m 79 0 m 529 981 q 656 967 594 981 q 756 933 718 954 q 794 894 794 913 q 777 844 794 875 q 747 814 760 814 q 712 831 743 814 q 635 862 681 849 q 532 875 590 875 q 281 778 356 875 q 206 490 206 681 q 275 203 206 310 q 517 97 344 97 q 617 102 568 97 q 696 115 667 107 l 696 396 l 533 396 q 513 406 519 396 q 506 438 506 415 l 506 460 q 513 492 506 482 q 533 501 519 501 l 776 501 q 808 492 799 501 q 818 460 818 482 l 818 92 q 731 15 818 38 q 508 -8 644 -8 q 189 113 299 -8 q 79 478 79 233 q 529 981 79 981 m 646 1239 q 667 1218 667 1239 q 607 1101 667 1143 q 467 1058 547 1058 q 325 1101 385 1058 q 265 1218 265 1143 q 286 1239 265 1239 q 303 1235 299 1239 q 310 1222 307 1231 q 317 1204 313 1213 q 372 1163 332 1176 q 467 1150 413 1150 q 560 1163 521 1150 q 615 1204 600 1176 q 623 1222 619 1213 q 631 1235 626 1232 q 646 1239 635 1239 z "},"Ĝ":{"ha":933,"x_min":79,"x_max":818,"o":"m 79 0 m 529 981 q 656 967 594 981 q 756 933 718 954 q 794 894 794 913 q 777 844 794 875 q 747 814 760 814 q 712 831 743 814 q 635 862 681 849 q 532 875 590 875 q 281 778 356 875 q 206 490 206 681 q 275 203 206 310 q 517 97 344 97 q 617 102 568 97 q 696 115 667 107 l 696 396 l 533 396 q 513 406 519 396 q 506 438 506 415 l 506 460 q 513 492 506 482 q 533 501 519 501 l 776 501 q 808 492 799 501 q 818 460 818 482 l 818 92 q 731 15 818 38 q 508 -8 644 -8 q 189 113 299 -8 q 79 478 79 233 q 529 981 79 981 m 483 1243 q 547 1213 526 1243 l 626 1090 q 635 1067 635 1078 q 601 1046 635 1046 l 599 1046 q 553 1064 572 1046 l 465 1167 l 381 1064 q 333 1046 361 1046 l 331 1046 q 299 1065 299 1046 q 307 1090 299 1076 l 385 1213 q 449 1243 406 1243 l 483 1243 z "},"Ģ":{"ha":933,"x_min":79,"x_max":818,"o":"m 79 0 m 529 981 q 656 967 594 981 q 756 933 718 954 q 794 894 794 913 q 777 844 794 875 q 747 814 760 814 q 712 831 743 814 q 635 862 681 849 q 532 875 590 875 q 281 778 356 875 q 206 490 206 681 q 275 203 206 310 q 517 97 344 97 q 617 102 568 97 q 696 115 667 107 l 696 396 l 533 396 q 513 406 519 396 q 506 438 506 415 l 506 460 q 513 492 506 482 q 533 501 519 501 l 776 501 q 808 492 799 501 q 818 460 818 482 l 818 92 q 731 15 818 38 q 508 -8 644 -8 q 189 113 299 -8 q 79 478 79 233 q 529 981 79 981 m 543 -71 q 584 -81 569 -71 q 599 -110 599 -92 q 574 -221 599 -171 q 515 -299 549 -271 q 456 -326 481 -326 q 428 -322 440 -326 q 415 -306 415 -317 q 432 -262 415 -293 q 463 -193 451 -226 q 475 -115 475 -160 q 489 -83 475 -94 q 531 -71 503 -71 l 543 -71 z "},"Ġ":{"ha":933,"x_min":79,"x_max":818,"o":"m 79 0 m 529 981 q 656 967 594 981 q 756 933 718 954 q 794 894 794 913 q 777 844 794 875 q 747 814 760 814 q 712 831 743 814 q 635 862 681 849 q 532 875 590 875 q 281 778 356 875 q 206 490 206 681 q 275 203 206 310 q 517 97 344 97 q 617 102 568 97 q 696 115 667 107 l 696 396 l 533 396 q 513 406 519 396 q 506 438 506 415 l 506 460 q 513 492 506 482 q 533 501 519 501 l 776 501 q 808 492 799 501 q 818 460 818 482 l 818 92 q 731 15 818 38 q 508 -8 644 -8 q 189 113 299 -8 q 79 478 79 233 q 529 981 79 981 m 469 1221 q 525 1190 525 1221 l 525 1119 q 464 1089 525 1089 q 408 1119 408 1089 l 408 1190 q 469 1221 408 1221 z "},"H":{"ha":1018,"x_min":135,"x_max":882,"o":"m 826 975 q 882 944 882 975 l 882 28 q 826 -3 882 -3 l 815 -3 q 760 28 760 -3 l 760 446 l 257 446 l 257 28 q 201 -3 257 -3 l 190 -3 q 135 28 135 -3 l 135 944 q 190 975 135 975 l 201 975 q 257 944 257 975 l 257 551 l 760 551 l 760 944 q 815 975 760 975 l 826 975 z "},"Ħ":{"ha":1018,"x_min":74,"x_max":939,"o":"m 911 779 q 933 769 926 779 q 939 738 939 760 l 939 724 q 933 692 939 701 q 911 682 926 682 l 882 682 l 882 28 q 826 -3 882 -3 l 815 -3 q 760 28 760 -3 l 760 446 l 257 446 l 257 28 q 201 -3 257 -3 l 190 -3 q 135 28 135 -3 l 135 682 l 101 682 q 81 692 88 682 q 74 724 74 701 l 74 738 q 81 769 74 760 q 101 779 88 779 l 135 779 l 135 944 q 190 975 135 975 l 201 975 q 257 944 257 975 l 257 779 l 760 779 l 760 944 q 815 975 760 975 l 826 975 q 882 944 882 975 l 882 779 l 911 779 m 760 551 l 760 682 l 257 682 l 257 551 l 760 551 z "},"Ĥ":{"ha":1018,"x_min":135,"x_max":882,"o":"m 135 0 m 826 975 q 882 944 882 975 l 882 28 q 826 -3 882 -3 l 815 -3 q 760 28 760 -3 l 760 446 l 257 446 l 257 28 q 201 -3 257 -3 l 190 -3 q 135 28 135 -3 l 135 944 q 190 975 135 975 l 201 975 q 257 944 257 975 l 257 551 l 760 551 l 760 944 q 815 975 760 975 l 826 975 m 526 1243 q 590 1213 569 1243 l 669 1090 q 678 1067 678 1078 q 644 1046 678 1046 l 642 1046 q 596 1064 615 1046 l 508 1167 l 424 1064 q 376 1046 404 1046 l 374 1046 q 342 1065 342 1046 q 350 1090 342 1076 l 428 1213 q 492 1243 449 1243 l 526 1243 z "},"Ḥ":{"ha":1018,"x_min":135,"x_max":882,"o":"m 135 0 m 826 975 q 882 944 882 975 l 882 28 q 826 -3 882 -3 l 815 -3 q 760 28 760 -3 l 760 446 l 257 446 l 257 28 q 201 -3 257 -3 l 190 -3 q 135 28 135 -3 l 135 944 q 190 975 135 975 l 201 975 q 257 944 257 975 l 257 551 l 760 551 l 760 944 q 815 975 760 975 l 826 975 m 528 -111 q 583 -142 583 -111 l 583 -212 q 522 -243 583 -243 q 467 -212 467 -243 l 467 -142 q 528 -111 467 -111 z "},"I":{"ha":392,"x_min":135,"x_max":257,"o":"m 201 975 q 257 944 257 975 l 257 28 q 201 -3 257 -3 l 190 -3 q 135 28 135 -3 l 135 944 q 190 975 135 975 l 201 975 z "},"Ĳ":{"ha":950,"x_min":135,"x_max":835,"o":"m 135 0 m 201 975 q 257 944 257 975 l 257 28 q 201 -3 257 -3 l 190 -3 q 135 28 135 -3 l 135 944 q 190 975 135 975 l 201 975 m 779 975 q 835 944 835 975 l 835 285 q 540 -8 835 -8 q 443 1 486 -8 q 400 36 400 11 q 408 81 400 50 q 431 113 417 113 q 463 106 438 113 q 518 100 489 100 q 667 140 621 100 q 713 271 713 181 l 713 944 q 768 975 713 975 l 779 975 z "},"Í":{"ha":392,"x_min":135,"x_max":374,"o":"m 135 0 m 201 975 q 257 944 257 975 l 257 28 q 201 -3 257 -3 l 190 -3 q 135 28 135 -3 l 135 944 q 190 975 135 975 l 201 975 m 307 1263 q 358 1258 342 1263 q 374 1244 374 1254 q 362 1220 374 1236 q 296 1143 350 1204 l 243 1083 q 172 1058 221 1058 q 140 1072 140 1058 q 160 1119 140 1082 q 221 1226 181 1157 q 253 1254 232 1246 q 307 1263 274 1263 z "},"Ĭ":{"ha":392,"x_min":-6,"x_max":396,"o":"m 0 0 m 201 975 q 257 944 257 975 l 257 28 q 201 -3 257 -3 l 190 -3 q 135 28 135 -3 l 135 944 q 190 975 135 975 l 201 975 m 375 1239 q 396 1218 396 1239 q 336 1101 396 1143 q 196 1058 276 1058 q 54 1101 114 1058 q -6 1218 -6 1143 q 15 1239 -6 1239 q 32 1235 28 1239 q 39 1222 36 1231 q 46 1204 42 1213 q 101 1163 61 1176 q 196 1150 142 1150 q 290 1163 250 1150 q 344 1204 329 1176 q 352 1222 349 1213 q 360 1235 356 1232 q 375 1239 364 1239 z "},"Î":{"ha":392,"x_min":28,"x_max":364,"o":"m 28 0 m 201 975 q 257 944 257 975 l 257 28 q 201 -3 257 -3 l 190 -3 q 135 28 135 -3 l 135 944 q 190 975 135 975 l 201 975 m 213 1243 q 276 1213 256 1243 l 356 1090 q 364 1067 364 1078 q 331 1046 364 1046 l 328 1046 q 282 1064 301 1046 l 194 1167 l 110 1064 q 63 1046 90 1046 l 60 1046 q 28 1065 28 1046 q 36 1090 28 1076 l 114 1213 q 178 1243 135 1243 l 213 1243 z "},"Ï":{"ha":392,"x_min":38,"x_max":354,"o":"m 38 0 m 201 975 q 257 944 257 975 l 257 28 q 201 -3 257 -3 l 190 -3 q 135 28 135 -3 l 135 944 q 190 975 135 975 l 201 975 m 99 1221 q 154 1190 154 1221 l 154 1119 q 93 1089 154 1089 q 38 1119 38 1089 l 38 1190 q 99 1221 38 1221 m 299 1221 q 354 1190 354 1221 l 354 1119 q 293 1089 354 1089 q 238 1119 238 1089 l 238 1190 q 299 1221 238 1221 z "},"İ":{"ha":392,"x_min":135,"x_max":257,"o":"m 135 0 m 201 975 q 257 944 257 975 l 257 28 q 201 -3 257 -3 l 190 -3 q 135 28 135 -3 l 135 944 q 190 975 135 975 l 201 975 m 199 1221 q 254 1190 254 1221 l 254 1119 q 193 1089 254 1089 q 138 1119 138 1089 l 138 1190 q 199 1221 138 1221 z "},"Ị":{"ha":392,"x_min":135,"x_max":257,"o":"m 135 0 m 201 975 q 257 944 257 975 l 257 28 q 201 -3 257 -3 l 190 -3 q 135 28 135 -3 l 135 944 q 190 975 135 975 l 201 975 m 200 -111 q 256 -142 256 -111 l 256 -212 q 194 -243 256 -243 q 139 -212 139 -243 l 139 -142 q 200 -111 139 -111 z "},"Ì":{"ha":392,"x_min":32,"x_max":265,"o":"m 32 0 m 201 975 q 257 944 257 975 l 257 28 q 201 -3 257 -3 l 190 -3 q 135 28 135 -3 l 135 944 q 190 975 135 975 l 201 975 m 99 1263 q 153 1254 132 1263 q 185 1226 174 1246 q 245 1119 225 1157 q 265 1072 265 1082 q 233 1058 265 1058 q 163 1083 186 1058 l 110 1143 q 44 1220 56 1204 q 32 1244 32 1236 q 48 1258 32 1254 q 99 1263 64 1263 z "},"Ỉ":{"ha":392,"x_min":97,"x_max":332,"o":"m 97 0 m 201 975 q 257 944 257 975 l 257 28 q 201 -3 257 -3 l 190 -3 q 135 28 135 -3 l 135 944 q 190 975 135 975 l 201 975 m 246 1179 q 231 1207 246 1197 q 194 1217 217 1217 q 149 1208 164 1217 q 131 1199 135 1199 q 110 1216 122 1199 q 97 1244 97 1233 q 133 1273 97 1258 q 206 1288 169 1288 q 292 1264 251 1288 q 332 1189 332 1240 q 306 1111 332 1147 q 249 1051 281 1075 q 206 1028 217 1028 q 177 1035 194 1028 q 160 1051 160 1043 q 167 1072 160 1064 q 194 1097 175 1081 q 232 1135 218 1117 q 246 1179 246 1153 z "},"Ī":{"ha":392,"x_min":13,"x_max":378,"o":"m 13 0 m 201 975 q 257 944 257 975 l 257 28 q 201 -3 257 -3 l 190 -3 q 135 28 135 -3 l 135 944 q 190 975 135 975 l 201 975 m 350 1193 q 372 1183 365 1193 q 378 1151 378 1174 l 378 1138 q 372 1106 378 1115 q 350 1096 365 1096 l 40 1096 q 19 1106 26 1096 q 13 1138 13 1115 l 13 1151 q 19 1183 13 1174 q 40 1193 26 1193 l 350 1193 z "},"Į":{"ha":392,"x_min":121,"x_max":399,"o":"m 372 -143 q 399 -178 399 -143 q 370 -238 399 -222 q 285 -254 342 -254 q 154 -208 188 -254 q 121 -112 121 -162 q 157 1 121 -32 q 135 28 135 10 l 135 944 q 190 975 135 975 l 201 975 q 257 944 257 975 l 257 28 q 231 0 257 6 l 231 -1 q 224 -33 231 -12 q 214 -86 214 -69 q 239 -144 214 -131 q 300 -157 264 -157 q 335 -150 314 -157 q 372 -143 365 -143 z "},"Ĩ":{"ha":392,"x_min":-21,"x_max":432,"o":"m 97 1204 q 152 1196 124 1204 q 219 1171 181 1188 q 315 1144 286 1144 q 344 1153 332 1144 q 371 1185 357 1163 q 396 1204 382 1204 q 408 1201 404 1204 l 418 1197 q 432 1182 432 1192 q 426 1161 432 1178 q 378 1088 406 1110 q 313 1067 351 1067 q 256 1075 285 1067 q 186 1100 226 1083 q 92 1126 121 1126 q 65 1117 76 1126 q 39 1085 53 1108 q 17 1065 28 1065 q 4 1068 10 1065 l -8 1074 q -21 1090 -21 1079 q -17 1108 -21 1099 q 31 1182 3 1160 q 97 1204 58 1204 m 201 975 q 257 944 257 975 l 257 28 q 201 -3 257 -3 l 190 -3 q 135 28 135 -3 l 135 944 q 190 975 135 975 l 201 975 z "},"J":{"ha":558,"x_min":8,"x_max":443,"o":"m 388 975 q 443 944 443 975 l 443 285 q 149 -8 443 -8 q 51 1 94 -8 q 8 36 8 11 q 17 81 8 50 q 39 113 25 113 q 72 106 46 113 q 126 100 97 100 q 275 140 229 100 q 321 271 321 181 l 321 944 q 376 975 321 975 l 388 975 z "},"Ĵ":{"ha":558,"x_min":8,"x_max":544,"o":"m 8 0 m 388 975 q 443 944 443 975 l 443 285 q 149 -8 443 -8 q 51 1 94 -8 q 8 36 8 11 q 17 81 8 50 q 39 113 25 113 q 72 106 46 113 q 126 100 97 100 q 275 140 229 100 q 321 271 321 181 l 321 944 q 376 975 321 975 l 388 975 m 393 1243 q 457 1213 436 1243 l 536 1090 q 544 1067 544 1078 q 511 1046 544 1046 l 508 1046 q 463 1064 482 1046 l 375 1167 l 290 1064 q 243 1046 271 1046 l 240 1046 q 208 1065 208 1046 q 217 1090 208 1076 l 294 1213 q 358 1243 315 1243 l 393 1243 z "},"K":{"ha":800,"x_min":135,"x_max":814,"o":"m 693 975 q 729 970 717 975 q 742 957 742 965 q 728 929 742 944 l 381 496 l 801 39 q 814 17 814 25 q 800 1 814 6 q 753 -3 786 -3 l 736 -3 q 688 0 706 -3 q 660 15 671 3 l 263 463 l 257 463 l 257 28 q 201 -3 257 -3 l 190 -3 q 135 28 135 -3 l 135 944 q 190 975 135 975 l 201 975 q 257 944 257 975 l 257 519 l 263 519 l 604 956 q 679 975 619 975 l 693 975 z "},"Ķ":{"ha":800,"x_min":135,"x_max":814,"o":"m 135 0 m 693 975 q 729 970 717 975 q 742 957 742 965 q 728 929 742 944 l 381 496 l 801 39 q 814 17 814 25 q 800 1 814 6 q 753 -3 786 -3 l 736 -3 q 688 0 706 -3 q 660 15 671 3 l 263 463 l 257 463 l 257 28 q 201 -3 257 -3 l 190 -3 q 135 28 135 -3 l 135 944 q 190 975 135 975 l 201 975 q 257 944 257 975 l 257 519 l 263 519 l 604 956 q 679 975 619 975 l 693 975 m 406 -71 q 447 -81 432 -71 q 461 -110 461 -92 q 436 -221 461 -171 q 377 -299 411 -271 q 318 -326 343 -326 q 290 -322 303 -326 q 278 -306 278 -317 q 294 -262 278 -293 q 326 -193 314 -226 q 338 -115 338 -160 q 351 -83 338 -94 q 393 -71 365 -71 l 406 -71 z "},"L":{"ha":672,"x_min":135,"x_max":667,"o":"m 201 975 q 257 944 257 975 l 257 106 l 639 106 q 660 96 654 106 q 667 64 667 86 l 667 42 q 660 10 667 19 q 639 0 654 0 l 176 0 q 144 10 154 0 q 135 42 135 19 l 135 944 q 190 975 135 975 l 201 975 z "},"Ǉ":{"ha":997,"x_min":135,"x_max":879,"o":"m 201 975 q 257 944 257 975 l 257 106 l 542 106 q 563 96 557 106 q 569 64 569 86 l 569 42 q 563 10 569 19 q 542 0 557 0 l 176 0 q 144 10 154 0 q 135 42 135 19 l 135 944 q 190 975 135 975 l 201 975 m 824 975 q 879 944 879 975 l 879 76 q 585 -217 879 -217 q 488 -207 531 -217 q 444 -172 444 -197 q 453 -127 444 -158 q 475 -96 461 -96 q 508 -102 482 -96 q 563 -108 533 -108 q 711 -68 665 -108 q 757 63 757 -28 l 757 944 q 813 975 757 975 l 824 975 z "},"Ĺ":{"ha":672,"x_min":135,"x_max":667,"o":"m 135 0 m 201 975 q 257 944 257 975 l 257 106 l 639 106 q 660 96 654 106 q 667 64 667 86 l 667 42 q 660 10 667 19 q 639 0 654 0 l 176 0 q 144 10 154 0 q 135 42 135 19 l 135 944 q 190 975 135 975 l 201 975 m 313 1265 q 363 1261 347 1265 q 379 1247 379 1257 q 367 1223 379 1239 q 301 1146 356 1207 l 249 1086 q 178 1061 226 1061 q 146 1075 146 1061 q 166 1122 146 1085 q 226 1229 186 1160 q 258 1257 238 1249 q 313 1265 279 1265 z "},"Ľ":{"ha":672,"x_min":135,"x_max":667,"o":"m 135 0 m 201 975 q 257 944 257 975 l 257 106 l 639 106 q 660 96 654 106 q 667 64 667 86 l 667 42 q 660 10 667 19 q 639 0 654 0 l 176 0 q 144 10 154 0 q 135 42 135 19 l 135 944 q 190 975 135 975 l 201 975 m 494 972 q 535 962 521 972 q 550 933 550 951 q 533 828 550 875 q 491 756 515 782 q 449 731 467 731 q 421 735 433 731 q 408 751 408 740 q 414 790 408 760 q 426 928 426 860 q 440 960 426 949 q 482 972 454 972 l 494 972 z "},"Ļ":{"ha":672,"x_min":135,"x_max":667,"o":"m 135 0 m 201 975 q 257 944 257 975 l 257 106 l 639 106 q 660 96 654 106 q 667 64 667 86 l 667 42 q 660 10 667 19 q 639 0 654 0 l 176 0 q 144 10 154 0 q 135 42 135 19 l 135 944 q 190 975 135 975 l 201 975 m 397 -71 q 438 -81 424 -71 q 453 -110 453 -92 q 428 -221 453 -171 q 369 -299 403 -271 q 310 -326 335 -326 q 282 -322 294 -326 q 269 -306 269 -317 q 286 -262 269 -293 q 317 -193 306 -226 q 329 -115 329 -160 q 343 -83 329 -94 q 385 -71 357 -71 l 397 -71 z "},"Ŀ":{"ha":672,"x_min":135,"x_max":667,"o":"m 135 0 m 201 975 q 257 944 257 975 l 257 106 l 639 106 q 660 96 654 106 q 667 64 667 86 l 667 42 q 660 10 667 19 q 639 0 654 0 l 176 0 q 144 10 154 0 q 135 42 135 19 l 135 944 q 190 975 135 975 l 201 975 m 418 572 q 469 551 449 572 q 490 500 490 531 q 469 449 490 469 q 418 429 449 429 q 367 449 388 429 q 347 500 347 469 q 367 551 347 531 q 418 572 388 572 z "},"ǈ":{"ha":1056,"x_min":135,"x_max":935,"o":"m 135 0 m 201 975 q 257 944 257 975 l 257 106 l 639 106 q 660 96 654 106 q 667 64 667 86 l 667 42 q 660 10 667 19 q 639 0 654 0 l 176 0 q 144 10 154 0 q 135 42 135 19 l 135 944 q 190 975 135 975 l 201 975 m 879 1044 q 935 1014 935 1044 l 935 932 q 879 901 935 901 l 863 901 q 807 932 807 901 l 807 1014 q 863 1044 807 1044 l 879 1044 m 874 729 q 929 699 929 729 l 929 -103 q 874 -252 929 -210 q 750 -294 819 -294 q 649 -253 649 -294 q 657 -213 649 -239 q 678 -187 665 -187 q 698 -191 685 -187 q 738 -194 711 -194 q 792 -172 772 -194 q 813 -92 813 -150 l 813 699 q 868 729 813 729 l 874 729 z "},"Ł":{"ha":675,"x_min":-3,"x_max":672,"o":"m 185 975 q 240 944 240 975 l 240 621 l 390 710 q 404 715 401 715 q 413 710 410 715 q 417 696 417 706 l 417 688 q 390 646 417 661 l 240 557 l 240 106 l 644 106 q 666 96 660 106 q 672 64 672 86 l 672 42 q 666 10 672 19 q 644 0 660 0 l 160 0 q 128 10 138 0 q 118 42 118 19 l 118 483 l 24 428 q 10 422 17 422 q 1 427 4 422 q -3 442 -3 432 l -3 450 q 24 492 -3 476 l 118 547 l 118 944 q 174 975 118 975 l 185 975 z "},"M":{"ha":1171,"x_min":125,"x_max":1046,"o":"m 990 975 q 1046 944 1046 975 l 1046 28 q 990 -3 1046 -3 l 981 -3 q 925 28 925 -3 l 925 775 l 922 769 l 646 289 q 615 271 636 271 l 560 271 q 529 289 539 271 l 249 778 l 246 783 l 246 28 q 190 -3 246 -3 l 181 -3 q 125 28 125 -3 l 125 944 q 181 975 125 975 l 231 975 q 289 950 275 975 l 551 494 l 588 407 l 624 486 l 886 950 q 944 975 900 975 l 990 975 z "},"N":{"ha":999,"x_min":125,"x_max":874,"o":"m 818 975 q 874 944 874 975 l 874 28 q 818 -3 874 -3 l 790 -3 q 742 17 754 -3 l 283 708 l 246 779 l 246 28 q 190 -3 246 -3 l 181 -3 q 125 28 125 -3 l 125 944 q 181 975 125 975 l 210 975 q 244 969 232 975 q 268 949 257 964 l 711 279 l 753 201 l 753 944 q 808 975 753 975 l 818 975 z "},"Ǌ":{"ha":1557,"x_min":125,"x_max":1442,"o":"m 125 0 m 818 975 q 874 944 874 975 l 874 28 q 818 -3 874 -3 l 790 -3 q 742 17 754 -3 l 283 708 l 246 779 l 246 28 q 190 -3 246 -3 l 181 -3 q 125 28 125 -3 l 125 944 q 181 975 125 975 l 210 975 q 244 969 232 975 q 268 949 257 964 l 711 279 l 753 201 l 753 944 q 808 975 753 975 l 818 975 m 1386 975 q 1442 944 1442 975 l 1442 285 q 1147 -8 1442 -8 q 1050 1 1093 -8 q 1007 36 1007 11 q 1015 81 1007 50 q 1038 113 1024 113 q 1070 106 1044 113 q 1125 100 1096 100 q 1274 140 1228 100 q 1319 271 1319 181 l 1319 944 q 1375 975 1319 975 l 1386 975 z "},"Ń":{"ha":999,"x_min":125,"x_max":874,"o":"m 125 0 m 818 975 q 874 944 874 975 l 874 28 q 818 -3 874 -3 l 790 -3 q 742 17 754 -3 l 283 708 l 246 779 l 246 28 q 190 -3 246 -3 l 181 -3 q 125 28 125 -3 l 125 944 q 181 975 125 975 l 210 975 q 244 969 232 975 q 268 949 257 964 l 711 279 l 753 201 l 753 944 q 808 975 753 975 l 818 975 m 611 1263 q 662 1258 646 1263 q 678 1244 678 1254 q 666 1220 678 1236 q 600 1143 654 1204 l 547 1083 q 476 1058 525 1058 q 444 1072 444 1058 q 465 1119 444 1082 q 525 1226 485 1157 q 557 1254 536 1246 q 611 1263 578 1263 z "},"Ň":{"ha":999,"x_min":125,"x_max":874,"o":"m 125 0 m 818 975 q 874 944 874 975 l 874 28 q 818 -3 874 -3 l 790 -3 q 742 17 754 -3 l 283 708 l 246 779 l 246 28 q 190 -3 246 -3 l 181 -3 q 125 28 125 -3 l 125 944 q 181 975 125 975 l 210 975 q 244 969 232 975 q 268 949 257 964 l 711 279 l 753 201 l 753 944 q 808 975 753 975 l 818 975 m 635 1251 q 668 1231 668 1251 q 660 1207 668 1219 l 581 1085 q 517 1054 560 1054 l 482 1054 q 418 1085 439 1054 l 340 1207 q 332 1232 332 1222 q 364 1251 332 1251 l 367 1251 q 414 1233 394 1251 l 499 1131 l 586 1233 q 632 1251 606 1251 l 635 1251 z "},"Ņ":{"ha":999,"x_min":125,"x_max":874,"o":"m 125 0 m 818 975 q 874 944 874 975 l 874 28 q 818 -3 874 -3 l 790 -3 q 742 17 754 -3 l 283 708 l 246 779 l 246 28 q 190 -3 246 -3 l 181 -3 q 125 28 125 -3 l 125 944 q 181 975 125 975 l 210 975 q 244 969 232 975 q 268 949 257 964 l 711 279 l 753 201 l 753 944 q 808 975 753 975 l 818 975 m 506 -71 q 547 -81 532 -71 q 561 -110 561 -92 q 536 -221 561 -171 q 477 -299 511 -271 q 418 -326 443 -326 q 390 -322 403 -326 q 378 -306 378 -317 q 394 -262 378 -293 q 426 -193 414 -226 q 438 -115 438 -160 q 451 -83 438 -94 q 493 -71 465 -71 l 506 -71 z "},"Ṅ":{"ha":999,"x_min":125,"x_max":874,"o":"m 125 0 m 818 975 q 874 944 874 975 l 874 28 q 818 -3 874 -3 l 790 -3 q 742 17 754 -3 l 283 708 l 246 779 l 246 28 q 190 -3 246 -3 l 181 -3 q 125 28 125 -3 l 125 944 q 181 975 125 975 l 210 975 q 244 969 232 975 q 268 949 257 964 l 711 279 l 753 201 l 753 944 q 808 975 753 975 l 818 975 m 503 1221 q 558 1190 558 1221 l 558 1119 q 497 1089 558 1089 q 442 1119 442 1089 l 442 1190 q 503 1221 442 1221 z "},"Ŋ":{"ha":999,"x_min":125,"x_max":874,"o":"m 818 975 q 874 944 874 975 l 874 -103 q 819 -252 874 -210 q 694 -294 764 -294 q 593 -253 593 -294 q 601 -213 593 -239 q 622 -187 610 -187 q 642 -191 629 -187 q 682 -194 656 -194 q 737 -172 717 -194 q 757 -92 757 -150 l 757 -6 l 283 708 l 246 779 l 246 28 q 190 -3 246 -3 l 181 -3 q 125 28 125 -3 l 125 944 q 181 975 125 975 l 210 975 q 244 969 232 975 q 268 949 257 964 l 711 279 l 753 201 l 753 944 q 808 975 753 975 l 818 975 z "},"ǋ":{"ha":1382,"x_min":125,"x_max":1261,"o":"m 125 0 m 818 975 q 874 944 874 975 l 874 28 q 818 -3 874 -3 l 790 -3 q 742 17 754 -3 l 283 708 l 246 779 l 246 28 q 190 -3 246 -3 l 181 -3 q 125 28 125 -3 l 125 944 q 181 975 125 975 l 210 975 q 244 969 232 975 q 268 949 257 964 l 711 279 l 753 201 l 753 944 q 808 975 753 975 l 818 975 m 1206 1044 q 1261 1014 1261 1044 l 1261 932 q 1206 901 1261 901 l 1189 901 q 1133 932 1133 901 l 1133 1014 q 1189 1044 1133 1044 l 1206 1044 m 1200 729 q 1256 699 1256 729 l 1256 -103 q 1201 -252 1256 -210 q 1076 -294 1146 -294 q 975 -253 975 -294 q 983 -213 975 -239 q 1004 -187 992 -187 q 1024 -191 1011 -187 q 1064 -194 1038 -194 q 1119 -172 1099 -194 q 1139 -92 1139 -150 l 1139 699 q 1194 729 1139 729 l 1200 729 z "},"Ñ":{"ha":999,"x_min":125,"x_max":874,"o":"m 125 0 m 818 975 q 874 944 874 975 l 874 28 q 818 -3 874 -3 l 790 -3 q 742 17 754 -3 l 283 708 l 246 779 l 246 28 q 190 -3 246 -3 l 181 -3 q 125 28 125 -3 l 125 944 q 181 975 125 975 l 210 975 q 244 969 232 975 q 268 949 257 964 l 711 279 l 753 201 l 753 944 q 808 975 753 975 l 818 975 m 392 1204 q 450 1197 421 1204 q 526 1172 479 1189 q 590 1151 567 1158 q 633 1144 613 1144 q 667 1153 653 1144 q 694 1185 681 1163 q 722 1204 708 1204 q 736 1201 731 1204 l 747 1197 q 763 1181 763 1192 q 757 1161 763 1172 q 704 1089 735 1111 q 631 1067 674 1067 q 492 1100 581 1067 q 429 1120 453 1114 q 385 1126 406 1126 q 354 1117 367 1126 q 326 1085 342 1108 q 313 1069 318 1074 q 301 1065 308 1065 q 288 1068 293 1065 l 274 1074 q 260 1090 260 1079 q 264 1108 260 1099 q 317 1182 286 1160 q 392 1204 349 1204 z "},"O":{"ha":1015,"x_min":79,"x_max":936,"o":"m 507 981 q 826 856 717 981 q 936 489 936 732 q 826 119 936 246 q 507 -8 717 -8 q 189 119 299 -8 q 79 489 79 246 q 188 856 79 732 q 507 981 297 981 m 507 875 q 283 777 360 875 q 206 489 206 679 q 283 197 206 297 q 507 97 360 97 q 732 197 654 97 q 810 489 810 297 q 732 777 810 679 q 507 875 654 875 z "},"Ó":{"ha":1015,"x_min":79,"x_max":936,"o":"m 79 0 m 507 981 q 826 856 717 981 q 936 489 936 732 q 826 119 936 246 q 507 -8 717 -8 q 189 119 299 -8 q 79 489 79 246 q 188 856 79 732 q 507 981 297 981 m 507 875 q 283 777 360 875 q 206 489 206 679 q 283 197 206 297 q 507 97 360 97 q 732 197 654 97 q 810 489 810 297 q 732 777 810 679 q 507 875 654 875 m 619 1263 q 670 1258 654 1263 q 686 1244 686 1254 q 674 1220 686 1236 q 608 1143 663 1204 l 556 1083 q 485 1058 533 1058 q 453 1072 453 1058 q 473 1119 453 1082 q 533 1226 493 1157 q 565 1254 544 1246 q 619 1263 586 1263 z "},"Ŏ":{"ha":1015,"x_min":79,"x_max":936,"o":"m 79 0 m 507 981 q 826 856 717 981 q 936 489 936 732 q 826 119 936 246 q 507 -8 717 -8 q 189 119 299 -8 q 79 489 79 246 q 188 856 79 732 q 507 981 297 981 m 507 875 q 283 777 360 875 q 206 489 206 679 q 283 197 206 297 q 507 97 360 97 q 732 197 654 97 q 810 489 810 297 q 732 777 810 679 q 507 875 654 875 m 688 1239 q 708 1218 708 1239 q 649 1101 708 1143 q 508 1058 589 1058 q 367 1101 426 1058 q 307 1218 307 1143 q 328 1239 307 1239 q 344 1235 340 1239 q 351 1222 349 1231 q 358 1204 354 1213 q 414 1163 374 1176 q 508 1150 454 1150 q 602 1163 563 1150 q 657 1204 642 1176 q 665 1222 661 1213 q 672 1235 668 1232 q 688 1239 676 1239 z "},"Ô":{"ha":1015,"x_min":79,"x_max":936,"o":"m 79 0 m 507 981 q 826 856 717 981 q 936 489 936 732 q 826 119 936 246 q 507 -8 717 -8 q 189 119 299 -8 q 79 489 79 246 q 188 856 79 732 q 507 981 297 981 m 507 875 q 283 777 360 875 q 206 489 206 679 q 283 197 206 297 q 507 97 360 97 q 732 197 654 97 q 810 489 810 297 q 732 777 810 679 q 507 875 654 875 m 525 1243 q 589 1213 568 1243 l 668 1090 q 676 1067 676 1078 q 643 1046 676 1046 l 640 1046 q 594 1064 614 1046 l 507 1167 l 422 1064 q 375 1046 403 1046 l 372 1046 q 340 1065 340 1046 q 349 1090 340 1076 l 426 1213 q 490 1243 447 1243 l 525 1243 z "},"Ố":{"ha":1015,"x_min":79,"x_max":936,"o":"m 800 1335 q 833 1331 824 1335 q 843 1317 843 1326 q 830 1290 843 1308 q 788 1232 817 1271 l 740 1169 q 690 1144 722 1144 q 658 1158 658 1144 q 675 1201 658 1167 q 725 1299 692 1236 q 800 1335 746 1335 m 531 1243 q 581 1213 561 1243 l 653 1090 q 661 1067 661 1078 q 628 1046 661 1046 l 625 1046 q 579 1064 592 1046 l 513 1167 l 428 1064 q 381 1046 408 1046 l 378 1046 q 346 1065 346 1046 q 354 1090 346 1076 l 432 1213 q 496 1243 453 1243 l 531 1243 m 507 981 q 826 856 717 981 q 936 489 936 732 q 826 119 936 246 q 507 -8 717 -8 q 189 119 299 -8 q 79 489 79 246 q 188 856 79 732 q 507 981 297 981 m 507 875 q 283 777 360 875 q 206 489 206 679 q 283 197 206 297 q 507 97 360 97 q 732 197 654 97 q 810 489 810 297 q 732 777 810 679 q 507 875 654 875 z "},"Ộ":{"ha":1015,"x_min":79,"x_max":936,"o":"m 79 0 m 507 981 q 826 856 717 981 q 936 489 936 732 q 826 119 936 246 q 507 -8 717 -8 q 189 119 299 -8 q 79 489 79 246 q 188 856 79 732 q 507 981 297 981 m 507 875 q 283 777 360 875 q 206 489 206 679 q 283 197 206 297 q 507 97 360 97 q 732 197 654 97 q 810 489 810 297 q 732 777 810 679 q 507 875 654 875 m 525 1243 q 589 1213 568 1243 l 668 1090 q 676 1067 676 1078 q 643 1046 676 1046 l 640 1046 q 594 1064 614 1046 l 507 1167 l 422 1064 q 375 1046 403 1046 l 372 1046 q 340 1065 340 1046 q 349 1090 340 1076 l 426 1213 q 490 1243 447 1243 l 525 1243 m 515 -111 q 571 -142 571 -111 l 571 -212 q 510 -243 571 -243 q 454 -212 454 -243 l 454 -142 q 515 -111 454 -111 z "},"Ồ":{"ha":1015,"x_min":79,"x_max":936,"o":"m 642 1335 q 684 1326 665 1335 q 711 1299 703 1317 q 751 1202 738 1236 q 764 1158 764 1168 q 732 1144 764 1144 q 704 1151 718 1144 q 682 1169 690 1157 q 655 1212 668 1190 q 628 1253 642 1233 q 601 1295 610 1281 q 593 1317 593 1310 q 603 1331 593 1328 q 642 1335 613 1335 m 531 1243 q 581 1213 561 1243 l 653 1090 q 661 1067 661 1078 q 628 1046 661 1046 l 625 1046 q 579 1064 592 1046 l 513 1167 l 428 1064 q 381 1046 408 1046 l 378 1046 q 346 1065 346 1046 q 354 1090 346 1076 l 432 1213 q 496 1243 453 1243 l 531 1243 m 507 981 q 826 856 717 981 q 936 489 936 732 q 826 119 936 246 q 507 -8 717 -8 q 189 119 299 -8 q 79 489 79 246 q 188 856 79 732 q 507 981 297 981 m 507 875 q 283 777 360 875 q 206 489 206 679 q 283 197 206 297 q 507 97 360 97 q 732 197 654 97 q 810 489 810 297 q 732 777 810 679 q 507 875 654 875 z "},"Ổ":{"ha":1015,"x_min":79,"x_max":936,"o":"m 736 1256 q 722 1283 736 1274 q 685 1293 707 1293 q 640 1284 654 1293 q 621 1275 625 1275 q 600 1292 613 1275 q 588 1321 588 1310 q 624 1347 588 1335 q 696 1360 660 1360 q 778 1337 740 1360 q 815 1265 815 1314 q 802 1215 815 1236 q 767 1176 789 1194 q 735 1156 753 1165 q 710 1146 717 1146 q 674 1155 689 1146 q 658 1174 658 1164 q 666 1187 658 1181 q 693 1204 674 1193 q 736 1256 736 1228 m 531 1243 q 581 1213 561 1243 l 653 1090 q 661 1067 661 1078 q 628 1046 661 1046 l 625 1046 q 579 1064 592 1046 l 513 1167 l 428 1064 q 381 1046 408 1046 l 378 1046 q 346 1065 346 1046 q 354 1090 346 1076 l 432 1213 q 496 1243 453 1243 l 531 1243 m 507 981 q 826 856 717 981 q 936 489 936 732 q 826 119 936 246 q 507 -8 717 -8 q 189 119 299 -8 q 79 489 79 246 q 188 856 79 732 q 507 981 297 981 m 507 875 q 283 777 360 875 q 206 489 206 679 q 283 197 206 297 q 507 97 360 97 q 732 197 654 97 q 810 489 810 297 q 732 777 810 679 q 507 875 654 875 z "},"Ỗ":{"ha":1015,"x_min":79,"x_max":936,"o":"m 406 1400 q 457 1392 431 1400 q 526 1368 483 1385 q 580 1349 553 1357 q 625 1340 607 1340 q 654 1349 642 1340 q 681 1381 667 1358 q 706 1400 692 1400 q 718 1397 714 1400 l 728 1393 q 743 1376 743 1386 q 738 1357 743 1374 q 689 1285 717 1307 q 622 1263 661 1263 q 565 1271 594 1263 q 496 1296 536 1279 q 439 1316 461 1310 q 399 1322 417 1322 q 372 1313 383 1322 q 346 1281 360 1304 q 324 1261 335 1261 q 310 1264 315 1261 l 297 1269 q 285 1286 285 1275 q 289 1304 285 1294 q 338 1378 310 1356 q 406 1400 365 1400 m 525 1210 q 559 1202 544 1210 q 589 1179 574 1194 l 668 1090 q 676 1067 676 1078 q 643 1046 676 1046 l 640 1046 q 617 1051 628 1046 q 594 1064 606 1057 l 507 1133 l 422 1064 q 375 1046 396 1046 l 372 1046 q 340 1065 340 1046 q 349 1090 340 1076 l 426 1179 q 457 1202 443 1194 q 490 1210 471 1210 l 525 1210 m 507 981 q 826 856 717 981 q 936 489 936 732 q 826 119 936 246 q 507 -8 717 -8 q 189 119 299 -8 q 79 489 79 246 q 188 856 79 732 q 507 981 297 981 m 507 875 q 283 777 360 875 q 206 489 206 679 q 283 197 206 297 q 507 97 360 97 q 732 197 654 97 q 810 489 810 297 q 732 777 810 679 q 507 875 654 875 z "},"Ö":{"ha":1015,"x_min":79,"x_max":936,"o":"m 79 0 m 507 981 q 826 856 717 981 q 936 489 936 732 q 826 119 936 246 q 507 -8 717 -8 q 189 119 299 -8 q 79 489 79 246 q 188 856 79 732 q 507 981 297 981 m 507 875 q 283 777 360 875 q 206 489 206 679 q 283 197 206 297 q 507 97 360 97 q 732 197 654 97 q 810 489 810 297 q 732 777 810 679 q 507 875 654 875 m 411 1221 q 467 1190 467 1221 l 467 1119 q 406 1089 467 1089 q 350 1119 350 1089 l 350 1190 q 411 1221 350 1221 m 611 1221 q 667 1190 667 1221 l 667 1119 q 606 1089 667 1089 q 550 1119 550 1089 l 550 1190 q 611 1221 550 1221 z "},"Ọ":{"ha":1015,"x_min":79,"x_max":936,"o":"m 79 0 m 507 981 q 826 856 717 981 q 936 489 936 732 q 826 119 936 246 q 507 -8 717 -8 q 189 119 299 -8 q 79 489 79 246 q 188 856 79 732 q 507 981 297 981 m 507 875 q 283 777 360 875 q 206 489 206 679 q 283 197 206 297 q 507 97 360 97 q 732 197 654 97 q 810 489 810 297 q 732 777 810 679 q 507 875 654 875 m 515 -111 q 571 -142 571 -111 l 571 -212 q 510 -243 571 -243 q 454 -212 454 -243 l 454 -142 q 515 -111 454 -111 z "},"Ò":{"ha":1015,"x_min":79,"x_max":936,"o":"m 79 0 m 507 981 q 826 856 717 981 q 936 489 936 732 q 826 119 936 246 q 507 -8 717 -8 q 189 119 299 -8 q 79 489 79 246 q 188 856 79 732 q 507 981 297 981 m 507 875 q 283 777 360 875 q 206 489 206 679 q 283 197 206 297 q 507 97 360 97 q 732 197 654 97 q 810 489 810 297 q 732 777 810 679 q 507 875 654 875 m 411 1263 q 465 1254 444 1263 q 497 1226 486 1246 q 558 1119 538 1157 q 578 1072 578 1082 q 546 1058 578 1058 q 475 1083 499 1058 l 422 1143 q 356 1220 368 1204 q 344 1244 344 1236 q 360 1258 344 1254 q 411 1263 376 1263 z "},"Ỏ":{"ha":1015,"x_min":79,"x_max":936,"o":"m 79 0 m 507 981 q 826 856 717 981 q 936 489 936 732 q 826 119 936 246 q 507 -8 717 -8 q 189 119 299 -8 q 79 489 79 246 q 188 856 79 732 q 507 981 297 981 m 507 875 q 283 777 360 875 q 206 489 206 679 q 283 197 206 297 q 507 97 360 97 q 732 197 654 97 q 810 489 810 297 q 732 777 810 679 q 507 875 654 875 m 558 1179 q 544 1207 558 1197 q 507 1217 529 1217 q 462 1208 476 1217 q 443 1199 447 1199 q 422 1216 435 1199 q 410 1244 410 1233 q 446 1273 410 1258 q 518 1288 482 1288 q 604 1264 564 1288 q 644 1189 644 1240 q 619 1111 644 1147 q 561 1051 593 1075 q 518 1028 529 1028 q 490 1035 507 1028 q 472 1051 472 1043 q 480 1072 472 1064 q 507 1097 488 1081 q 544 1135 531 1117 q 558 1179 558 1153 z "},"Ơ":{"ha":1015,"x_min":79,"x_max":936,"o":"m 772 906 q 936 489 936 788 q 826 119 936 246 q 507 -8 717 -8 q 189 119 299 -8 q 79 489 79 246 q 188 856 79 732 q 507 981 297 981 q 697 947 615 981 l 718 947 q 777 960 760 947 q 794 993 794 974 q 789 1026 796 1011 q 770 1058 782 1042 q 757 1079 758 1074 q 769 1101 757 1093 l 803 1124 q 819 1129 810 1129 q 860 1094 842 1129 q 879 1026 879 1060 q 853 947 879 979 q 772 906 826 915 m 507 97 q 732 197 654 97 q 810 489 810 297 q 732 777 810 679 q 507 875 654 875 q 283 777 360 875 q 206 489 206 679 q 283 197 206 297 q 507 97 360 97 z "},"Ớ":{"ha":1015,"x_min":79,"x_max":936,"o":"m 504 1061 q 472 1075 472 1061 q 492 1122 472 1085 q 553 1229 513 1160 q 585 1257 564 1249 q 639 1265 606 1265 q 690 1261 674 1265 q 706 1247 706 1257 q 694 1223 706 1239 q 628 1146 682 1207 l 575 1086 q 504 1061 553 1061 m 772 906 q 936 489 936 788 q 826 119 936 246 q 507 -8 717 -8 q 189 119 299 -8 q 79 489 79 246 q 188 856 79 732 q 507 981 297 981 q 697 947 615 981 l 718 947 q 777 960 760 947 q 794 993 794 974 q 789 1026 796 1011 q 770 1058 782 1042 q 757 1079 758 1074 q 769 1101 757 1093 l 803 1124 q 819 1129 810 1129 q 860 1094 842 1129 q 879 1026 879 1060 q 853 947 879 979 q 772 906 826 915 m 507 97 q 732 197 654 97 q 810 489 810 297 q 732 777 810 679 q 507 875 654 875 q 283 777 360 875 q 206 489 206 679 q 283 197 206 297 q 507 97 360 97 z "},"Ợ":{"ha":1015,"x_min":79,"x_max":936,"o":"m 772 906 q 936 489 936 788 q 826 119 936 246 q 507 -8 717 -8 q 189 119 299 -8 q 79 489 79 246 q 188 856 79 732 q 507 981 297 981 q 697 947 615 981 l 718 947 q 777 960 760 947 q 794 993 794 974 q 789 1026 796 1011 q 770 1058 782 1042 q 757 1079 758 1074 q 769 1101 757 1093 l 803 1124 q 819 1129 810 1129 q 860 1094 842 1129 q 879 1026 879 1060 q 853 947 879 979 q 772 906 826 915 m 507 97 q 732 197 654 97 q 810 489 810 297 q 732 777 810 679 q 507 875 654 875 q 283 777 360 875 q 206 489 206 679 q 283 197 206 297 q 507 97 360 97 m 515 -111 q 571 -142 571 -111 l 571 -212 q 510 -243 571 -243 q 454 -212 454 -243 l 454 -142 q 515 -111 454 -111 z "},"Ờ":{"ha":1015,"x_min":79,"x_max":936,"o":"m 565 1061 q 494 1086 517 1061 l 442 1146 q 376 1223 389 1207 q 364 1247 364 1239 q 380 1261 364 1257 q 431 1265 396 1265 q 485 1257 464 1265 q 517 1229 506 1249 q 577 1122 557 1160 q 597 1075 597 1085 q 565 1061 597 1061 m 772 906 q 936 489 936 788 q 826 119 936 246 q 507 -8 717 -8 q 189 119 299 -8 q 79 489 79 246 q 188 856 79 732 q 507 981 297 981 q 697 947 615 981 l 718 947 q 777 960 760 947 q 794 993 794 974 q 789 1026 796 1011 q 770 1058 782 1042 q 757 1079 758 1074 q 769 1101 757 1093 l 803 1124 q 819 1129 810 1129 q 860 1094 842 1129 q 879 1026 879 1060 q 853 947 879 979 q 772 906 826 915 m 507 97 q 732 197 654 97 q 810 489 810 297 q 732 777 810 679 q 507 875 654 875 q 283 777 360 875 q 206 489 206 679 q 283 197 206 297 q 507 97 360 97 z "},"Ở":{"ha":1015,"x_min":79,"x_max":936,"o":"m 463 1201 q 442 1219 454 1201 q 429 1247 429 1236 q 465 1276 429 1261 q 538 1290 501 1290 q 624 1267 583 1290 q 664 1192 664 1243 q 638 1114 664 1150 q 581 1054 613 1078 q 538 1031 549 1031 q 509 1038 526 1031 q 492 1054 492 1046 q 499 1075 492 1067 q 526 1100 507 1083 q 564 1138 550 1119 q 578 1182 578 1156 q 563 1210 578 1200 q 526 1219 549 1219 q 481 1210 496 1219 q 463 1201 467 1201 m 772 906 q 936 489 936 788 q 826 119 936 246 q 507 -8 717 -8 q 189 119 299 -8 q 79 489 79 246 q 188 856 79 732 q 507 981 297 981 q 697 947 615 981 l 718 947 q 777 960 760 947 q 794 993 794 974 q 789 1026 796 1011 q 770 1058 782 1042 q 757 1079 758 1074 q 769 1101 757 1093 l 803 1124 q 819 1129 810 1129 q 860 1094 842 1129 q 879 1026 879 1060 q 853 947 879 979 q 772 906 826 915 m 507 97 q 732 197 654 97 q 810 489 810 297 q 732 777 810 679 q 507 875 654 875 q 283 777 360 875 q 206 489 206 679 q 283 197 206 297 q 507 97 360 97 z "},"Ỡ":{"ha":1015,"x_min":79,"x_max":936,"o":"m 324 1076 q 311 1093 311 1082 q 315 1111 311 1101 q 363 1185 335 1163 q 429 1207 390 1207 q 484 1199 456 1207 q 551 1174 513 1190 q 647 1147 617 1147 q 676 1156 664 1147 q 703 1188 689 1165 q 728 1207 714 1207 q 740 1204 736 1207 l 750 1200 q 764 1185 764 1194 q 758 1164 764 1181 q 710 1091 738 1113 q 644 1069 683 1069 q 588 1078 617 1069 q 518 1103 558 1086 q 424 1129 453 1129 q 397 1120 408 1129 q 371 1088 385 1111 q 349 1068 360 1068 q 336 1071 342 1068 l 324 1076 m 772 906 q 936 489 936 788 q 826 119 936 246 q 507 -8 717 -8 q 189 119 299 -8 q 79 489 79 246 q 188 856 79 732 q 507 981 297 981 q 697 947 615 981 l 718 947 q 777 960 760 947 q 794 993 794 974 q 789 1026 796 1011 q 770 1058 782 1042 q 757 1079 758 1074 q 769 1101 757 1093 l 803 1124 q 819 1129 810 1129 q 860 1094 842 1129 q 879 1026 879 1060 q 853 947 879 979 q 772 906 826 915 m 507 97 q 732 197 654 97 q 810 489 810 297 q 732 777 810 679 q 507 875 654 875 q 283 777 360 875 q 206 489 206 679 q 283 197 206 297 q 507 97 360 97 z "},"Ő":{"ha":1015,"x_min":79,"x_max":936,"o":"m 79 0 m 507 981 q 826 856 717 981 q 936 489 936 732 q 826 119 936 246 q 507 -8 717 -8 q 189 119 299 -8 q 79 489 79 246 q 188 856 79 732 q 507 981 297 981 m 507 875 q 283 777 360 875 q 206 489 206 679 q 283 197 206 297 q 507 97 360 97 q 732 197 654 97 q 810 489 810 297 q 732 777 810 679 q 507 875 654 875 m 519 1263 q 570 1258 554 1263 q 586 1244 586 1254 q 574 1220 586 1236 q 508 1143 561 1204 l 456 1083 q 385 1058 433 1058 q 353 1072 353 1058 q 373 1119 353 1082 q 433 1226 393 1157 q 465 1254 444 1246 q 519 1263 486 1263 m 724 1263 q 774 1258 758 1263 q 790 1244 790 1254 q 778 1220 790 1236 q 713 1143 767 1204 l 660 1083 q 589 1058 638 1058 q 557 1072 557 1058 q 577 1119 557 1082 q 638 1226 597 1157 q 669 1254 649 1246 q 724 1263 690 1263 z "},"Ō":{"ha":1015,"x_min":79,"x_max":936,"o":"m 79 0 m 507 981 q 826 856 717 981 q 936 489 936 732 q 826 119 936 246 q 507 -8 717 -8 q 189 119 299 -8 q 79 489 79 246 q 188 856 79 732 q 507 981 297 981 m 507 875 q 283 777 360 875 q 206 489 206 679 q 283 197 206 297 q 507 97 360 97 q 732 197 654 97 q 810 489 810 297 q 732 777 810 679 q 507 875 654 875 m 663 1193 q 684 1183 678 1193 q 690 1151 690 1174 l 690 1138 q 684 1106 690 1115 q 663 1096 678 1096 l 353 1096 q 332 1106 339 1096 q 325 1138 325 1115 l 325 1151 q 332 1183 325 1174 q 353 1193 339 1193 l 663 1193 z "},"Ǫ":{"ha":1015,"x_min":79,"x_max":936,"o":"m 936 489 q 854 156 936 279 q 615 1 772 32 l 615 -1 q 608 -33 615 -12 q 599 -86 599 -69 q 624 -144 599 -131 q 685 -157 649 -157 q 719 -150 699 -157 q 757 -143 750 -143 q 783 -178 783 -143 q 755 -238 783 -222 q 669 -254 726 -254 q 539 -208 572 -254 q 506 -112 506 -162 q 533 -8 506 -44 l 507 -8 q 189 119 299 -8 q 79 489 79 246 q 188 856 79 732 q 507 981 297 981 q 826 856 717 981 q 936 489 936 732 m 507 97 q 732 197 654 97 q 810 489 810 297 q 732 777 810 679 q 507 875 654 875 q 283 777 360 875 q 206 489 206 679 q 283 197 206 297 q 507 97 360 97 z "},"Ø":{"ha":1015,"x_min":47,"x_max":936,"o":"m 507 981 q 803 879 693 981 l 879 964 q 899 975 889 975 q 919 965 908 975 q 929 947 929 956 q 921 928 929 939 l 840 839 q 936 489 936 714 q 826 119 936 246 q 507 -8 717 -8 q 190 117 299 -8 l 97 14 q 78 1 88 1 q 58 11 68 1 q 47 31 47 21 q 56 50 47 40 l 157 161 q 79 489 79 285 q 188 856 79 732 q 507 981 297 981 m 507 875 q 283 777 360 875 q 206 489 206 679 q 246 260 206 353 l 721 789 q 507 875 646 875 m 274 210 q 507 97 349 97 q 732 197 654 97 q 810 489 810 297 q 754 744 810 649 l 274 210 z "},"Ǿ":{"ha":1015,"x_min":47,"x_max":936,"o":"m 47 0 m 507 981 q 803 879 693 981 l 879 964 q 899 975 889 975 q 919 965 908 975 q 929 947 929 956 q 921 928 929 939 l 840 839 q 936 489 936 714 q 826 119 936 246 q 507 -8 717 -8 q 190 117 299 -8 l 97 14 q 78 1 88 1 q 58 11 68 1 q 47 31 47 21 q 56 50 47 40 l 157 161 q 79 489 79 285 q 188 856 79 732 q 507 981 297 981 m 507 875 q 283 777 360 875 q 206 489 206 679 q 246 260 206 353 l 721 789 q 507 875 646 875 m 274 210 q 507 97 349 97 q 732 197 654 97 q 810 489 810 297 q 754 744 810 649 l 274 210 m 619 1263 q 670 1258 654 1263 q 686 1244 686 1254 q 674 1220 686 1236 q 608 1143 663 1204 l 556 1083 q 485 1058 533 1058 q 453 1072 453 1058 q 473 1119 453 1082 q 533 1226 493 1157 q 565 1254 544 1246 q 619 1263 586 1263 z "},"Õ":{"ha":1015,"x_min":79,"x_max":936,"o":"m 79 0 m 507 981 q 826 856 717 981 q 936 489 936 732 q 826 119 936 246 q 507 -8 717 -8 q 189 119 299 -8 q 79 489 79 246 q 188 856 79 732 q 507 981 297 981 m 507 875 q 283 777 360 875 q 206 489 206 679 q 283 197 206 297 q 507 97 360 97 q 732 197 654 97 q 810 489 810 297 q 732 777 810 679 q 507 875 654 875 m 400 1204 q 458 1197 429 1204 q 535 1172 488 1189 q 598 1151 575 1158 q 642 1144 621 1144 q 675 1153 661 1144 q 703 1185 689 1163 q 731 1204 717 1204 q 744 1201 739 1204 l 756 1197 q 771 1181 771 1192 q 765 1161 771 1172 q 713 1089 743 1111 q 639 1067 682 1067 q 500 1100 589 1067 q 438 1120 461 1114 q 393 1126 414 1126 q 363 1117 375 1126 q 335 1085 350 1108 q 322 1069 326 1074 q 310 1065 317 1065 q 296 1068 301 1065 l 282 1074 q 268 1090 268 1079 q 272 1108 268 1099 q 326 1182 294 1160 q 400 1204 357 1204 z "},"Œ":{"ha":1418,"x_min":79,"x_max":1372,"o":"m 1344 106 q 1366 96 1360 106 q 1372 64 1372 86 l 1372 42 q 1366 10 1372 19 q 1344 0 1360 0 l 854 0 q 822 10 832 0 q 813 42 813 19 l 813 108 q 507 -8 707 -8 q 189 119 299 -8 q 79 489 79 246 q 188 856 79 732 q 507 981 297 981 q 813 867 706 981 l 813 931 q 822 963 813 953 q 854 972 832 972 l 1343 972 q 1365 963 1358 972 q 1371 931 1371 953 l 1371 908 q 1365 876 1371 886 q 1343 867 1358 867 l 935 867 l 935 550 l 1301 550 q 1323 540 1317 550 q 1329 508 1329 531 l 1329 486 q 1323 454 1329 464 q 1301 444 1317 444 l 935 444 l 935 106 l 1344 106 m 507 97 q 732 197 654 97 q 810 489 810 297 q 732 777 810 679 q 507 875 654 875 q 283 777 360 875 q 206 489 206 679 q 283 197 206 297 q 507 97 360 97 z "},"P":{"ha":792,"x_min":118,"x_max":751,"o":"m 442 972 q 658 914 564 972 q 751 700 751 856 q 697 521 751 585 q 576 435 643 457 q 456 414 510 414 l 240 414 l 240 28 q 185 -3 240 -3 l 174 -3 q 118 28 118 -3 l 118 931 q 128 963 118 953 q 160 972 138 972 l 442 972 m 240 867 l 240 519 l 457 519 q 571 560 517 519 q 625 700 625 600 q 569 830 625 793 q 438 867 514 867 l 240 867 z "},"Þ":{"ha":788,"x_min":118,"x_max":751,"o":"m 185 975 q 240 944 240 975 l 240 803 l 442 803 q 658 744 564 803 q 751 531 751 686 q 697 351 751 415 q 576 266 643 288 q 456 244 510 244 l 240 244 l 240 28 q 185 -3 240 -3 l 174 -3 q 118 28 118 -3 l 118 944 q 174 975 118 975 l 185 975 m 240 697 l 240 350 l 457 350 q 571 390 517 350 q 625 531 625 431 q 569 660 625 624 q 438 697 514 697 l 240 697 z "},"Q":{"ha":1015,"x_min":79,"x_max":950,"o":"m 507 981 q 826 853 717 981 q 936 482 936 725 q 865 164 936 285 q 657 7 793 43 l 657 1 l 931 -85 q 950 -106 950 -92 q 942 -140 950 -115 q 919 -185 933 -165 q 892 -206 906 -206 q 661 -119 881 -206 q 342 8 442 -32 q 79 482 79 113 q 189 853 79 726 q 507 981 299 981 m 507 875 q 284 774 363 875 q 206 482 206 672 q 284 193 206 293 q 507 93 363 93 q 731 194 653 93 q 810 482 810 294 q 731 773 810 671 q 507 875 651 875 z "},"R":{"ha":847,"x_min":135,"x_max":822,"o":"m 410 972 q 660 913 576 972 q 744 726 744 854 q 703 581 744 640 q 585 492 661 522 l 585 486 q 652 432 625 472 q 710 313 679 392 l 818 39 q 822 19 822 26 q 764 -3 822 -3 l 750 -3 q 714 3 729 -3 q 694 19 699 10 l 589 292 q 513 399 558 371 q 382 428 467 428 l 257 428 l 257 28 q 201 -3 257 -3 l 190 -3 q 135 28 135 -3 l 135 931 q 144 963 135 953 q 176 972 154 972 l 410 972 m 257 867 l 257 533 l 440 533 q 530 557 489 533 q 594 619 571 581 q 618 704 618 658 q 568 826 618 786 q 431 867 518 867 l 257 867 z "},"Ŕ":{"ha":847,"x_min":135,"x_max":822,"o":"m 135 0 m 410 972 q 660 913 576 972 q 744 726 744 854 q 703 581 744 640 q 585 492 661 522 l 585 486 q 652 432 625 472 q 710 313 679 392 l 818 39 q 822 19 822 26 q 764 -3 822 -3 l 750 -3 q 714 3 729 -3 q 694 19 699 10 l 589 292 q 513 399 558 371 q 382 428 467 428 l 257 428 l 257 28 q 201 -3 257 -3 l 190 -3 q 135 28 135 -3 l 135 931 q 144 963 135 953 q 176 972 154 972 l 410 972 m 257 867 l 257 533 l 440 533 q 530 557 489 533 q 594 619 571 581 q 618 704 618 658 q 568 826 618 786 q 431 867 518 867 l 257 867 m 535 1263 q 585 1258 569 1263 q 601 1244 601 1254 q 590 1220 601 1236 q 524 1143 578 1204 l 471 1083 q 400 1058 449 1058 q 368 1072 368 1058 q 388 1119 368 1082 q 449 1226 408 1157 q 481 1254 460 1246 q 535 1263 501 1263 z "},"Ř":{"ha":847,"x_min":135,"x_max":822,"o":"m 135 0 m 410 972 q 660 913 576 972 q 744 726 744 854 q 703 581 744 640 q 585 492 661 522 l 585 486 q 652 432 625 472 q 710 313 679 392 l 818 39 q 822 19 822 26 q 764 -3 822 -3 l 750 -3 q 714 3 729 -3 q 694 19 699 10 l 589 292 q 513 399 558 371 q 382 428 467 428 l 257 428 l 257 28 q 201 -3 257 -3 l 190 -3 q 135 28 135 -3 l 135 931 q 144 963 135 953 q 176 972 154 972 l 410 972 m 257 867 l 257 533 l 440 533 q 530 557 489 533 q 594 619 571 581 q 618 704 618 658 q 568 826 618 786 q 431 867 518 867 l 257 867 m 558 1251 q 592 1231 592 1251 q 583 1207 592 1219 l 504 1085 q 440 1054 483 1054 l 406 1054 q 342 1085 363 1054 l 264 1207 q 256 1232 256 1222 q 288 1251 256 1251 l 290 1251 q 338 1233 318 1251 l 422 1131 l 510 1233 q 556 1251 529 1251 l 558 1251 z "},"Ŗ":{"ha":847,"x_min":135,"x_max":822,"o":"m 135 0 m 410 972 q 660 913 576 972 q 744 726 744 854 q 703 581 744 640 q 585 492 661 522 l 585 486 q 652 432 625 472 q 710 313 679 392 l 818 39 q 822 19 822 26 q 764 -3 822 -3 l 750 -3 q 714 3 729 -3 q 694 19 699 10 l 589 292 q 513 399 558 371 q 382 428 467 428 l 257 428 l 257 28 q 201 -3 257 -3 l 190 -3 q 135 28 135 -3 l 135 931 q 144 963 135 953 q 176 972 154 972 l 410 972 m 257 867 l 257 533 l 440 533 q 530 557 489 533 q 594 619 571 581 q 618 704 618 658 q 568 826 618 786 q 431 867 518 867 l 257 867 m 429 -71 q 470 -81 456 -71 q 485 -110 485 -92 q 460 -221 485 -171 q 401 -299 435 -271 q 342 -326 367 -326 q 314 -322 326 -326 q 301 -306 301 -317 q 318 -262 301 -293 q 349 -193 338 -226 q 361 -115 361 -160 q 375 -83 361 -94 q 417 -71 389 -71 l 429 -71 z "},"Ṛ":{"ha":847,"x_min":135,"x_max":822,"o":"m 135 0 m 410 972 q 660 913 576 972 q 744 726 744 854 q 703 581 744 640 q 585 492 661 522 l 585 486 q 652 432 625 472 q 710 313 679 392 l 818 39 q 822 19 822 26 q 764 -3 822 -3 l 750 -3 q 714 3 729 -3 q 694 19 699 10 l 589 292 q 513 399 558 371 q 382 428 467 428 l 257 428 l 257 28 q 201 -3 257 -3 l 190 -3 q 135 28 135 -3 l 135 931 q 144 963 135 953 q 176 972 154 972 l 410 972 m 257 867 l 257 533 l 440 533 q 530 557 489 533 q 594 619 571 581 q 618 704 618 658 q 568 826 618 786 q 431 867 518 867 l 257 867 m 429 -111 q 485 -142 485 -111 l 485 -212 q 424 -243 485 -243 q 368 -212 368 -243 l 368 -142 q 429 -111 368 -111 z "},"S":{"ha":694,"x_min":51,"x_max":647,"o":"m 378 981 q 473 969 419 981 q 564 939 526 958 q 601 896 601 919 q 584 851 601 881 q 557 822 567 822 q 543 826 551 822 q 529 833 535 831 q 375 875 456 875 q 245 833 294 875 q 196 718 196 792 q 220 641 196 671 q 278 596 244 611 q 385 553 311 581 q 521 491 468 521 q 610 405 574 461 q 647 261 647 349 q 564 64 647 136 q 339 -8 481 -8 q 197 8 263 -8 q 91 49 131 25 q 51 93 51 74 q 70 139 51 110 q 100 168 89 168 q 126 156 104 168 q 224 113 176 129 q 339 97 271 97 q 470 142 419 97 q 521 261 521 188 q 493 347 521 313 q 426 401 465 381 q 311 450 386 421 q 183 508 231 482 q 103 587 136 535 q 69 724 69 639 q 108 857 69 799 q 216 948 146 915 q 378 981 286 981 z "},"Ś":{"ha":694,"x_min":51,"x_max":647,"o":"m 51 0 m 378 981 q 473 969 419 981 q 564 939 526 958 q 601 896 601 919 q 584 851 601 881 q 557 822 567 822 q 543 826 551 822 q 529 833 535 831 q 375 875 456 875 q 245 833 294 875 q 196 718 196 792 q 220 641 196 671 q 278 596 244 611 q 385 553 311 581 q 521 491 468 521 q 610 405 574 461 q 647 261 647 349 q 564 64 647 136 q 339 -8 481 -8 q 197 8 263 -8 q 91 49 131 25 q 51 93 51 74 q 70 139 51 110 q 100 168 89 168 q 126 156 104 168 q 224 113 176 129 q 339 97 271 97 q 470 142 419 97 q 521 261 521 188 q 493 347 521 313 q 426 401 465 381 q 311 450 386 421 q 183 508 231 482 q 103 587 136 535 q 69 724 69 639 q 108 857 69 799 q 216 948 146 915 q 378 981 286 981 m 458 1263 q 509 1258 493 1263 q 525 1244 525 1254 q 513 1220 525 1236 q 447 1143 501 1204 l 394 1083 q 324 1058 372 1058 q 292 1072 292 1058 q 312 1119 292 1082 q 372 1226 332 1157 q 404 1254 383 1246 q 458 1263 425 1263 z "},"Š":{"ha":694,"x_min":51,"x_max":647,"o":"m 51 0 m 378 981 q 473 969 419 981 q 564 939 526 958 q 601 896 601 919 q 584 851 601 881 q 557 822 567 822 q 543 826 551 822 q 529 833 535 831 q 375 875 456 875 q 245 833 294 875 q 196 718 196 792 q 220 641 196 671 q 278 596 244 611 q 385 553 311 581 q 521 491 468 521 q 610 405 574 461 q 647 261 647 349 q 564 64 647 136 q 339 -8 481 -8 q 197 8 263 -8 q 91 49 131 25 q 51 93 51 74 q 70 139 51 110 q 100 168 89 168 q 126 156 104 168 q 224 113 176 129 q 339 97 271 97 q 470 142 419 97 q 521 261 521 188 q 493 347 521 313 q 426 401 465 381 q 311 450 386 421 q 183 508 231 482 q 103 587 136 535 q 69 724 69 639 q 108 857 69 799 q 216 948 146 915 q 378 981 286 981 m 482 1251 q 515 1231 515 1251 q 507 1207 515 1219 l 428 1085 q 364 1054 407 1054 l 329 1054 q 265 1085 286 1054 l 188 1207 q 179 1232 179 1222 q 211 1251 179 1251 l 214 1251 q 261 1233 242 1251 l 346 1131 l 433 1233 q 479 1251 453 1251 l 482 1251 z "},"Ş":{"ha":694,"x_min":51,"x_max":647,"o":"m 647 261 q 575 75 647 146 q 379 -7 503 4 l 361 -68 l 367 -68 q 446 -89 407 -68 q 485 -168 485 -110 q 325 -292 485 -292 q 218 -275 271 -292 q 165 -232 165 -258 q 192 -196 165 -196 q 226 -206 203 -196 q 307 -224 272 -224 q 386 -175 386 -224 q 372 -141 386 -151 q 332 -122 358 -131 q 303 -111 313 -117 q 294 -94 294 -106 q 300 -67 294 -86 q 318 -8 306 -49 q 185 12 246 -6 q 88 52 124 29 q 51 93 51 75 q 70 139 51 110 q 100 168 89 168 q 126 156 104 168 q 224 113 176 129 q 339 97 271 97 q 470 142 419 97 q 521 261 521 188 q 493 347 521 313 q 426 401 465 381 q 311 450 386 421 q 183 508 231 482 q 103 587 136 535 q 69 724 69 639 q 108 857 69 799 q 216 948 146 915 q 378 981 286 981 q 473 969 419 981 q 564 939 526 958 q 601 896 601 919 q 584 851 601 881 q 557 822 567 822 q 543 826 551 822 q 529 833 535 831 q 375 875 456 875 q 245 833 294 875 q 196 718 196 792 q 220 641 196 671 q 278 596 244 611 q 385 553 311 581 q 521 491 468 521 q 610 405 574 461 q 647 261 647 349 z "},"Ŝ":{"ha":694,"x_min":51,"x_max":647,"o":"m 51 0 m 378 981 q 473 969 419 981 q 564 939 526 958 q 601 896 601 919 q 584 851 601 881 q 557 822 567 822 q 543 826 551 822 q 529 833 535 831 q 375 875 456 875 q 245 833 294 875 q 196 718 196 792 q 220 641 196 671 q 278 596 244 611 q 385 553 311 581 q 521 491 468 521 q 610 405 574 461 q 647 261 647 349 q 564 64 647 136 q 339 -8 481 -8 q 197 8 263 -8 q 91 49 131 25 q 51 93 51 74 q 70 139 51 110 q 100 168 89 168 q 126 156 104 168 q 224 113 176 129 q 339 97 271 97 q 470 142 419 97 q 521 261 521 188 q 493 347 521 313 q 426 401 465 381 q 311 450 386 421 q 183 508 231 482 q 103 587 136 535 q 69 724 69 639 q 108 857 69 799 q 216 948 146 915 q 378 981 286 981 m 364 1243 q 428 1213 407 1243 l 507 1090 q 515 1067 515 1078 q 482 1046 515 1046 l 479 1046 q 433 1064 453 1046 l 346 1167 l 261 1064 q 214 1046 242 1046 l 211 1046 q 179 1065 179 1046 q 188 1090 179 1076 l 265 1213 q 329 1243 286 1243 l 364 1243 z "},"Ș":{"ha":694,"x_min":51,"x_max":647,"o":"m 51 0 m 378 981 q 473 969 419 981 q 564 939 526 958 q 601 896 601 919 q 584 851 601 881 q 557 822 567 822 q 543 826 551 822 q 529 833 535 831 q 375 875 456 875 q 245 833 294 875 q 196 718 196 792 q 220 641 196 671 q 278 596 244 611 q 385 553 311 581 q 521 491 468 521 q 610 405 574 461 q 647 261 647 349 q 564 64 647 136 q 339 -8 481 -8 q 197 8 263 -8 q 91 49 131 25 q 51 93 51 74 q 70 139 51 110 q 100 168 89 168 q 126 156 104 168 q 224 113 176 129 q 339 97 271 97 q 470 142 419 97 q 521 261 521 188 q 493 347 521 313 q 426 401 465 381 q 311 450 386 421 q 183 508 231 482 q 103 587 136 535 q 69 724 69 639 q 108 857 69 799 q 216 948 146 915 q 378 981 286 981 m 353 -71 q 394 -81 379 -71 q 408 -110 408 -92 q 383 -221 408 -171 q 324 -299 358 -271 q 265 -326 290 -326 q 238 -322 250 -326 q 225 -306 225 -317 q 242 -262 225 -293 q 273 -193 261 -226 q 285 -115 285 -160 q 299 -83 285 -94 q 340 -71 313 -71 l 353 -71 z "},"Ṣ":{"ha":694,"x_min":51,"x_max":647,"o":"m 51 0 m 378 981 q 473 969 419 981 q 564 939 526 958 q 601 896 601 919 q 584 851 601 881 q 557 822 567 822 q 543 826 551 822 q 529 833 535 831 q 375 875 456 875 q 245 833 294 875 q 196 718 196 792 q 220 641 196 671 q 278 596 244 611 q 385 553 311 581 q 521 491 468 521 q 610 405 574 461 q 647 261 647 349 q 564 64 647 136 q 339 -8 481 -8 q 197 8 263 -8 q 91 49 131 25 q 51 93 51 74 q 70 139 51 110 q 100 168 89 168 q 126 156 104 168 q 224 113 176 129 q 339 97 271 97 q 470 142 419 97 q 521 261 521 188 q 493 347 521 313 q 426 401 465 381 q 311 450 386 421 q 183 508 231 482 q 103 587 136 535 q 69 724 69 639 q 108 857 69 799 q 216 948 146 915 q 378 981 286 981 m 353 -111 q 408 -142 408 -111 l 408 -212 q 347 -243 408 -243 q 292 -212 292 -243 l 292 -142 q 353 -111 292 -111 z "},"ẞ":{"ha":972,"x_min":128,"x_max":917,"o":"m 647 557 q 844 470 772 538 q 917 282 917 403 q 868 117 917 182 q 745 22 819 51 q 593 -8 671 -8 q 448 14 501 -8 q 356 71 394 36 q 374 115 356 90 q 404 140 392 140 q 437 134 421 140 q 468 121 453 128 q 521 99 497 107 q 582 92 544 92 q 731 136 665 92 q 796 283 796 181 q 739 425 796 383 q 574 467 682 467 l 525 467 q 503 493 515 467 q 492 540 492 519 q 496 557 492 551 l 707 846 q 511 875 619 875 q 313 808 376 875 q 250 596 250 742 l 250 28 q 194 -3 250 -3 l 183 -3 q 128 28 128 -3 l 128 597 q 224 885 128 788 q 508 981 321 982 q 684 964 600 978 q 829 932 768 950 q 849 904 838 929 q 860 858 860 879 q 856 842 860 849 l 647 557 z "},"Ə":{"ha":933,"x_min":63,"x_max":811,"o":"m 418 -12 q 63 447 63 -12 q 79 482 63 460 q 108 504 96 504 l 686 504 q 609 790 674 700 q 417 881 544 881 q 274 860 335 881 q 164 810 214 839 q 131 794 138 794 q 99 822 117 794 q 82 864 82 850 q 127 915 82 888 q 249 961 172 942 q 415 981 326 981 q 715 854 618 981 q 811 461 811 728 q 713 106 811 225 q 418 -12 614 -12 m 422 88 q 686 404 672 88 l 186 404 q 244 165 186 243 q 422 88 303 88 z "},"T":{"ha":763,"x_min":28,"x_max":735,"o":"m 707 972 q 728 963 722 972 q 735 931 735 953 l 735 908 q 728 876 735 886 q 707 867 722 867 l 444 867 l 444 28 q 389 -3 444 -3 l 378 -3 q 322 28 322 -3 l 322 867 l 56 867 q 35 876 42 867 q 28 908 28 886 l 28 931 q 35 963 28 953 q 56 972 42 972 l 707 972 z "},"Ŧ":{"ha":763,"x_min":28,"x_max":735,"o":"m 707 972 q 728 963 722 972 q 735 931 735 953 l 735 908 q 728 876 735 886 q 707 867 722 867 l 444 867 l 444 539 l 639 539 q 660 529 654 539 q 667 497 667 519 l 667 483 q 660 451 667 461 q 639 442 654 442 l 444 442 l 444 28 q 389 -3 444 -3 l 378 -3 q 322 28 322 -3 l 322 442 l 135 442 q 114 451 121 442 q 107 483 107 461 l 107 497 q 114 529 107 519 q 135 539 121 539 l 322 539 l 322 867 l 56 867 q 35 876 42 867 q 28 908 28 886 l 28 931 q 35 963 28 953 q 56 972 42 972 l 707 972 z "},"Ť":{"ha":763,"x_min":28,"x_max":735,"o":"m 28 0 m 707 972 q 728 963 722 972 q 735 931 735 953 l 735 908 q 728 876 735 886 q 707 867 722 867 l 444 867 l 444 28 q 389 -3 444 -3 l 378 -3 q 322 28 322 -3 l 322 867 l 56 867 q 35 876 42 867 q 28 908 28 886 l 28 931 q 35 963 28 953 q 56 972 42 972 l 707 972 m 517 1251 q 550 1231 550 1251 q 542 1207 550 1219 l 463 1085 q 399 1054 442 1054 l 364 1054 q 300 1085 321 1054 l 222 1207 q 214 1232 214 1222 q 246 1251 214 1251 l 249 1251 q 296 1233 276 1251 l 381 1131 l 468 1233 q 514 1251 488 1251 l 517 1251 z "},"Ţ":{"ha":763,"x_min":28,"x_max":735,"o":"m 707 972 q 728 963 722 972 q 735 931 735 953 l 735 908 q 728 876 735 886 q 707 867 722 867 l 444 867 l 444 28 q 415 0 444 7 l 396 -68 l 401 -68 q 481 -89 442 -68 q 519 -168 519 -110 q 360 -292 519 -292 q 253 -275 306 -292 q 200 -232 200 -258 q 226 -196 200 -196 q 261 -206 238 -196 q 342 -224 307 -224 q 421 -175 421 -224 q 407 -141 421 -151 q 367 -122 393 -131 q 338 -111 347 -117 q 329 -94 329 -106 q 335 -65 329 -86 q 356 -1 342 -44 q 322 28 322 4 l 322 867 l 56 867 q 35 876 42 867 q 28 908 28 886 l 28 931 q 35 963 28 953 q 56 972 42 972 l 707 972 z "},"Ț":{"ha":763,"x_min":28,"x_max":735,"o":"m 28 0 m 707 972 q 728 963 722 972 q 735 931 735 953 l 735 908 q 728 876 735 886 q 707 867 722 867 l 444 867 l 444 28 q 389 -3 444 -3 l 378 -3 q 322 28 322 -3 l 322 867 l 56 867 q 35 876 42 867 q 28 908 28 886 l 28 931 q 35 963 28 953 q 56 972 42 972 l 707 972 m 388 -71 q 428 -81 414 -71 q 443 -110 443 -92 q 418 -221 443 -171 q 359 -299 393 -271 q 300 -326 325 -326 q 272 -322 285 -326 q 260 -306 260 -317 q 276 -262 260 -293 q 308 -193 296 -226 q 319 -115 319 -160 q 333 -83 319 -94 q 375 -71 347 -71 l 388 -71 z "},"Ṭ":{"ha":763,"x_min":28,"x_max":735,"o":"m 28 0 m 707 972 q 728 963 722 972 q 735 931 735 953 l 735 908 q 728 876 735 886 q 707 867 722 867 l 444 867 l 444 28 q 389 -3 444 -3 l 378 -3 q 322 28 322 -3 l 322 867 l 56 867 q 35 876 42 867 q 28 908 28 886 l 28 931 q 35 963 28 953 q 56 972 42 972 l 707 972 m 388 -111 q 443 -142 443 -111 l 443 -212 q 382 -243 443 -243 q 326 -212 326 -243 l 326 -142 q 388 -111 326 -111 z "},"U":{"ha":989,"x_min":115,"x_max":874,"o":"m 818 975 q 874 944 874 975 l 874 311 q 775 76 874 160 q 494 -8 676 -8 q 213 76 311 -8 q 115 311 115 160 l 115 944 q 171 975 115 975 l 182 975 q 238 944 238 975 l 238 307 q 271 198 238 246 q 363 124 304 150 q 494 97 421 97 q 626 124 568 97 q 718 199 685 151 q 751 307 751 247 l 751 944 q 807 975 751 975 l 818 975 z "},"Ú":{"ha":989,"x_min":115,"x_max":874,"o":"m 115 0 m 818 975 q 874 944 874 975 l 874 311 q 775 76 874 160 q 494 -8 676 -8 q 213 76 311 -8 q 115 311 115 160 l 115 944 q 171 975 115 975 l 182 975 q 238 944 238 975 l 238 307 q 271 198 238 246 q 363 124 304 150 q 494 97 421 97 q 626 124 568 97 q 718 199 685 151 q 751 307 751 247 l 751 944 q 807 975 751 975 l 818 975 m 606 1263 q 656 1258 640 1263 q 672 1244 672 1254 q 660 1220 672 1236 q 594 1143 649 1204 l 542 1083 q 471 1058 519 1058 q 439 1072 439 1058 q 459 1119 439 1082 q 519 1226 479 1157 q 551 1254 531 1246 q 606 1263 572 1263 z "},"Ŭ":{"ha":989,"x_min":115,"x_max":874,"o":"m 115 0 m 818 975 q 874 944 874 975 l 874 311 q 775 76 874 160 q 494 -8 676 -8 q 213 76 311 -8 q 115 311 115 160 l 115 944 q 171 975 115 975 l 182 975 q 238 944 238 975 l 238 307 q 271 198 238 246 q 363 124 304 150 q 494 97 421 97 q 626 124 568 97 q 718 199 685 151 q 751 307 751 247 l 751 944 q 807 975 751 975 l 818 975 m 674 1239 q 694 1218 694 1239 q 635 1101 694 1143 q 494 1058 575 1058 q 353 1101 413 1058 q 293 1218 293 1143 q 314 1239 293 1239 q 331 1235 326 1239 q 338 1222 335 1231 q 344 1204 340 1213 q 400 1163 360 1176 q 494 1150 440 1150 q 588 1163 549 1150 q 643 1204 628 1176 q 651 1222 647 1213 q 658 1235 654 1232 q 674 1239 663 1239 z "},"Û":{"ha":989,"x_min":115,"x_max":874,"o":"m 115 0 m 818 975 q 874 944 874 975 l 874 311 q 775 76 874 160 q 494 -8 676 -8 q 213 76 311 -8 q 115 311 115 160 l 115 944 q 171 975 115 975 l 182 975 q 238 944 238 975 l 238 307 q 271 198 238 246 q 363 124 304 150 q 494 97 421 97 q 626 124 568 97 q 718 199 685 151 q 751 307 751 247 l 751 944 q 807 975 751 975 l 818 975 m 511 1243 q 575 1213 554 1243 l 654 1090 q 663 1067 663 1078 q 629 1046 663 1046 l 626 1046 q 581 1064 600 1046 l 493 1167 l 408 1064 q 361 1046 389 1046 l 358 1046 q 326 1065 326 1046 q 335 1090 326 1076 l 413 1213 q 476 1243 433 1243 l 511 1243 z "},"Ü":{"ha":989,"x_min":115,"x_max":874,"o":"m 115 0 m 818 975 q 874 944 874 975 l 874 311 q 775 76 874 160 q 494 -8 676 -8 q 213 76 311 -8 q 115 311 115 160 l 115 944 q 171 975 115 975 l 182 975 q 238 944 238 975 l 238 307 q 271 198 238 246 q 363 124 304 150 q 494 97 421 97 q 626 124 568 97 q 718 199 685 151 q 751 307 751 247 l 751 944 q 807 975 751 975 l 818 975 m 397 1221 q 453 1190 453 1221 l 453 1119 q 392 1089 453 1089 q 336 1119 336 1089 l 336 1190 q 397 1221 336 1221 m 597 1221 q 653 1190 653 1221 l 653 1119 q 592 1089 653 1089 q 536 1119 536 1089 l 536 1190 q 597 1221 536 1221 z "},"Ụ":{"ha":989,"x_min":115,"x_max":874,"o":"m 115 0 m 818 975 q 874 944 874 975 l 874 311 q 775 76 874 160 q 494 -8 676 -8 q 213 76 311 -8 q 115 311 115 160 l 115 944 q 171 975 115 975 l 182 975 q 238 944 238 975 l 238 307 q 271 198 238 246 q 363 124 304 150 q 494 97 421 97 q 626 124 568 97 q 718 199 685 151 q 751 307 751 247 l 751 944 q 807 975 751 975 l 818 975 m 501 -111 q 557 -142 557 -111 l 557 -212 q 496 -243 557 -243 q 440 -212 440 -243 l 440 -142 q 501 -111 440 -111 z "},"Ù":{"ha":989,"x_min":115,"x_max":874,"o":"m 115 0 m 818 975 q 874 944 874 975 l 874 311 q 775 76 874 160 q 494 -8 676 -8 q 213 76 311 -8 q 115 311 115 160 l 115 944 q 171 975 115 975 l 182 975 q 238 944 238 975 l 238 307 q 271 198 238 246 q 363 124 304 150 q 494 97 421 97 q 626 124 568 97 q 718 199 685 151 q 751 307 751 247 l 751 944 q 807 975 751 975 l 818 975 m 397 1263 q 451 1254 431 1263 q 483 1226 472 1246 q 544 1119 524 1157 q 564 1072 564 1082 q 532 1058 564 1058 q 461 1083 485 1058 l 408 1143 q 342 1220 354 1204 q 331 1244 331 1236 q 347 1258 331 1254 q 397 1263 363 1263 z "},"Ủ":{"ha":989,"x_min":115,"x_max":874,"o":"m 115 0 m 818 975 q 874 944 874 975 l 874 311 q 775 76 874 160 q 494 -8 676 -8 q 213 76 311 -8 q 115 311 115 160 l 115 944 q 171 975 115 975 l 182 975 q 238 944 238 975 l 238 307 q 271 198 238 246 q 363 124 304 150 q 494 97 421 97 q 626 124 568 97 q 718 199 685 151 q 751 307 751 247 l 751 944 q 807 975 751 975 l 818 975 m 544 1179 q 530 1207 544 1197 q 493 1217 515 1217 q 448 1208 463 1217 q 429 1199 433 1199 q 408 1216 421 1199 q 396 1244 396 1233 q 432 1273 396 1258 q 504 1288 468 1288 q 590 1264 550 1288 q 631 1189 631 1240 q 605 1111 631 1147 q 547 1051 579 1075 q 504 1028 515 1028 q 476 1035 493 1028 q 458 1051 458 1043 q 466 1072 458 1064 q 493 1097 474 1081 q 531 1135 517 1117 q 544 1179 544 1153 z "},"Ư":{"ha":989,"x_min":115,"x_max":1017,"o":"m 1017 1054 q 981 965 1017 999 q 874 929 946 932 l 874 311 q 775 76 874 160 q 494 -8 676 -8 q 213 76 311 -8 q 115 311 115 160 l 115 944 q 171 975 115 975 l 182 975 q 238 944 238 975 l 238 307 q 271 198 238 246 q 363 124 304 150 q 494 97 421 97 q 626 124 568 97 q 718 199 685 151 q 751 307 751 247 l 751 944 q 807 975 751 975 l 856 975 q 915 988 897 975 q 932 1021 932 1001 q 926 1054 933 1039 q 908 1085 919 1069 q 894 1107 896 1101 q 907 1129 894 1121 l 940 1151 q 957 1157 947 1157 q 998 1122 979 1157 q 1017 1054 1017 1088 z "},"Ứ":{"ha":989,"x_min":115,"x_max":1017,"o":"m 471 1058 q 439 1072 439 1058 q 459 1119 439 1082 q 519 1226 479 1157 q 551 1254 531 1246 q 606 1263 572 1263 q 656 1258 640 1263 q 672 1244 672 1254 q 660 1220 672 1236 q 594 1143 649 1204 l 542 1083 q 471 1058 519 1058 m 1017 1054 q 981 965 1017 999 q 874 929 946 932 l 874 311 q 775 76 874 160 q 494 -8 676 -8 q 213 76 311 -8 q 115 311 115 160 l 115 944 q 171 975 115 975 l 182 975 q 238 944 238 975 l 238 307 q 271 198 238 246 q 363 124 304 150 q 494 97 421 97 q 626 124 568 97 q 718 199 685 151 q 751 307 751 247 l 751 944 q 807 975 751 975 l 856 975 q 915 988 897 975 q 932 1021 932 1001 q 926 1054 933 1039 q 908 1085 919 1069 q 894 1107 896 1101 q 907 1129 894 1121 l 940 1151 q 957 1157 947 1157 q 998 1122 979 1157 q 1017 1054 1017 1088 z "},"Ự":{"ha":989,"x_min":115,"x_max":1017,"o":"m 1017 1054 q 981 965 1017 999 q 874 929 946 932 l 874 311 q 775 76 874 160 q 494 -8 676 -8 q 213 76 311 -8 q 115 311 115 160 l 115 944 q 171 975 115 975 l 182 975 q 238 944 238 975 l 238 307 q 271 198 238 246 q 363 124 304 150 q 494 97 421 97 q 626 124 568 97 q 718 199 685 151 q 751 307 751 247 l 751 944 q 807 975 751 975 l 856 975 q 915 988 897 975 q 932 1021 932 1001 q 926 1054 933 1039 q 908 1085 919 1069 q 894 1107 896 1101 q 907 1129 894 1121 l 940 1151 q 957 1157 947 1157 q 998 1122 979 1157 q 1017 1054 1017 1088 m 501 -111 q 557 -142 557 -111 l 557 -212 q 496 -243 557 -243 q 440 -212 440 -243 l 440 -142 q 501 -111 440 -111 z "},"Ừ":{"ha":989,"x_min":115,"x_max":1017,"o":"m 532 1058 q 461 1083 483 1058 l 408 1143 q 342 1220 354 1204 q 331 1244 331 1236 q 347 1258 331 1254 q 397 1263 363 1263 q 451 1254 431 1263 q 483 1226 472 1246 q 544 1119 524 1157 q 564 1072 564 1082 q 532 1058 564 1058 m 1017 1054 q 981 965 1017 999 q 874 929 946 932 l 874 311 q 775 76 874 160 q 494 -8 676 -8 q 213 76 311 -8 q 115 311 115 160 l 115 944 q 171 975 115 975 l 182 975 q 238 944 238 975 l 238 307 q 271 198 238 246 q 363 124 304 150 q 494 97 421 97 q 626 124 568 97 q 718 199 685 151 q 751 307 751 247 l 751 944 q 807 975 751 975 l 856 975 q 915 988 897 975 q 932 1021 932 1001 q 926 1054 933 1039 q 908 1085 919 1069 q 894 1107 896 1101 q 907 1129 894 1121 l 940 1151 q 957 1157 947 1157 q 998 1122 979 1157 q 1017 1054 1017 1088 z "},"Ử":{"ha":989,"x_min":115,"x_max":1017,"o":"m 429 1199 q 408 1216 421 1199 q 396 1244 396 1233 q 432 1273 396 1258 q 504 1288 468 1288 q 590 1264 550 1288 q 631 1189 631 1240 q 605 1111 631 1147 q 547 1051 579 1075 q 504 1028 515 1028 q 476 1035 493 1028 q 458 1051 458 1043 q 466 1072 458 1064 q 493 1097 474 1081 q 531 1135 517 1117 q 544 1179 544 1153 q 530 1207 544 1197 q 493 1217 515 1217 q 448 1208 463 1217 q 429 1199 433 1199 m 1017 1054 q 981 965 1017 999 q 874 929 946 932 l 874 311 q 775 76 874 160 q 494 -8 676 -8 q 213 76 311 -8 q 115 311 115 160 l 115 944 q 171 975 115 975 l 182 975 q 238 944 238 975 l 238 307 q 271 198 238 246 q 363 124 304 150 q 494 97 421 97 q 626 124 568 97 q 718 199 685 151 q 751 307 751 247 l 751 944 q 807 975 751 975 l 856 975 q 915 988 897 975 q 932 1021 932 1001 q 926 1054 933 1039 q 908 1085 919 1069 q 894 1107 896 1101 q 907 1129 894 1121 l 940 1151 q 957 1157 947 1157 q 998 1122 979 1157 q 1017 1054 1017 1088 z "},"Ữ":{"ha":989,"x_min":115,"x_max":1017,"o":"m 268 1074 q 254 1090 254 1079 q 258 1108 254 1099 q 312 1182 281 1160 q 386 1204 343 1204 q 444 1197 415 1204 q 521 1172 474 1189 q 584 1151 561 1158 q 628 1144 607 1144 q 661 1153 647 1144 q 689 1185 675 1163 q 717 1204 703 1204 q 731 1201 725 1204 l 742 1197 q 757 1181 757 1192 q 751 1161 757 1172 q 699 1089 729 1111 q 625 1067 668 1067 q 486 1100 575 1067 q 424 1120 447 1114 q 379 1126 400 1126 q 349 1117 361 1126 q 321 1085 336 1108 q 308 1069 313 1074 q 296 1065 303 1065 q 282 1068 288 1065 l 268 1074 m 1017 1054 q 981 965 1017 999 q 874 929 946 932 l 874 311 q 775 76 874 160 q 494 -8 676 -8 q 213 76 311 -8 q 115 311 115 160 l 115 944 q 171 975 115 975 l 182 975 q 238 944 238 975 l 238 307 q 271 198 238 246 q 363 124 304 150 q 494 97 421 97 q 626 124 568 97 q 718 199 685 151 q 751 307 751 247 l 751 944 q 807 975 751 975 l 856 975 q 915 988 897 975 q 932 1021 932 1001 q 926 1054 933 1039 q 908 1085 919 1069 q 894 1107 896 1101 q 907 1129 894 1121 l 940 1151 q 957 1157 947 1157 q 998 1122 979 1157 q 1017 1054 1017 1088 z "},"Ű":{"ha":989,"x_min":115,"x_max":874,"o":"m 115 0 m 818 975 q 874 944 874 975 l 874 311 q 775 76 874 160 q 494 -8 676 -8 q 213 76 311 -8 q 115 311 115 160 l 115 944 q 171 975 115 975 l 182 975 q 238 944 238 975 l 238 307 q 271 198 238 246 q 363 124 304 150 q 494 97 421 97 q 626 124 568 97 q 718 199 685 151 q 751 307 751 247 l 751 944 q 807 975 751 975 l 818 975 m 506 1263 q 556 1258 540 1263 q 572 1244 572 1254 q 560 1220 572 1236 q 494 1143 547 1204 l 442 1083 q 371 1058 419 1058 q 339 1072 339 1058 q 359 1119 339 1082 q 419 1226 379 1157 q 451 1254 431 1246 q 506 1263 472 1263 m 710 1263 q 760 1258 744 1263 q 776 1244 776 1254 q 765 1220 776 1236 q 699 1143 753 1204 l 646 1083 q 575 1058 624 1058 q 543 1072 543 1058 q 563 1119 543 1082 q 624 1226 583 1157 q 656 1254 635 1246 q 710 1263 676 1263 z "},"Ū":{"ha":989,"x_min":115,"x_max":874,"o":"m 115 0 m 818 975 q 874 944 874 975 l 874 311 q 775 76 874 160 q 494 -8 676 -8 q 213 76 311 -8 q 115 311 115 160 l 115 944 q 171 975 115 975 l 182 975 q 238 944 238 975 l 238 307 q 271 198 238 246 q 363 124 304 150 q 494 97 421 97 q 626 124 568 97 q 718 199 685 151 q 751 307 751 247 l 751 944 q 807 975 751 975 l 818 975 m 649 1193 q 670 1183 664 1193 q 676 1151 676 1174 l 676 1138 q 670 1106 676 1115 q 649 1096 664 1096 l 339 1096 q 318 1106 325 1096 q 311 1138 311 1115 l 311 1151 q 318 1183 311 1174 q 339 1193 325 1193 l 649 1193 z "},"Ų":{"ha":989,"x_min":115,"x_max":874,"o":"m 818 975 q 874 944 874 975 l 874 311 q 803 103 874 183 q 599 0 732 22 l 599 -1 q 592 -33 599 -12 q 582 -86 582 -69 q 607 -144 582 -131 q 668 -157 632 -157 q 703 -150 682 -157 q 740 -143 735 -143 q 767 -178 767 -143 q 738 -238 767 -222 q 653 -254 710 -254 q 522 -208 556 -254 q 489 -112 489 -162 q 517 -8 489 -44 l 494 -8 q 213 76 311 -8 q 115 311 115 160 l 115 944 q 171 975 115 975 l 182 975 q 238 944 238 975 l 238 307 q 271 198 238 246 q 363 124 304 150 q 494 97 421 97 q 626 124 568 97 q 718 199 685 151 q 751 307 751 247 l 751 944 q 807 975 751 975 l 818 975 z "},"Ů":{"ha":989,"x_min":115,"x_max":874,"o":"m 115 0 m 818 975 q 874 944 874 975 l 874 311 q 775 76 874 160 q 494 -8 676 -8 q 213 76 311 -8 q 115 311 115 160 l 115 944 q 171 975 115 975 l 182 975 q 238 944 238 975 l 238 307 q 271 198 238 246 q 363 124 304 150 q 494 97 421 97 q 626 124 568 97 q 718 199 685 151 q 751 307 751 247 l 751 944 q 807 975 751 975 l 818 975 m 493 1264 q 576 1229 542 1264 q 611 1146 611 1194 q 576 1063 611 1097 q 493 1029 542 1029 q 410 1063 444 1029 q 376 1146 376 1097 q 410 1229 376 1194 q 493 1264 444 1264 m 493 1215 q 444 1195 464 1215 q 425 1146 425 1175 q 444 1097 425 1117 q 493 1078 464 1078 q 542 1097 522 1078 q 563 1146 563 1117 q 542 1195 563 1175 q 493 1215 522 1215 z "},"Ũ":{"ha":989,"x_min":115,"x_max":874,"o":"m 115 0 m 818 975 q 874 944 874 975 l 874 311 q 775 76 874 160 q 494 -8 676 -8 q 213 76 311 -8 q 115 311 115 160 l 115 944 q 171 975 115 975 l 182 975 q 238 944 238 975 l 238 307 q 271 198 238 246 q 363 124 304 150 q 494 97 421 97 q 626 124 568 97 q 718 199 685 151 q 751 307 751 247 l 751 944 q 807 975 751 975 l 818 975 m 386 1204 q 444 1197 415 1204 q 521 1172 474 1189 q 584 1151 561 1158 q 628 1144 607 1144 q 661 1153 647 1144 q 689 1185 675 1163 q 717 1204 703 1204 q 731 1201 725 1204 l 742 1197 q 757 1181 757 1192 q 751 1161 757 1172 q 699 1089 729 1111 q 625 1067 668 1067 q 486 1100 575 1067 q 424 1120 447 1114 q 379 1126 400 1126 q 349 1117 361 1126 q 321 1085 336 1108 q 308 1069 313 1074 q 296 1065 303 1065 q 282 1068 288 1065 l 268 1074 q 254 1090 254 1079 q 258 1108 254 1099 q 312 1182 281 1160 q 386 1204 343 1204 z "},"V":{"ha":857,"x_min":29,"x_max":828,"o":"m 768 975 q 828 951 828 975 q 824 932 828 944 l 506 19 q 450 -3 499 -3 l 407 -3 q 351 19 358 -3 l 33 933 q 29 951 29 944 q 89 975 29 975 l 101 975 q 157 953 150 975 l 414 211 l 428 139 l 432 139 l 447 213 l 704 953 q 760 975 711 975 l 768 975 z "},"W":{"ha":1225,"x_min":21,"x_max":1204,"o":"m 1144 975 q 1204 951 1204 975 l 1200 932 l 960 19 q 904 -3 954 -3 l 847 -3 q 792 19 797 -3 l 640 585 l 611 765 l 582 585 l 431 19 q 375 -3 425 -3 l 318 -3 q 263 19 268 -3 l 25 932 q 21 951 21 949 q 81 975 21 975 l 94 975 q 150 953 144 975 l 326 269 q 342 195 333 243 q 351 140 350 147 l 385 274 l 553 951 q 607 975 558 975 l 629 975 q 683 951 678 975 l 856 268 q 871 195 864 238 q 879 140 878 153 l 913 272 l 1081 953 q 1136 975 1086 975 l 1144 975 z "},"Ẃ":{"ha":1225,"x_min":21,"x_max":1204,"o":"m 21 0 m 1144 975 q 1204 951 1204 975 l 1200 932 l 960 19 q 904 -3 954 -3 l 847 -3 q 792 19 797 -3 l 640 585 l 611 765 l 582 585 l 431 19 q 375 -3 425 -3 l 318 -3 q 263 19 268 -3 l 25 932 q 21 951 21 949 q 81 975 21 975 l 94 975 q 150 953 144 975 l 326 269 q 342 195 333 243 q 351 140 350 147 l 385 274 l 553 951 q 607 975 558 975 l 629 975 q 683 951 678 975 l 856 268 q 871 195 864 238 q 879 140 878 153 l 913 272 l 1081 953 q 1136 975 1086 975 l 1144 975 m 724 1263 q 774 1258 758 1263 q 790 1244 790 1254 q 778 1220 790 1236 q 713 1143 767 1204 l 660 1083 q 589 1058 638 1058 q 557 1072 557 1058 q 577 1119 557 1082 q 638 1226 597 1157 q 669 1254 649 1246 q 724 1263 690 1263 z "},"Ŵ":{"ha":1225,"x_min":21,"x_max":1204,"o":"m 21 0 m 1144 975 q 1204 951 1204 975 l 1200 932 l 960 19 q 904 -3 954 -3 l 847 -3 q 792 19 797 -3 l 640 585 l 611 765 l 582 585 l 431 19 q 375 -3 425 -3 l 318 -3 q 263 19 268 -3 l 25 932 q 21 951 21 949 q 81 975 21 975 l 94 975 q 150 953 144 975 l 326 269 q 342 195 333 243 q 351 140 350 147 l 385 274 l 553 951 q 607 975 558 975 l 629 975 q 683 951 678 975 l 856 268 q 871 195 864 238 q 879 140 878 153 l 913 272 l 1081 953 q 1136 975 1086 975 l 1144 975 m 629 1243 q 693 1213 672 1243 l 772 1090 q 781 1067 781 1078 q 747 1046 781 1046 l 744 1046 q 699 1064 718 1046 l 611 1167 l 526 1064 q 479 1046 507 1046 l 476 1046 q 444 1065 444 1046 q 453 1090 444 1076 l 531 1213 q 594 1243 551 1243 l 629 1243 z "},"Ẅ":{"ha":1225,"x_min":21,"x_max":1204,"o":"m 21 0 m 1144 975 q 1204 951 1204 975 l 1200 932 l 960 19 q 904 -3 954 -3 l 847 -3 q 792 19 797 -3 l 640 585 l 611 765 l 582 585 l 431 19 q 375 -3 425 -3 l 318 -3 q 263 19 268 -3 l 25 932 q 21 951 21 949 q 81 975 21 975 l 94 975 q 150 953 144 975 l 326 269 q 342 195 333 243 q 351 140 350 147 l 385 274 l 553 951 q 607 975 558 975 l 629 975 q 683 951 678 975 l 856 268 q 871 195 864 238 q 879 140 878 153 l 913 272 l 1081 953 q 1136 975 1086 975 l 1144 975 m 515 1221 q 571 1190 571 1221 l 571 1119 q 510 1089 571 1089 q 454 1119 454 1089 l 454 1190 q 515 1221 454 1221 m 715 1221 q 771 1190 771 1221 l 771 1119 q 710 1089 771 1089 q 654 1119 654 1089 l 654 1190 q 715 1221 654 1221 z "},"Ẁ":{"ha":1225,"x_min":21,"x_max":1204,"o":"m 21 0 m 1144 975 q 1204 951 1204 975 l 1200 932 l 960 19 q 904 -3 954 -3 l 847 -3 q 792 19 797 -3 l 640 585 l 611 765 l 582 585 l 431 19 q 375 -3 425 -3 l 318 -3 q 263 19 268 -3 l 25 932 q 21 951 21 949 q 81 975 21 975 l 94 975 q 150 953 144 975 l 326 269 q 342 195 333 243 q 351 140 350 147 l 385 274 l 553 951 q 607 975 558 975 l 629 975 q 683 951 678 975 l 856 268 q 871 195 864 238 q 879 140 878 153 l 913 272 l 1081 953 q 1136 975 1086 975 l 1144 975 m 515 1263 q 569 1254 549 1263 q 601 1226 590 1246 q 662 1119 642 1157 q 682 1072 682 1082 q 650 1058 682 1058 q 579 1083 603 1058 l 526 1143 q 460 1220 472 1204 q 449 1244 449 1236 q 465 1258 449 1254 q 515 1263 481 1263 z "},"X":{"ha":849,"x_min":28,"x_max":822,"o":"m 724 975 q 773 969 758 975 q 788 951 788 964 q 776 926 788 946 l 499 514 l 811 46 q 822 21 822 31 q 758 -3 822 -3 l 736 -3 q 699 1 713 -3 q 676 18 685 6 l 421 400 l 163 17 q 103 -3 150 -3 l 92 -3 q 42 3 57 -3 q 28 21 28 8 q 39 46 28 31 l 350 507 l 72 926 q 61 951 61 942 q 125 975 61 975 l 144 975 q 182 971 168 975 q 204 954 196 967 l 426 619 l 656 956 q 715 975 668 975 l 724 975 z "},"Y":{"ha":776,"x_min":25,"x_max":751,"o":"m 697 975 q 739 968 726 974 q 751 951 751 963 q 740 926 751 946 l 449 494 l 449 28 q 393 -3 449 -3 l 382 -3 q 326 28 326 -3 l 326 499 l 36 926 q 25 951 25 942 q 89 975 25 975 l 104 975 q 142 971 128 975 q 164 954 156 967 l 392 613 l 625 956 q 688 975 638 975 l 697 975 z "},"Ý":{"ha":776,"x_min":25,"x_max":751,"o":"m 25 0 m 697 975 q 739 968 726 974 q 751 951 751 963 q 740 926 751 946 l 449 494 l 449 28 q 393 -3 449 -3 l 382 -3 q 326 28 326 -3 l 326 499 l 36 926 q 25 951 25 942 q 89 975 25 975 l 104 975 q 142 971 128 975 q 164 954 156 967 l 392 613 l 625 956 q 688 975 638 975 l 697 975 m 500 1263 q 551 1258 535 1263 q 567 1244 567 1254 q 555 1220 567 1236 q 489 1143 543 1204 l 436 1083 q 365 1058 414 1058 q 333 1072 333 1058 q 353 1119 333 1082 q 414 1226 374 1157 q 446 1254 425 1246 q 500 1263 467 1263 z "},"Ŷ":{"ha":776,"x_min":25,"x_max":751,"o":"m 25 0 m 697 975 q 739 968 726 974 q 751 951 751 963 q 740 926 751 946 l 449 494 l 449 28 q 393 -3 449 -3 l 382 -3 q 326 28 326 -3 l 326 499 l 36 926 q 25 951 25 942 q 89 975 25 975 l 104 975 q 142 971 128 975 q 164 954 156 967 l 392 613 l 625 956 q 688 975 638 975 l 697 975 m 406 1243 q 469 1213 449 1243 l 549 1090 q 557 1067 557 1078 q 524 1046 557 1046 l 521 1046 q 475 1064 494 1046 l 388 1167 l 303 1064 q 256 1046 283 1046 l 253 1046 q 221 1065 221 1046 q 229 1090 221 1076 l 307 1213 q 371 1243 328 1243 l 406 1243 z "},"Ÿ":{"ha":776,"x_min":25,"x_max":751,"o":"m 25 0 m 697 975 q 739 968 726 974 q 751 951 751 963 q 740 926 751 946 l 449 494 l 449 28 q 393 -3 449 -3 l 382 -3 q 326 28 326 -3 l 326 499 l 36 926 q 25 951 25 942 q 89 975 25 975 l 104 975 q 142 971 128 975 q 164 954 156 967 l 392 613 l 625 956 q 688 975 638 975 l 697 975 m 292 1221 q 347 1190 347 1221 l 347 1119 q 286 1089 347 1089 q 231 1119 231 1089 l 231 1190 q 292 1221 231 1221 m 492 1221 q 547 1190 547 1221 l 547 1119 q 486 1089 547 1089 q 431 1119 431 1089 l 431 1190 q 492 1221 431 1221 z "},"Ỵ":{"ha":776,"x_min":25,"x_max":751,"o":"m 25 0 m 697 975 q 739 968 726 974 q 751 951 751 963 q 740 926 751 946 l 449 494 l 449 28 q 393 -3 449 -3 l 382 -3 q 326 28 326 -3 l 326 499 l 36 926 q 25 951 25 942 q 89 975 25 975 l 104 975 q 142 971 128 975 q 164 954 156 967 l 392 613 l 625 956 q 688 975 638 975 l 697 975 m 393 -111 q 449 -142 449 -111 l 449 -212 q 388 -243 449 -243 q 332 -212 332 -243 l 332 -142 q 393 -111 332 -111 z "},"Ỳ":{"ha":776,"x_min":25,"x_max":751,"o":"m 25 0 m 697 975 q 739 968 726 974 q 751 951 751 963 q 740 926 751 946 l 449 494 l 449 28 q 393 -3 449 -3 l 382 -3 q 326 28 326 -3 l 326 499 l 36 926 q 25 951 25 942 q 89 975 25 975 l 104 975 q 142 971 128 975 q 164 954 156 967 l 392 613 l 625 956 q 688 975 638 975 l 697 975 m 292 1263 q 346 1254 325 1263 q 378 1226 367 1246 q 438 1119 418 1157 q 458 1072 458 1082 q 426 1058 458 1058 q 356 1083 379 1058 l 303 1143 q 237 1220 249 1204 q 225 1244 225 1236 q 241 1258 225 1254 q 292 1263 257 1263 z "},"Ỷ":{"ha":776,"x_min":25,"x_max":751,"o":"m 25 0 m 697 975 q 739 968 726 974 q 751 951 751 963 q 740 926 751 946 l 449 494 l 449 28 q 393 -3 449 -3 l 382 -3 q 326 28 326 -3 l 326 499 l 36 926 q 25 951 25 942 q 89 975 25 975 l 104 975 q 142 971 128 975 q 164 954 156 967 l 392 613 l 625 956 q 688 975 638 975 l 697 975 m 439 1179 q 424 1207 439 1197 q 388 1217 410 1217 q 342 1208 357 1217 q 324 1199 328 1199 q 303 1216 315 1199 q 290 1244 290 1233 q 326 1273 290 1258 q 399 1288 363 1288 q 485 1264 444 1288 q 525 1189 525 1240 q 499 1111 525 1147 q 442 1051 474 1075 q 399 1028 410 1028 q 370 1035 388 1028 q 353 1051 353 1043 q 360 1072 353 1064 q 388 1097 368 1081 q 425 1135 411 1117 q 439 1179 439 1153 z "},"Ỹ":{"ha":776,"x_min":25,"x_max":751,"o":"m 25 0 m 697 975 q 739 968 726 974 q 751 951 751 963 q 740 926 751 946 l 449 494 l 449 28 q 393 -3 449 -3 l 382 -3 q 326 28 326 -3 l 326 499 l 36 926 q 25 951 25 942 q 89 975 25 975 l 104 975 q 142 971 128 975 q 164 954 156 967 l 392 613 l 625 956 q 688 975 638 975 l 697 975 m 281 1204 q 339 1197 310 1204 q 415 1172 368 1189 q 478 1151 456 1158 q 522 1144 501 1144 q 556 1153 542 1144 q 583 1185 569 1163 q 611 1204 597 1204 q 625 1201 619 1204 l 636 1197 q 651 1181 651 1192 q 646 1161 651 1172 q 593 1089 624 1111 q 519 1067 563 1067 q 381 1100 469 1067 q 318 1120 342 1114 q 274 1126 294 1126 q 243 1117 256 1126 q 215 1085 231 1108 q 202 1069 207 1074 q 190 1065 197 1065 q 176 1068 182 1065 l 163 1074 q 149 1090 149 1079 q 153 1108 149 1099 q 206 1182 175 1160 q 281 1204 238 1204 z "},"Z":{"ha":856,"x_min":53,"x_max":793,"o":"m 763 972 q 782 946 771 972 q 793 899 793 919 q 789 882 793 889 l 219 106 l 763 106 q 784 94 778 106 q 790 58 790 83 l 790 47 q 784 11 790 22 q 763 0 778 0 l 86 0 q 65 26 76 0 q 53 74 53 53 q 57 90 53 85 l 626 867 l 126 867 q 105 878 111 867 q 99 914 99 889 l 99 925 q 105 961 99 950 q 126 972 111 972 l 763 972 z "},"Ź":{"ha":856,"x_min":53,"x_max":793,"o":"m 53 0 m 763 972 q 782 946 771 972 q 793 899 793 919 q 789 882 793 889 l 219 106 l 763 106 q 784 94 778 106 q 790 58 790 83 l 790 47 q 784 11 790 22 q 763 0 778 0 l 86 0 q 65 26 76 0 q 53 74 53 53 q 57 90 53 85 l 626 867 l 126 867 q 105 878 111 867 q 99 914 99 889 l 99 925 q 105 961 99 950 q 126 972 111 972 l 763 972 m 539 1263 q 590 1258 574 1263 q 606 1244 606 1254 q 594 1220 606 1236 q 528 1143 582 1204 l 475 1083 q 404 1058 453 1058 q 372 1072 372 1058 q 392 1119 372 1082 q 453 1226 413 1157 q 485 1254 464 1246 q 539 1263 506 1263 z "},"Ž":{"ha":856,"x_min":53,"x_max":793,"o":"m 53 0 m 763 972 q 782 946 771 972 q 793 899 793 919 q 789 882 793 889 l 219 106 l 763 106 q 784 94 778 106 q 790 58 790 83 l 790 47 q 784 11 790 22 q 763 0 778 0 l 86 0 q 65 26 76 0 q 53 74 53 53 q 57 90 53 85 l 626 867 l 126 867 q 105 878 111 867 q 99 914 99 889 l 99 925 q 105 961 99 950 q 126 972 111 972 l 763 972 m 563 1251 q 596 1231 596 1251 q 588 1207 596 1219 l 508 1085 q 444 1054 488 1054 l 410 1054 q 346 1085 367 1054 l 268 1207 q 260 1232 260 1222 q 292 1251 260 1251 l 294 1251 q 342 1233 322 1251 l 426 1131 l 514 1233 q 560 1251 533 1251 l 563 1251 z "},"Ż":{"ha":856,"x_min":53,"x_max":793,"o":"m 53 0 m 763 972 q 782 946 771 972 q 793 899 793 919 q 789 882 793 889 l 219 106 l 763 106 q 784 94 778 106 q 790 58 790 83 l 790 47 q 784 11 790 22 q 763 0 778 0 l 86 0 q 65 26 76 0 q 53 74 53 53 q 57 90 53 85 l 626 867 l 126 867 q 105 878 111 867 q 99 914 99 889 l 99 925 q 105 961 99 950 q 126 972 111 972 l 763 972 m 431 1221 q 486 1190 486 1221 l 486 1119 q 425 1089 486 1089 q 369 1119 369 1089 l 369 1190 q 431 1221 369 1221 z "},"Ẓ":{"ha":856,"x_min":53,"x_max":793,"o":"m 53 0 m 763 972 q 782 946 771 972 q 793 899 793 919 q 789 882 793 889 l 219 106 l 763 106 q 784 94 778 106 q 790 58 790 83 l 790 47 q 784 11 790 22 q 763 0 778 0 l 86 0 q 65 26 76 0 q 53 74 53 53 q 57 90 53 85 l 626 867 l 126 867 q 105 878 111 867 q 99 914 99 889 l 99 925 q 105 961 99 950 q 126 972 111 972 l 763 972 m 447 -111 q 503 -142 503 -111 l 503 -212 q 442 -243 503 -243 q 386 -212 386 -243 l 386 -142 q 447 -111 386 -111 z "},"a":{"ha":757,"x_min":68,"x_max":663,"o":"m 372 735 q 574 677 501 735 q 646 517 646 619 l 646 206 q 654 74 646 114 q 663 31 663 35 q 636 6 663 14 q 588 -1 610 -1 q 559 20 568 -1 q 545 65 550 42 q 539 96 540 89 q 306 -8 444 -8 q 133 44 199 -8 q 68 200 68 97 q 134 365 68 310 q 296 435 200 419 q 529 453 392 451 l 529 518 q 493 602 529 569 q 376 635 457 635 q 269 620 315 635 q 193 591 224 606 q 160 576 163 576 q 128 604 146 576 q 111 646 111 632 q 148 685 111 664 q 246 720 185 706 q 372 735 307 735 m 529 353 q 359 344 425 351 q 243 306 293 338 q 193 207 193 274 q 223 122 193 151 q 311 93 253 93 q 428 118 379 93 q 529 189 478 143 l 529 353 z "},"á":{"ha":757,"x_min":68,"x_max":663,"o":"m 68 0 m 372 735 q 574 677 501 735 q 646 517 646 619 l 646 206 q 654 74 646 114 q 663 31 663 35 q 636 6 663 14 q 588 -1 610 -1 q 559 20 568 -1 q 545 65 550 42 q 539 96 540 89 q 306 -8 444 -8 q 133 44 199 -8 q 68 200 68 97 q 134 365 68 310 q 296 435 200 419 q 529 453 392 451 l 529 518 q 493 602 529 569 q 376 635 457 635 q 269 620 315 635 q 193 591 224 606 q 160 576 163 576 q 128 604 146 576 q 111 646 111 632 q 148 685 111 664 q 246 720 185 706 q 372 735 307 735 m 529 353 q 359 344 425 351 q 243 306 293 338 q 193 207 193 274 q 223 122 193 151 q 311 93 253 93 q 428 118 379 93 q 529 189 478 143 l 529 353 m 490 1017 q 541 1013 525 1017 q 557 999 557 1008 q 545 974 557 990 q 479 897 533 958 l 426 838 q 356 813 404 813 q 324 826 324 813 q 344 874 324 836 q 404 981 364 911 q 436 1008 415 1000 q 490 1017 457 1017 z "},"ă":{"ha":757,"x_min":68,"x_max":663,"o":"m 68 0 m 372 735 q 574 677 501 735 q 646 517 646 619 l 646 206 q 654 74 646 114 q 663 31 663 35 q 636 6 663 14 q 588 -1 610 -1 q 559 20 568 -1 q 545 65 550 42 q 539 96 540 89 q 306 -8 444 -8 q 133 44 199 -8 q 68 200 68 97 q 134 365 68 310 q 296 435 200 419 q 529 453 392 451 l 529 518 q 493 602 529 569 q 376 635 457 635 q 269 620 315 635 q 193 591 224 606 q 160 576 163 576 q 128 604 146 576 q 111 646 111 632 q 148 685 111 664 q 246 720 185 706 q 372 735 307 735 m 529 353 q 359 344 425 351 q 243 306 293 338 q 193 207 193 274 q 223 122 193 151 q 311 93 253 93 q 428 118 379 93 q 529 189 478 143 l 529 353 m 558 993 q 579 972 579 993 q 519 855 579 897 q 379 813 460 813 q 238 855 297 813 q 178 972 178 897 q 199 993 178 993 q 215 989 211 993 q 222 976 219 985 q 229 958 225 967 q 285 917 244 931 q 379 904 325 904 q 473 917 433 904 q 528 958 513 931 q 535 976 532 967 q 543 990 539 986 q 558 993 547 993 z "},"ắ":{"ha":757,"x_min":68,"x_max":663,"o":"m 68 0 m 372 735 q 574 677 501 735 q 646 517 646 619 l 646 206 q 654 74 646 114 q 663 31 663 35 q 636 6 663 14 q 588 -1 610 -1 q 559 20 568 -1 q 545 65 550 42 q 539 96 540 89 q 306 -8 444 -8 q 133 44 199 -8 q 68 200 68 97 q 134 365 68 310 q 296 435 200 419 q 529 453 392 451 l 529 518 q 493 602 529 569 q 376 635 457 635 q 269 620 315 635 q 193 591 224 606 q 160 576 163 576 q 128 604 146 576 q 111 646 111 632 q 148 685 111 664 q 246 720 185 706 q 372 735 307 735 m 529 353 q 359 344 425 351 q 243 306 293 338 q 193 207 193 274 q 223 122 193 151 q 311 93 253 93 q 428 118 379 93 q 529 189 478 143 l 529 353 m 558 993 q 579 972 579 993 q 519 855 579 897 q 379 813 460 813 q 238 855 297 813 q 178 972 178 897 q 199 993 178 993 q 215 989 211 993 q 222 976 219 985 q 229 958 225 967 q 285 917 244 931 q 379 904 325 904 q 473 917 433 904 q 528 958 513 931 q 535 976 532 967 q 543 990 539 986 q 558 993 547 993 m 490 1222 q 541 1218 525 1222 q 557 1204 557 1214 q 545 1180 557 1196 q 479 1103 533 1164 l 426 1043 q 356 1018 404 1018 q 324 1032 324 1018 q 344 1079 324 1042 q 404 1186 364 1117 q 436 1214 415 1206 q 490 1222 457 1222 z "},"ặ":{"ha":757,"x_min":68,"x_max":663,"o":"m 68 0 m 372 735 q 574 677 501 735 q 646 517 646 619 l 646 206 q 654 74 646 114 q 663 31 663 35 q 636 6 663 14 q 588 -1 610 -1 q 559 20 568 -1 q 545 65 550 42 q 539 96 540 89 q 306 -8 444 -8 q 133 44 199 -8 q 68 200 68 97 q 134 365 68 310 q 296 435 200 419 q 529 453 392 451 l 529 518 q 493 602 529 569 q 376 635 457 635 q 269 620 315 635 q 193 591 224 606 q 160 576 163 576 q 128 604 146 576 q 111 646 111 632 q 148 685 111 664 q 246 720 185 706 q 372 735 307 735 m 529 353 q 359 344 425 351 q 243 306 293 338 q 193 207 193 274 q 223 122 193 151 q 311 93 253 93 q 428 118 379 93 q 529 189 478 143 l 529 353 m 558 993 q 579 972 579 993 q 519 855 579 897 q 379 813 460 813 q 238 855 297 813 q 178 972 178 897 q 199 993 178 993 q 215 989 211 993 q 222 976 219 985 q 229 958 225 967 q 285 917 244 931 q 379 904 325 904 q 473 917 433 904 q 528 958 513 931 q 535 976 532 967 q 543 990 539 986 q 558 993 547 993 m 368 -111 q 424 -142 424 -111 l 424 -212 q 363 -243 424 -243 q 307 -212 307 -243 l 307 -142 q 368 -111 307 -111 z "},"ằ":{"ha":757,"x_min":68,"x_max":663,"o":"m 68 0 m 372 735 q 574 677 501 735 q 646 517 646 619 l 646 206 q 654 74 646 114 q 663 31 663 35 q 636 6 663 14 q 588 -1 610 -1 q 559 20 568 -1 q 545 65 550 42 q 539 96 540 89 q 306 -8 444 -8 q 133 44 199 -8 q 68 200 68 97 q 134 365 68 310 q 296 435 200 419 q 529 453 392 451 l 529 518 q 493 602 529 569 q 376 635 457 635 q 269 620 315 635 q 193 591 224 606 q 160 576 163 576 q 128 604 146 576 q 111 646 111 632 q 148 685 111 664 q 246 720 185 706 q 372 735 307 735 m 529 353 q 359 344 425 351 q 243 306 293 338 q 193 207 193 274 q 223 122 193 151 q 311 93 253 93 q 428 118 379 93 q 529 189 478 143 l 529 353 m 558 993 q 579 972 579 993 q 519 855 579 897 q 379 813 460 813 q 238 855 297 813 q 178 972 178 897 q 199 993 178 993 q 215 989 211 993 q 222 976 219 985 q 229 958 225 967 q 285 917 244 931 q 379 904 325 904 q 473 917 433 904 q 528 958 513 931 q 535 976 532 967 q 543 990 539 986 q 558 993 547 993 m 282 1222 q 336 1214 315 1222 q 368 1186 357 1206 q 428 1079 408 1117 q 449 1032 449 1042 q 417 1018 449 1018 q 346 1043 369 1018 l 293 1103 q 227 1180 239 1164 q 215 1204 215 1196 q 231 1218 215 1214 q 282 1222 247 1222 z "},"ẳ":{"ha":757,"x_min":68,"x_max":663,"o":"m 68 0 m 372 735 q 574 677 501 735 q 646 517 646 619 l 646 206 q 654 74 646 114 q 663 31 663 35 q 636 6 663 14 q 588 -1 610 -1 q 559 20 568 -1 q 545 65 550 42 q 539 96 540 89 q 306 -8 444 -8 q 133 44 199 -8 q 68 200 68 97 q 134 365 68 310 q 296 435 200 419 q 529 453 392 451 l 529 518 q 493 602 529 569 q 376 635 457 635 q 269 620 315 635 q 193 591 224 606 q 160 576 163 576 q 128 604 146 576 q 111 646 111 632 q 148 685 111 664 q 246 720 185 706 q 372 735 307 735 m 529 353 q 359 344 425 351 q 243 306 293 338 q 193 207 193 274 q 223 122 193 151 q 311 93 253 93 q 428 118 379 93 q 529 189 478 143 l 529 353 m 558 993 q 579 972 579 993 q 519 855 579 897 q 379 813 460 813 q 238 855 297 813 q 178 972 178 897 q 199 993 178 993 q 215 989 211 993 q 222 976 219 985 q 229 958 225 967 q 285 917 244 931 q 379 904 325 904 q 473 917 433 904 q 528 958 513 931 q 535 976 532 967 q 543 990 539 986 q 558 993 547 993 m 429 1139 q 415 1167 429 1157 q 378 1176 400 1176 q 333 1167 347 1176 q 314 1158 318 1158 q 293 1176 306 1158 q 281 1204 281 1193 q 317 1233 281 1218 q 389 1247 353 1247 q 475 1224 435 1247 q 515 1149 515 1200 q 490 1071 515 1107 q 432 1011 464 1035 q 389 988 400 988 q 360 995 378 988 q 343 1011 343 1003 q 351 1032 343 1024 q 378 1057 358 1040 q 415 1094 401 1076 q 429 1139 429 1113 z "},"ẵ":{"ha":757,"x_min":68,"x_max":663,"o":"m 281 1231 q 332 1223 306 1231 q 401 1199 358 1215 q 455 1179 428 1188 q 500 1171 482 1171 q 529 1180 517 1171 q 556 1211 542 1189 q 581 1231 567 1231 q 593 1228 589 1231 l 603 1224 q 618 1207 618 1217 q 613 1188 618 1204 q 564 1115 592 1138 q 497 1093 536 1093 q 440 1101 469 1093 q 371 1126 411 1110 q 314 1147 336 1140 q 274 1153 292 1153 q 247 1144 258 1153 q 221 1111 235 1135 q 199 1092 210 1092 q 185 1094 190 1092 l 172 1100 q 160 1117 160 1106 q 164 1135 160 1125 q 213 1208 185 1186 q 281 1231 240 1231 m 560 993 q 581 972 581 993 q 521 855 581 897 q 381 813 461 813 q 239 855 299 813 q 179 972 179 897 q 200 993 179 993 q 217 989 213 993 q 224 976 221 985 q 231 958 226 967 q 286 917 246 931 q 381 904 326 904 q 474 917 435 904 q 529 958 514 931 q 537 976 533 967 q 544 990 540 986 q 560 993 549 993 m 372 735 q 574 677 501 735 q 646 517 646 619 l 646 206 q 654 74 646 114 q 663 31 663 35 q 636 6 663 14 q 588 -1 610 -1 q 559 20 568 -1 q 545 65 550 42 q 539 96 540 89 q 306 -8 444 -8 q 133 44 199 -8 q 68 200 68 97 q 134 365 68 310 q 296 435 200 419 q 529 453 392 451 l 529 518 q 493 602 529 569 q 376 635 457 635 q 269 620 315 635 q 193 591 224 606 q 160 576 163 576 q 128 604 146 576 q 111 646 111 632 q 148 685 111 664 q 246 720 185 706 q 372 735 307 735 m 529 353 q 359 344 425 351 q 243 306 293 338 q 193 207 193 274 q 223 122 193 151 q 311 93 253 93 q 428 118 379 93 q 529 189 478 143 l 529 353 z "},"â":{"ha":757,"x_min":68,"x_max":663,"o":"m 68 0 m 372 735 q 574 677 501 735 q 646 517 646 619 l 646 206 q 654 74 646 114 q 663 31 663 35 q 636 6 663 14 q 588 -1 610 -1 q 559 20 568 -1 q 545 65 550 42 q 539 96 540 89 q 306 -8 444 -8 q 133 44 199 -8 q 68 200 68 97 q 134 365 68 310 q 296 435 200 419 q 529 453 392 451 l 529 518 q 493 602 529 569 q 376 635 457 635 q 269 620 315 635 q 193 591 224 606 q 160 576 163 576 q 128 604 146 576 q 111 646 111 632 q 148 685 111 664 q 246 720 185 706 q 372 735 307 735 m 529 353 q 359 344 425 351 q 243 306 293 338 q 193 207 193 274 q 223 122 193 151 q 311 93 253 93 q 428 118 379 93 q 529 189 478 143 l 529 353 m 396 997 q 460 967 439 997 l 539 844 q 547 821 547 832 q 514 800 547 800 l 511 800 q 465 818 485 800 l 378 921 l 293 818 q 246 800 274 800 l 243 800 q 211 819 211 800 q 219 844 211 831 l 297 967 q 361 997 318 997 l 396 997 z "},"ấ":{"ha":757,"x_min":68,"x_max":753,"o":"m 686 1196 q 737 1192 721 1196 q 753 1178 753 1188 q 740 1153 753 1169 q 675 1076 728 1138 l 622 1017 q 551 992 600 992 q 519 1006 519 992 q 540 1053 519 1015 q 600 1160 560 1090 q 632 1188 611 1179 q 686 1196 653 1196 m 401 997 q 451 967 432 997 l 524 844 q 532 821 532 832 q 499 800 532 800 l 496 800 q 450 818 463 800 l 383 921 l 299 818 q 251 800 279 800 l 249 800 q 217 819 217 800 q 225 844 217 831 l 303 967 q 367 997 324 997 l 401 997 m 372 735 q 574 677 501 735 q 646 517 646 619 l 646 206 q 654 74 646 114 q 663 31 663 35 q 636 6 663 14 q 588 -1 610 -1 q 559 20 568 -1 q 545 65 550 42 q 539 96 540 89 q 306 -8 444 -8 q 133 44 199 -8 q 68 200 68 97 q 134 365 68 310 q 296 435 200 419 q 529 453 392 451 l 529 518 q 493 602 529 569 q 376 635 457 635 q 269 620 315 635 q 193 591 224 606 q 160 576 163 576 q 128 604 146 576 q 111 646 111 632 q 148 685 111 664 q 246 720 185 706 q 372 735 307 735 m 529 353 q 359 344 425 351 q 243 306 293 338 q 193 207 193 274 q 223 122 193 151 q 311 93 253 93 q 428 118 379 93 q 529 189 478 143 l 529 353 z "},"ậ":{"ha":757,"x_min":68,"x_max":663,"o":"m 68 0 m 372 735 q 574 677 501 735 q 646 517 646 619 l 646 206 q 654 74 646 114 q 663 31 663 35 q 636 6 663 14 q 588 -1 610 -1 q 559 20 568 -1 q 545 65 550 42 q 539 96 540 89 q 306 -8 444 -8 q 133 44 199 -8 q 68 200 68 97 q 134 365 68 310 q 296 435 200 419 q 529 453 392 451 l 529 518 q 493 602 529 569 q 376 635 457 635 q 269 620 315 635 q 193 591 224 606 q 160 576 163 576 q 128 604 146 576 q 111 646 111 632 q 148 685 111 664 q 246 720 185 706 q 372 735 307 735 m 529 353 q 359 344 425 351 q 243 306 293 338 q 193 207 193 274 q 223 122 193 151 q 311 93 253 93 q 428 118 379 93 q 529 189 478 143 l 529 353 m 396 997 q 460 967 439 997 l 539 844 q 547 821 547 832 q 514 800 547 800 l 511 800 q 465 818 485 800 l 378 921 l 293 818 q 246 800 274 800 l 243 800 q 211 819 211 800 q 219 844 211 831 l 297 967 q 361 997 318 997 l 396 997 m 368 -111 q 424 -142 424 -111 l 424 -212 q 363 -243 424 -243 q 307 -212 307 -243 l 307 -142 q 368 -111 307 -111 z "},"ầ":{"ha":757,"x_min":68,"x_max":663,"o":"m 478 1196 q 532 1188 511 1196 q 564 1160 553 1179 q 624 1053 604 1090 q 644 1006 644 1015 q 613 992 644 992 q 542 1017 565 992 l 489 1076 q 424 1153 436 1138 q 411 1178 411 1169 q 427 1192 411 1188 q 478 1196 443 1196 m 401 997 q 451 967 432 997 l 524 844 q 532 821 532 832 q 499 800 532 800 l 496 800 q 450 818 463 800 l 383 921 l 299 818 q 251 800 279 800 l 249 800 q 217 819 217 800 q 225 844 217 831 l 303 967 q 367 997 324 997 l 401 997 m 372 735 q 574 677 501 735 q 646 517 646 619 l 646 206 q 654 74 646 114 q 663 31 663 35 q 636 6 663 14 q 588 -1 610 -1 q 559 20 568 -1 q 545 65 550 42 q 539 96 540 89 q 306 -8 444 -8 q 133 44 199 -8 q 68 200 68 97 q 134 365 68 310 q 296 435 200 419 q 529 453 392 451 l 529 518 q 493 602 529 569 q 376 635 457 635 q 269 620 315 635 q 193 591 224 606 q 160 576 163 576 q 128 604 146 576 q 111 646 111 632 q 148 685 111 664 q 246 720 185 706 q 372 735 307 735 m 529 353 q 359 344 425 351 q 243 306 293 338 q 193 207 193 274 q 223 122 193 151 q 311 93 253 93 q 428 118 379 93 q 529 189 478 143 l 529 353 z "},"ẩ":{"ha":757,"x_min":68,"x_max":711,"o":"m 625 1113 q 610 1140 625 1131 q 574 1150 596 1150 q 528 1141 543 1150 q 510 1132 514 1132 q 489 1149 501 1132 q 476 1178 476 1167 q 513 1206 476 1192 q 585 1221 549 1221 q 671 1197 631 1221 q 711 1122 711 1174 q 685 1044 711 1081 q 628 985 660 1008 q 585 961 596 961 q 556 969 574 961 q 539 985 539 976 q 547 1006 539 997 q 574 1031 554 1014 q 611 1068 597 1050 q 625 1113 625 1086 m 401 997 q 451 967 432 997 l 524 844 q 532 821 532 832 q 499 800 532 800 l 496 800 q 450 818 463 800 l 383 921 l 299 818 q 251 800 279 800 l 249 800 q 217 819 217 800 q 225 844 217 831 l 303 967 q 367 997 324 997 l 401 997 m 372 735 q 574 677 501 735 q 646 517 646 619 l 646 206 q 654 74 646 114 q 663 31 663 35 q 636 6 663 14 q 588 -1 610 -1 q 559 20 568 -1 q 545 65 550 42 q 539 96 540 89 q 306 -8 444 -8 q 133 44 199 -8 q 68 200 68 97 q 134 365 68 310 q 296 435 200 419 q 529 453 392 451 l 529 518 q 493 602 529 569 q 376 635 457 635 q 269 620 315 635 q 193 591 224 606 q 160 576 163 576 q 128 604 146 576 q 111 646 111 632 q 148 685 111 664 q 246 720 185 706 q 372 735 307 735 m 529 353 q 359 344 425 351 q 243 306 293 338 q 193 207 193 274 q 223 122 193 151 q 311 93 253 93 q 428 118 379 93 q 529 189 478 143 l 529 353 z "},"ẫ":{"ha":757,"x_min":68,"x_max":663,"o":"m 275 1222 q 326 1215 300 1222 q 396 1190 353 1207 q 449 1171 422 1179 q 494 1163 476 1163 q 524 1172 511 1163 q 550 1203 536 1181 q 575 1222 561 1222 q 588 1219 583 1222 l 597 1215 q 613 1199 613 1208 q 607 1179 613 1196 q 558 1107 586 1129 q 492 1085 531 1085 q 435 1093 464 1085 q 365 1118 406 1101 q 308 1138 331 1132 q 268 1144 286 1144 q 241 1135 253 1144 q 215 1103 229 1126 q 193 1083 204 1083 q 179 1086 185 1083 l 167 1092 q 154 1108 154 1097 q 158 1126 154 1117 q 207 1200 179 1178 q 275 1222 235 1222 m 396 997 q 460 967 439 997 l 539 844 q 547 821 547 832 q 514 800 547 800 l 511 800 q 465 818 485 800 l 378 921 l 293 818 q 246 800 274 800 l 243 800 q 211 819 211 800 q 219 844 211 831 l 297 967 q 361 997 318 997 l 396 997 m 372 735 q 574 677 501 735 q 646 517 646 619 l 646 206 q 654 74 646 114 q 663 31 663 35 q 636 6 663 14 q 588 -1 610 -1 q 559 20 568 -1 q 545 65 550 42 q 539 96 540 89 q 306 -8 444 -8 q 133 44 199 -8 q 68 200 68 97 q 134 365 68 310 q 296 435 200 419 q 529 453 392 451 l 529 518 q 493 602 529 569 q 376 635 457 635 q 269 620 315 635 q 193 591 224 606 q 160 576 163 576 q 128 604 146 576 q 111 646 111 632 q 148 685 111 664 q 246 720 185 706 q 372 735 307 735 m 529 353 q 359 344 425 351 q 243 306 293 338 q 193 207 193 274 q 223 122 193 151 q 311 93 253 93 q 428 118 379 93 q 529 189 478 143 l 529 353 z "},"ä":{"ha":757,"x_min":68,"x_max":663,"o":"m 68 0 m 372 735 q 574 677 501 735 q 646 517 646 619 l 646 206 q 654 74 646 114 q 663 31 663 35 q 636 6 663 14 q 588 -1 610 -1 q 559 20 568 -1 q 545 65 550 42 q 539 96 540 89 q 306 -8 444 -8 q 133 44 199 -8 q 68 200 68 97 q 134 365 68 310 q 296 435 200 419 q 529 453 392 451 l 529 518 q 493 602 529 569 q 376 635 457 635 q 269 620 315 635 q 193 591 224 606 q 160 576 163 576 q 128 604 146 576 q 111 646 111 632 q 148 685 111 664 q 246 720 185 706 q 372 735 307 735 m 529 353 q 359 344 425 351 q 243 306 293 338 q 193 207 193 274 q 223 122 193 151 q 311 93 253 93 q 428 118 379 93 q 529 189 478 143 l 529 353 m 282 975 q 338 944 338 975 l 338 874 q 276 843 338 843 q 221 874 221 843 l 221 944 q 282 975 221 975 m 482 975 q 538 944 538 975 l 538 874 q 476 843 538 843 q 421 874 421 843 l 421 944 q 482 975 421 975 z "},"ạ":{"ha":757,"x_min":68,"x_max":663,"o":"m 68 0 m 372 735 q 574 677 501 735 q 646 517 646 619 l 646 206 q 654 74 646 114 q 663 31 663 35 q 636 6 663 14 q 588 -1 610 -1 q 559 20 568 -1 q 545 65 550 42 q 539 96 540 89 q 306 -8 444 -8 q 133 44 199 -8 q 68 200 68 97 q 134 365 68 310 q 296 435 200 419 q 529 453 392 451 l 529 518 q 493 602 529 569 q 376 635 457 635 q 269 620 315 635 q 193 591 224 606 q 160 576 163 576 q 128 604 146 576 q 111 646 111 632 q 148 685 111 664 q 246 720 185 706 q 372 735 307 735 m 529 353 q 359 344 425 351 q 243 306 293 338 q 193 207 193 274 q 223 122 193 151 q 311 93 253 93 q 428 118 379 93 q 529 189 478 143 l 529 353 m 368 -111 q 424 -142 424 -111 l 424 -212 q 363 -243 424 -243 q 307 -212 307 -243 l 307 -142 q 368 -111 307 -111 z "},"à":{"ha":757,"x_min":68,"x_max":663,"o":"m 68 0 m 372 735 q 574 677 501 735 q 646 517 646 619 l 646 206 q 654 74 646 114 q 663 31 663 35 q 636 6 663 14 q 588 -1 610 -1 q 559 20 568 -1 q 545 65 550 42 q 539 96 540 89 q 306 -8 444 -8 q 133 44 199 -8 q 68 200 68 97 q 134 365 68 310 q 296 435 200 419 q 529 453 392 451 l 529 518 q 493 602 529 569 q 376 635 457 635 q 269 620 315 635 q 193 591 224 606 q 160 576 163 576 q 128 604 146 576 q 111 646 111 632 q 148 685 111 664 q 246 720 185 706 q 372 735 307 735 m 529 353 q 359 344 425 351 q 243 306 293 338 q 193 207 193 274 q 223 122 193 151 q 311 93 253 93 q 428 118 379 93 q 529 189 478 143 l 529 353 m 282 1017 q 336 1008 315 1017 q 368 981 357 1000 q 428 874 408 911 q 449 826 449 836 q 417 813 449 813 q 346 838 369 813 l 293 897 q 227 974 239 958 q 215 999 215 990 q 231 1013 215 1008 q 282 1017 247 1017 z "},"ả":{"ha":757,"x_min":68,"x_max":663,"o":"m 68 0 m 372 735 q 574 677 501 735 q 646 517 646 619 l 646 206 q 654 74 646 114 q 663 31 663 35 q 636 6 663 14 q 588 -1 610 -1 q 559 20 568 -1 q 545 65 550 42 q 539 96 540 89 q 306 -8 444 -8 q 133 44 199 -8 q 68 200 68 97 q 134 365 68 310 q 296 435 200 419 q 529 453 392 451 l 529 518 q 493 602 529 569 q 376 635 457 635 q 269 620 315 635 q 193 591 224 606 q 160 576 163 576 q 128 604 146 576 q 111 646 111 632 q 148 685 111 664 q 246 720 185 706 q 372 735 307 735 m 529 353 q 359 344 425 351 q 243 306 293 338 q 193 207 193 274 q 223 122 193 151 q 311 93 253 93 q 428 118 379 93 q 529 189 478 143 l 529 353 m 429 933 q 415 961 429 951 q 378 971 400 971 q 333 962 347 971 q 314 953 318 953 q 293 970 306 953 q 281 999 281 988 q 317 1027 281 1013 q 389 1042 353 1042 q 475 1018 435 1042 q 515 943 515 994 q 490 865 515 901 q 432 806 464 829 q 389 782 400 782 q 360 790 378 782 q 343 806 343 797 q 351 826 343 818 q 378 851 358 835 q 415 889 401 871 q 429 933 429 907 z "},"ā":{"ha":757,"x_min":68,"x_max":663,"o":"m 68 0 m 372 735 q 574 677 501 735 q 646 517 646 619 l 646 206 q 654 74 646 114 q 663 31 663 35 q 636 6 663 14 q 588 -1 610 -1 q 559 20 568 -1 q 545 65 550 42 q 539 96 540 89 q 306 -8 444 -8 q 133 44 199 -8 q 68 200 68 97 q 134 365 68 310 q 296 435 200 419 q 529 453 392 451 l 529 518 q 493 602 529 569 q 376 635 457 635 q 269 620 315 635 q 193 591 224 606 q 160 576 163 576 q 128 604 146 576 q 111 646 111 632 q 148 685 111 664 q 246 720 185 706 q 372 735 307 735 m 529 353 q 359 344 425 351 q 243 306 293 338 q 193 207 193 274 q 223 122 193 151 q 311 93 253 93 q 428 118 379 93 q 529 189 478 143 l 529 353 m 533 947 q 555 938 549 947 q 561 906 561 928 l 561 892 q 555 860 561 869 q 533 850 549 850 l 224 850 q 203 860 210 850 q 196 892 196 869 l 196 906 q 203 938 196 928 q 224 947 210 947 l 533 947 z "},"ą":{"ha":757,"x_min":68,"x_max":828,"o":"m 801 -119 q 828 -154 828 -119 q 799 -215 828 -199 q 714 -231 771 -231 q 583 -185 617 -231 q 550 -89 550 -139 q 571 6 550 -29 q 554 32 560 14 q 544 69 549 50 q 539 96 540 88 q 306 -8 444 -8 q 133 44 199 -8 q 68 200 68 97 q 134 365 68 310 q 296 435 200 419 q 529 453 392 451 l 529 518 q 493 602 529 569 q 376 635 457 635 q 269 620 315 635 q 193 591 224 606 q 160 576 163 576 q 128 604 146 576 q 111 646 111 632 q 148 685 111 664 q 246 720 185 706 q 372 735 307 735 q 574 677 501 735 q 646 517 646 619 l 646 206 q 654 74 646 114 q 663 31 663 35 q 660 21 663 26 q 653 -10 660 8 q 643 -62 643 -46 q 668 -120 643 -107 q 729 -133 693 -133 q 764 -126 743 -133 q 801 -119 796 -119 m 529 353 q 359 344 425 351 q 243 306 293 338 q 193 207 193 274 q 223 122 193 151 q 311 93 253 93 q 428 118 379 93 q 529 189 478 143 l 529 353 z "},"å":{"ha":757,"x_min":68,"x_max":663,"o":"m 68 0 m 372 735 q 574 677 501 735 q 646 517 646 619 l 646 206 q 654 74 646 114 q 663 31 663 35 q 636 6 663 14 q 588 -1 610 -1 q 559 20 568 -1 q 545 65 550 42 q 539 96 540 89 q 306 -8 444 -8 q 133 44 199 -8 q 68 200 68 97 q 134 365 68 310 q 296 435 200 419 q 529 453 392 451 l 529 518 q 493 602 529 569 q 376 635 457 635 q 269 620 315 635 q 193 591 224 606 q 160 576 163 576 q 128 604 146 576 q 111 646 111 632 q 148 685 111 664 q 246 720 185 706 q 372 735 307 735 m 529 353 q 359 344 425 351 q 243 306 293 338 q 193 207 193 274 q 223 122 193 151 q 311 93 253 93 q 428 118 379 93 q 529 189 478 143 l 529 353 m 378 1018 q 461 983 426 1018 q 496 900 496 949 q 461 817 496 851 q 378 783 426 783 q 295 817 329 783 q 261 900 261 851 q 295 983 261 949 q 378 1018 329 1018 m 378 969 q 329 949 349 969 q 310 900 310 929 q 329 851 310 871 q 378 832 349 832 q 427 851 407 832 q 447 900 447 871 q 427 949 447 929 q 378 969 407 969 z "},"ǻ":{"ha":757,"x_min":68,"x_max":663,"o":"m 68 0 m 372 735 q 574 677 501 735 q 646 517 646 619 l 646 206 q 654 74 646 114 q 663 31 663 35 q 636 6 663 14 q 588 -1 610 -1 q 559 20 568 -1 q 545 65 550 42 q 539 96 540 89 q 306 -8 444 -8 q 133 44 199 -8 q 68 200 68 97 q 134 365 68 310 q 296 435 200 419 q 529 453 392 451 l 529 518 q 493 602 529 569 q 376 635 457 635 q 269 620 315 635 q 193 591 224 606 q 160 576 163 576 q 128 604 146 576 q 111 646 111 632 q 148 685 111 664 q 246 720 185 706 q 372 735 307 735 m 529 353 q 359 344 425 351 q 243 306 293 338 q 193 207 193 274 q 223 122 193 151 q 311 93 253 93 q 428 118 379 93 q 529 189 478 143 l 529 353 m 378 1018 q 461 983 426 1018 q 496 900 496 949 q 461 817 496 851 q 378 783 426 783 q 295 817 329 783 q 261 900 261 851 q 295 983 261 949 q 378 1018 329 1018 m 378 969 q 329 949 349 969 q 310 900 310 929 q 329 851 310 871 q 378 832 349 832 q 427 851 407 832 q 447 900 447 871 q 427 949 447 929 q 378 969 407 969 m 503 1281 q 553 1276 538 1281 q 569 1263 569 1272 q 558 1238 569 1254 q 492 1161 546 1222 l 439 1101 q 368 1076 417 1076 q 336 1090 336 1076 q 356 1138 336 1100 q 417 1244 376 1175 q 449 1272 428 1264 q 503 1281 469 1281 z "},"ã":{"ha":757,"x_min":68,"x_max":663,"o":"m 68 0 m 372 735 q 574 677 501 735 q 646 517 646 619 l 646 206 q 654 74 646 114 q 663 31 663 35 q 636 6 663 14 q 588 -1 610 -1 q 559 20 568 -1 q 545 65 550 42 q 539 96 540 89 q 306 -8 444 -8 q 133 44 199 -8 q 68 200 68 97 q 134 365 68 310 q 296 435 200 419 q 529 453 392 451 l 529 518 q 493 602 529 569 q 376 635 457 635 q 269 620 315 635 q 193 591 224 606 q 160 576 163 576 q 128 604 146 576 q 111 646 111 632 q 148 685 111 664 q 246 720 185 706 q 372 735 307 735 m 529 353 q 359 344 425 351 q 243 306 293 338 q 193 207 193 274 q 223 122 193 151 q 311 93 253 93 q 428 118 379 93 q 529 189 478 143 l 529 353 m 271 958 q 329 951 300 958 q 406 926 358 943 q 469 906 446 913 q 513 899 492 899 q 546 908 532 899 q 574 939 560 917 q 601 958 588 958 q 615 956 610 958 l 626 951 q 642 935 642 946 q 636 915 642 926 q 583 843 614 865 q 510 821 553 821 q 371 854 460 821 q 308 874 332 868 q 264 881 285 881 q 233 872 246 881 q 206 839 221 863 q 192 824 197 828 q 181 819 188 819 q 167 822 172 819 l 153 828 q 139 844 139 833 q 143 863 139 853 q 197 936 165 914 q 271 958 228 958 z "},"æ":{"ha":1151,"x_min":63,"x_max":1075,"o":"m 789 735 q 1003 647 931 735 q 1075 392 1075 560 q 1058 357 1075 379 q 1029 335 1042 335 l 590 335 q 650 150 599 208 q 804 92 701 92 q 905 106 863 92 q 975 135 947 121 q 1007 150 1003 150 q 1038 122 1021 150 q 1056 81 1056 94 q 1021 42 1056 64 q 928 6 986 21 q 806 -8 871 -8 q 551 79 635 -8 q 440 16 504 40 q 300 -8 376 -8 q 128 44 193 -8 q 63 200 63 97 q 119 344 63 293 q 263 413 176 394 q 469 433 350 431 q 508 578 478 519 q 371 635 472 635 q 264 620 310 635 q 188 591 218 606 q 154 576 157 576 q 123 604 140 576 q 106 646 106 632 q 142 685 106 664 q 240 720 179 706 q 367 735 301 735 q 578 668 504 735 q 789 735 657 735 m 785 635 q 590 435 606 635 l 951 435 q 785 635 951 635 m 465 333 q 263 306 339 331 q 188 207 188 281 q 217 122 188 151 q 306 93 247 93 q 409 112 364 93 q 497 165 454 131 q 465 333 467 236 z "},"ǽ":{"ha":1151,"x_min":63,"x_max":1075,"o":"m 63 0 m 789 735 q 1003 647 931 735 q 1075 392 1075 560 q 1058 357 1075 379 q 1029 335 1042 335 l 590 335 q 650 150 599 208 q 804 92 701 92 q 905 106 863 92 q 975 135 947 121 q 1007 150 1003 150 q 1038 122 1021 150 q 1056 81 1056 94 q 1021 42 1056 64 q 928 6 986 21 q 806 -8 871 -8 q 551 79 635 -8 q 440 16 504 40 q 300 -8 376 -8 q 128 44 193 -8 q 63 200 63 97 q 119 344 63 293 q 263 413 176 394 q 469 433 350 431 q 508 578 478 519 q 371 635 472 635 q 264 620 310 635 q 188 591 218 606 q 154 576 157 576 q 123 604 140 576 q 106 646 106 632 q 142 685 106 664 q 240 720 179 706 q 367 735 301 735 q 578 668 504 735 q 789 735 657 735 m 785 635 q 590 435 606 635 l 951 435 q 785 635 951 635 m 465 333 q 263 306 339 331 q 188 207 188 281 q 217 122 188 151 q 306 93 247 93 q 409 112 364 93 q 497 165 454 131 q 465 333 467 236 m 688 1017 q 738 1013 722 1017 q 754 999 754 1008 q 742 974 754 990 q 676 897 731 958 l 624 838 q 553 813 601 813 q 521 826 521 813 q 541 874 521 836 q 601 981 561 911 q 633 1008 613 1000 q 688 1017 654 1017 z "},"b":{"ha":790,"x_min":118,"x_max":715,"o":"m 179 1044 q 235 1014 235 1044 l 235 664 q 326 717 279 699 q 433 735 372 735 q 581 692 517 735 q 680 565 644 649 q 715 364 715 482 q 683 171 715 256 q 589 39 650 86 q 446 -8 528 -8 q 225 96 325 -8 q 203 14 218 54 q 165 -3 196 -3 l 160 -3 q 118 28 118 -3 l 118 1014 q 174 1044 118 1044 l 179 1044 m 407 632 q 316 616 361 632 q 235 569 271 600 l 235 189 q 326 118 276 143 q 422 93 375 93 q 549 166 504 93 q 593 374 593 239 q 546 565 593 499 q 407 632 499 631 z "},"c":{"ha":674,"x_min":72,"x_max":632,"o":"m 401 735 q 546 715 482 735 q 610 671 610 696 q 594 624 610 653 q 565 596 578 596 q 559 598 563 596 q 550 601 556 600 q 399 635 475 635 q 197 369 197 635 q 247 157 197 222 q 413 92 296 92 q 569 128 497 92 l 585 133 q 615 106 599 133 q 632 63 632 79 q 602 30 632 46 q 522 3 572 14 q 414 -8 472 -8 q 157 81 242 -8 q 72 367 72 169 q 167 650 72 565 q 401 735 261 735 z "},"ć":{"ha":674,"x_min":72,"x_max":632,"o":"m 72 0 m 401 735 q 546 715 482 735 q 610 671 610 696 q 594 624 610 653 q 565 596 578 596 q 559 598 563 596 q 550 601 556 600 q 399 635 475 635 q 197 369 197 635 q 247 157 197 222 q 413 92 296 92 q 569 128 497 92 l 585 133 q 615 106 599 133 q 632 63 632 79 q 602 30 632 46 q 522 3 572 14 q 414 -8 472 -8 q 157 81 242 -8 q 72 367 72 169 q 167 650 72 565 q 401 735 261 735 m 496 1017 q 547 1013 531 1017 q 563 999 563 1008 q 551 974 563 990 q 485 897 539 958 l 432 838 q 361 813 410 813 q 329 826 329 813 q 349 874 329 836 q 410 981 369 911 q 442 1008 421 1000 q 496 1017 463 1017 z "},"č":{"ha":674,"x_min":72,"x_max":632,"o":"m 72 0 m 401 735 q 546 715 482 735 q 610 671 610 696 q 594 624 610 653 q 565 596 578 596 q 559 598 563 596 q 550 601 556 600 q 399 635 475 635 q 197 369 197 635 q 247 157 197 222 q 413 92 296 92 q 569 128 497 92 l 585 133 q 615 106 599 133 q 632 63 632 79 q 602 30 632 46 q 522 3 572 14 q 414 -8 472 -8 q 157 81 242 -8 q 72 367 72 169 q 167 650 72 565 q 401 735 261 735 m 519 1006 q 553 985 553 1006 q 544 961 553 974 l 465 839 q 401 808 444 808 l 367 808 q 303 839 324 808 l 225 961 q 217 986 217 976 q 249 1006 217 1006 l 251 1006 q 299 988 279 1006 l 383 885 l 471 988 q 517 1006 490 1006 l 519 1006 z "},"ç":{"ha":674,"x_min":72,"x_max":632,"o":"m 632 63 q 604 31 632 47 q 529 4 576 15 q 428 -8 482 -7 l 411 -68 l 417 -68 q 496 -89 457 -68 q 535 -168 535 -110 q 375 -292 535 -292 q 268 -275 321 -292 q 215 -232 215 -258 q 242 -196 215 -196 q 276 -206 253 -196 q 357 -224 322 -224 q 436 -175 436 -224 q 422 -141 436 -151 q 382 -122 408 -131 q 353 -111 363 -117 q 344 -94 344 -106 q 350 -67 344 -86 q 368 -7 356 -47 q 146 93 219 4 q 72 367 72 182 q 167 650 72 565 q 401 735 261 735 q 546 715 482 735 q 610 671 610 696 q 594 624 610 653 q 565 596 578 596 q 559 598 563 596 q 550 601 556 600 q 399 635 475 635 q 197 369 197 635 q 247 157 197 222 q 413 92 296 92 q 569 128 497 92 l 585 133 q 615 106 599 133 q 632 63 632 79 z "},"ĉ":{"ha":674,"x_min":72,"x_max":632,"o":"m 72 0 m 401 735 q 546 715 482 735 q 610 671 610 696 q 594 624 610 653 q 565 596 578 596 q 559 598 563 596 q 550 601 556 600 q 399 635 475 635 q 197 369 197 635 q 247 157 197 222 q 413 92 296 92 q 569 128 497 92 l 585 133 q 615 106 599 133 q 632 63 632 79 q 602 30 632 46 q 522 3 572 14 q 414 -8 472 -8 q 157 81 242 -8 q 72 367 72 169 q 167 650 72 565 q 401 735 261 735 m 401 997 q 465 967 444 997 l 544 844 q 553 821 553 832 q 519 800 553 800 l 517 800 q 471 818 490 800 l 383 921 l 299 818 q 251 800 279 800 l 249 800 q 217 819 217 800 q 225 844 217 831 l 303 967 q 367 997 324 997 l 401 997 z "},"ċ":{"ha":674,"x_min":72,"x_max":632,"o":"m 72 0 m 401 735 q 546 715 482 735 q 610 671 610 696 q 594 624 610 653 q 565 596 578 596 q 559 598 563 596 q 550 601 556 600 q 399 635 475 635 q 197 369 197 635 q 247 157 197 222 q 413 92 296 92 q 569 128 497 92 l 585 133 q 615 106 599 133 q 632 63 632 79 q 602 30 632 46 q 522 3 572 14 q 414 -8 472 -8 q 157 81 242 -8 q 72 367 72 169 q 167 650 72 565 q 401 735 261 735 m 388 975 q 443 944 443 975 l 443 874 q 382 843 443 843 q 326 874 326 843 l 326 944 q 388 975 326 975 z "},"d":{"ha":785,"x_min":72,"x_max":686,"o":"m 614 1044 q 669 1014 669 1044 l 669 206 q 678 74 669 114 q 686 31 686 35 q 660 6 686 14 q 611 -1 633 -1 q 583 20 592 -1 q 569 65 574 42 q 563 96 564 89 q 342 -8 463 -8 q 199 39 260 -8 q 105 171 138 86 q 72 363 72 256 q 108 565 72 481 q 207 692 143 649 q 354 735 271 735 q 462 717 415 735 q 553 664 508 699 l 553 1014 q 608 1044 553 1044 l 614 1044 m 382 632 q 242 565 289 631 q 194 374 194 499 q 239 166 194 239 q 365 93 283 93 q 462 118 413 93 q 553 189 511 143 l 553 569 q 382 632 478 632 z "},"ð":{"ha":790,"x_min":76,"x_max":714,"o":"m 435 992 q 471 975 457 992 q 517 917 499 942 l 625 932 q 651 915 642 932 q 660 888 660 899 q 639 869 660 872 l 556 858 q 672 616 629 743 q 714 360 714 489 q 634 85 714 179 q 399 -8 554 -8 q 159 86 242 -8 q 76 360 76 181 q 160 638 76 540 q 399 735 243 735 q 510 718 460 735 q 446 843 479 785 l 326 826 q 301 841 313 826 q 290 871 290 856 q 311 889 290 885 l 411 903 q 385 942 396 924 q 375 969 375 960 q 397 989 375 985 q 435 992 417 992 m 394 635 q 244 568 293 635 q 196 363 196 501 q 244 158 196 224 q 394 92 293 92 q 544 158 496 92 q 593 363 593 224 q 544 568 593 501 q 394 635 496 635 z "},"ď":{"ha":785,"x_min":72,"x_max":878,"o":"m 72 0 m 614 1044 q 669 1014 669 1044 l 669 206 q 678 74 669 114 q 686 31 686 35 q 660 6 686 14 q 611 -1 633 -1 q 583 20 592 -1 q 569 65 574 42 q 563 96 564 89 q 342 -8 463 -8 q 199 39 260 -8 q 105 171 138 86 q 72 363 72 256 q 108 565 72 481 q 207 692 143 649 q 354 735 271 735 q 462 717 415 735 q 553 664 508 699 l 553 1014 q 608 1044 553 1044 l 614 1044 m 382 632 q 242 565 289 631 q 194 374 194 499 q 239 166 194 239 q 365 93 283 93 q 462 118 413 93 q 553 189 511 143 l 553 569 q 382 632 478 632 m 822 972 q 863 962 849 972 q 878 933 878 951 q 860 828 878 875 q 819 756 843 782 q 776 731 794 731 q 749 735 761 731 q 736 751 736 740 q 742 790 736 760 q 754 928 754 860 q 768 960 754 949 q 810 972 782 972 l 822 972 z "},"đ":{"ha":785,"x_min":72,"x_max":760,"o":"m 732 928 q 753 918 747 928 q 760 886 760 908 l 760 872 q 753 840 760 850 q 732 831 747 831 l 669 831 l 669 206 q 678 74 669 114 q 686 31 686 35 q 660 6 686 14 q 611 -1 633 -1 q 583 20 592 -1 q 569 65 574 42 q 563 96 564 89 q 342 -8 463 -8 q 199 39 260 -8 q 105 171 138 86 q 72 363 72 256 q 108 565 72 481 q 207 692 143 649 q 354 735 271 735 q 462 717 415 735 q 553 664 508 699 l 553 831 l 422 831 q 401 840 408 831 q 394 872 394 850 l 394 886 q 401 918 394 908 q 422 928 408 928 l 553 928 l 553 1014 q 608 1044 553 1044 l 614 1044 q 669 1014 669 1044 l 669 928 l 732 928 m 553 569 q 382 632 478 632 q 242 565 289 631 q 194 374 194 499 q 239 166 194 239 q 365 93 283 93 q 462 118 413 93 q 553 189 511 143 l 553 569 z "},"ḍ":{"ha":785,"x_min":72,"x_max":686,"o":"m 72 0 m 614 1044 q 669 1014 669 1044 l 669 206 q 678 74 669 114 q 686 31 686 35 q 660 6 686 14 q 611 -1 633 -1 q 583 20 592 -1 q 569 65 574 42 q 563 96 564 89 q 342 -8 463 -8 q 199 39 260 -8 q 105 171 138 86 q 72 363 72 256 q 108 565 72 481 q 207 692 143 649 q 354 735 271 735 q 462 717 415 735 q 553 664 508 699 l 553 1014 q 608 1044 553 1044 l 614 1044 m 382 632 q 242 565 289 631 q 194 374 194 499 q 239 166 194 239 q 365 93 283 93 q 462 118 413 93 q 553 189 511 143 l 553 569 q 382 632 478 632 m 396 -111 q 451 -142 451 -111 l 451 -212 q 390 -243 451 -243 q 335 -212 335 -243 l 335 -142 q 396 -111 335 -111 z "},"ǳ":{"ha":1464,"x_min":72,"x_max":1408,"o":"m 72 0 m 614 1044 q 669 1014 669 1044 l 669 206 q 678 74 669 114 q 686 31 686 35 q 660 6 686 14 q 611 -1 633 -1 q 583 20 592 -1 q 569 65 574 42 q 563 96 564 89 q 342 -8 463 -8 q 199 39 260 -8 q 105 171 138 86 q 72 363 72 256 q 108 565 72 481 q 207 692 143 649 q 354 735 271 735 q 462 717 415 735 q 553 664 508 699 l 553 1014 q 608 1044 553 1044 l 614 1044 m 382 632 q 242 565 289 631 q 194 374 194 499 q 239 166 194 239 q 365 93 283 93 q 462 118 413 93 q 553 189 511 143 l 553 569 q 382 632 478 632 m 1379 726 q 1398 701 1389 726 q 1407 654 1407 675 q 1404 640 1407 646 l 999 100 l 1381 100 q 1402 90 1396 100 q 1408 58 1408 81 l 1408 42 q 1402 10 1408 19 q 1381 0 1396 0 l 867 0 q 847 25 858 0 q 836 71 836 50 q 840 86 836 81 l 1247 626 l 892 626 q 871 636 878 626 q 864 668 864 646 l 864 685 q 871 717 864 707 q 892 726 878 726 l 1379 726 z "},"ǆ":{"ha":1464,"x_min":72,"x_max":1408,"o":"m 72 0 m 614 1044 q 669 1014 669 1044 l 669 206 q 678 74 669 114 q 686 31 686 35 q 660 6 686 14 q 611 -1 633 -1 q 583 20 592 -1 q 569 65 574 42 q 563 96 564 89 q 342 -8 463 -8 q 199 39 260 -8 q 105 171 138 86 q 72 363 72 256 q 108 565 72 481 q 207 692 143 649 q 354 735 271 735 q 462 717 415 735 q 553 664 508 699 l 553 1014 q 608 1044 553 1044 l 614 1044 m 382 632 q 242 565 289 631 q 194 374 194 499 q 239 166 194 239 q 365 93 283 93 q 462 118 413 93 q 553 189 511 143 l 553 569 q 382 632 478 632 m 1379 726 q 1398 701 1389 726 q 1407 654 1407 675 q 1404 640 1407 646 l 999 100 l 1381 100 q 1402 90 1396 100 q 1408 58 1408 81 l 1408 42 q 1402 10 1408 19 q 1381 0 1396 0 l 867 0 q 847 25 858 0 q 836 71 836 50 q 840 86 836 81 l 1247 626 l 892 626 q 871 636 878 626 q 864 668 864 646 l 864 685 q 871 717 864 707 q 892 726 878 726 l 1379 726 m 1260 1006 q 1293 985 1293 1006 q 1285 961 1293 974 l 1206 839 q 1142 808 1185 808 l 1107 808 q 1043 839 1064 808 l 965 961 q 957 986 957 976 q 989 1006 957 1006 l 992 1006 q 1039 988 1019 1006 l 1124 885 l 1211 988 q 1257 1006 1231 1006 l 1260 1006 z "},"e":{"ha":749,"x_min":76,"x_max":686,"o":"m 400 735 q 614 642 542 735 q 686 372 686 550 q 669 338 686 360 q 640 315 653 315 l 201 315 q 261 146 210 200 q 415 92 313 92 q 516 106 474 92 q 586 135 558 121 q 618 150 614 150 q 649 122 632 150 q 667 81 667 94 q 632 42 667 64 q 540 6 597 21 q 417 -8 482 -8 q 160 82 243 -8 q 76 358 76 172 q 158 639 76 543 q 400 735 240 735 m 396 635 q 201 415 217 635 l 563 415 q 396 635 563 635 z "},"é":{"ha":749,"x_min":76,"x_max":686,"o":"m 76 0 m 400 735 q 614 642 542 735 q 686 372 686 550 q 669 338 686 360 q 640 315 653 315 l 201 315 q 261 146 210 200 q 415 92 313 92 q 516 106 474 92 q 586 135 558 121 q 618 150 614 150 q 649 122 632 150 q 667 81 667 94 q 632 42 667 64 q 540 6 597 21 q 417 -8 482 -8 q 160 82 243 -8 q 76 358 76 172 q 158 639 76 543 q 400 735 240 735 m 396 635 q 201 415 217 635 l 563 415 q 396 635 563 635 m 486 1017 q 537 1013 521 1017 q 553 999 553 1008 q 541 974 553 990 q 475 897 529 958 l 422 838 q 351 813 400 813 q 319 826 319 813 q 340 874 319 836 q 400 981 360 911 q 432 1008 411 1000 q 486 1017 453 1017 z "},"ĕ":{"ha":749,"x_min":76,"x_max":686,"o":"m 76 0 m 400 735 q 614 642 542 735 q 686 372 686 550 q 669 338 686 360 q 640 315 653 315 l 201 315 q 261 146 210 200 q 415 92 313 92 q 516 106 474 92 q 586 135 558 121 q 618 150 614 150 q 649 122 632 150 q 667 81 667 94 q 632 42 667 64 q 540 6 597 21 q 417 -8 482 -8 q 160 82 243 -8 q 76 358 76 172 q 158 639 76 543 q 400 735 240 735 m 396 635 q 201 415 217 635 l 563 415 q 396 635 563 635 m 554 993 q 575 972 575 993 q 515 855 575 897 q 375 813 456 813 q 233 855 293 813 q 174 972 174 897 q 194 993 174 993 q 211 989 207 993 q 218 976 215 985 q 225 958 221 967 q 281 917 240 931 q 375 904 321 904 q 469 917 429 904 q 524 958 508 931 q 531 976 528 967 q 539 990 535 986 q 554 993 543 993 z "},"ě":{"ha":749,"x_min":76,"x_max":686,"o":"m 76 0 m 400 735 q 614 642 542 735 q 686 372 686 550 q 669 338 686 360 q 640 315 653 315 l 201 315 q 261 146 210 200 q 415 92 313 92 q 516 106 474 92 q 586 135 558 121 q 618 150 614 150 q 649 122 632 150 q 667 81 667 94 q 632 42 667 64 q 540 6 597 21 q 417 -8 482 -8 q 160 82 243 -8 q 76 358 76 172 q 158 639 76 543 q 400 735 240 735 m 396 635 q 201 415 217 635 l 563 415 q 396 635 563 635 m 510 1006 q 543 985 543 1006 q 535 961 543 974 l 456 839 q 392 808 435 808 l 357 808 q 293 839 314 808 l 215 961 q 207 986 207 976 q 239 1006 207 1006 l 242 1006 q 289 988 269 1006 l 374 885 l 461 988 q 507 1006 481 1006 l 510 1006 z "},"ê":{"ha":749,"x_min":76,"x_max":686,"o":"m 76 0 m 400 735 q 614 642 542 735 q 686 372 686 550 q 669 338 686 360 q 640 315 653 315 l 201 315 q 261 146 210 200 q 415 92 313 92 q 516 106 474 92 q 586 135 558 121 q 618 150 614 150 q 649 122 632 150 q 667 81 667 94 q 632 42 667 64 q 540 6 597 21 q 417 -8 482 -8 q 160 82 243 -8 q 76 358 76 172 q 158 639 76 543 q 400 735 240 735 m 396 635 q 201 415 217 635 l 563 415 q 396 635 563 635 m 392 997 q 456 967 435 997 l 535 844 q 543 821 543 832 q 510 800 543 800 l 507 800 q 461 818 481 800 l 374 921 l 289 818 q 242 800 269 800 l 239 800 q 207 819 207 800 q 215 844 207 831 l 293 967 q 357 997 314 997 l 392 997 z "},"ế":{"ha":749,"x_min":76,"x_max":749,"o":"m 682 1196 q 733 1192 717 1196 q 749 1178 749 1188 q 736 1153 749 1169 q 671 1076 724 1138 l 618 1017 q 547 992 596 992 q 515 1006 515 992 q 535 1053 515 1015 q 596 1160 556 1090 q 628 1188 607 1179 q 682 1196 649 1196 m 397 997 q 447 967 428 997 l 519 844 q 528 821 528 832 q 494 800 528 800 l 492 800 q 446 818 458 800 l 379 921 l 294 818 q 247 800 275 800 l 244 800 q 213 819 213 800 q 221 844 213 831 l 299 967 q 363 997 319 997 l 397 997 m 400 735 q 614 642 542 735 q 686 372 686 550 q 669 338 686 360 q 640 315 653 315 l 201 315 q 261 146 210 200 q 415 92 313 92 q 516 106 474 92 q 586 135 558 121 q 618 150 614 150 q 649 122 632 150 q 667 81 667 94 q 632 42 667 64 q 540 6 597 21 q 417 -8 482 -8 q 160 82 243 -8 q 76 358 76 172 q 158 639 76 543 q 400 735 240 735 m 396 635 q 201 415 217 635 l 563 415 q 396 635 563 635 z "},"ệ":{"ha":749,"x_min":76,"x_max":686,"o":"m 76 0 m 400 735 q 614 642 542 735 q 686 372 686 550 q 669 338 686 360 q 640 315 653 315 l 201 315 q 261 146 210 200 q 415 92 313 92 q 516 106 474 92 q 586 135 558 121 q 618 150 614 150 q 649 122 632 150 q 667 81 667 94 q 632 42 667 64 q 540 6 597 21 q 417 -8 482 -8 q 160 82 243 -8 q 76 358 76 172 q 158 639 76 543 q 400 735 240 735 m 396 635 q 201 415 217 635 l 563 415 q 396 635 563 635 m 392 997 q 456 967 435 997 l 535 844 q 543 821 543 832 q 510 800 543 800 l 507 800 q 461 818 481 800 l 374 921 l 289 818 q 242 800 269 800 l 239 800 q 207 819 207 800 q 215 844 207 831 l 293 967 q 357 997 314 997 l 392 997 m 381 -111 q 436 -142 436 -111 l 436 -212 q 375 -243 436 -243 q 319 -212 319 -243 l 319 -142 q 381 -111 319 -111 z "},"ề":{"ha":749,"x_min":76,"x_max":686,"o":"m 474 1196 q 528 1188 507 1196 q 560 1160 549 1179 q 620 1053 600 1090 q 640 1006 640 1015 q 608 992 640 992 q 538 1017 560 992 l 485 1076 q 419 1153 431 1138 q 407 1178 407 1169 q 423 1192 407 1188 q 474 1196 439 1196 m 397 997 q 447 967 428 997 l 519 844 q 528 821 528 832 q 494 800 528 800 l 492 800 q 446 818 458 800 l 379 921 l 294 818 q 247 800 275 800 l 244 800 q 213 819 213 800 q 221 844 213 831 l 299 967 q 363 997 319 997 l 397 997 m 400 735 q 614 642 542 735 q 686 372 686 550 q 669 338 686 360 q 640 315 653 315 l 201 315 q 261 146 210 200 q 415 92 313 92 q 516 106 474 92 q 586 135 558 121 q 618 150 614 150 q 649 122 632 150 q 667 81 667 94 q 632 42 667 64 q 540 6 597 21 q 417 -8 482 -8 q 160 82 243 -8 q 76 358 76 172 q 158 639 76 543 q 400 735 240 735 m 396 635 q 201 415 217 635 l 563 415 q 396 635 563 635 z "},"ể":{"ha":749,"x_min":76,"x_max":707,"o":"m 621 1113 q 606 1140 621 1131 q 569 1150 592 1150 q 524 1141 539 1150 q 506 1132 510 1132 q 485 1149 497 1132 q 472 1178 472 1167 q 508 1206 472 1192 q 581 1221 544 1221 q 667 1197 626 1221 q 707 1122 707 1174 q 681 1044 707 1081 q 624 985 656 1008 q 581 961 592 961 q 552 969 569 961 q 535 985 535 976 q 542 1006 535 997 q 569 1031 550 1014 q 607 1068 593 1050 q 621 1113 621 1086 m 397 997 q 447 967 428 997 l 519 844 q 528 821 528 832 q 494 800 528 800 l 492 800 q 446 818 458 800 l 379 921 l 294 818 q 247 800 275 800 l 244 800 q 213 819 213 800 q 221 844 213 831 l 299 967 q 363 997 319 997 l 397 997 m 400 735 q 614 642 542 735 q 686 372 686 550 q 669 338 686 360 q 640 315 653 315 l 201 315 q 261 146 210 200 q 415 92 313 92 q 516 106 474 92 q 586 135 558 121 q 618 150 614 150 q 649 122 632 150 q 667 81 667 94 q 632 42 667 64 q 540 6 597 21 q 417 -8 482 -8 q 160 82 243 -8 q 76 358 76 172 q 158 639 76 543 q 400 735 240 735 m 396 635 q 201 415 217 635 l 563 415 q 396 635 563 635 z "},"ễ":{"ha":749,"x_min":76,"x_max":686,"o":"m 271 1222 q 322 1215 296 1222 q 392 1190 349 1207 q 445 1171 418 1179 q 490 1163 472 1163 q 519 1172 507 1163 q 546 1203 532 1181 q 571 1222 557 1222 q 583 1219 579 1222 l 593 1215 q 608 1199 608 1208 q 603 1179 608 1196 q 554 1107 582 1129 q 488 1085 526 1085 q 431 1093 460 1085 q 361 1118 401 1101 q 304 1138 326 1132 q 264 1144 282 1144 q 237 1135 249 1144 q 211 1103 225 1126 q 189 1083 200 1083 q 175 1086 181 1083 l 163 1092 q 150 1108 150 1097 q 154 1126 150 1117 q 203 1200 175 1178 q 271 1222 231 1222 m 392 997 q 456 967 435 997 l 535 844 q 543 821 543 832 q 510 800 543 800 l 507 800 q 461 818 481 800 l 374 921 l 289 818 q 242 800 269 800 l 239 800 q 207 819 207 800 q 215 844 207 831 l 293 967 q 357 997 314 997 l 392 997 m 400 735 q 614 642 542 735 q 686 372 686 550 q 669 338 686 360 q 640 315 653 315 l 201 315 q 261 146 210 200 q 415 92 313 92 q 516 106 474 92 q 586 135 558 121 q 618 150 614 150 q 649 122 632 150 q 667 81 667 94 q 632 42 667 64 q 540 6 597 21 q 417 -8 482 -8 q 160 82 243 -8 q 76 358 76 172 q 158 639 76 543 q 400 735 240 735 m 396 635 q 201 415 217 635 l 563 415 q 396 635 563 635 z "},"ë":{"ha":749,"x_min":76,"x_max":686,"o":"m 76 0 m 400 735 q 614 642 542 735 q 686 372 686 550 q 669 338 686 360 q 640 315 653 315 l 201 315 q 261 146 210 200 q 415 92 313 92 q 516 106 474 92 q 586 135 558 121 q 618 150 614 150 q 649 122 632 150 q 667 81 667 94 q 632 42 667 64 q 540 6 597 21 q 417 -8 482 -8 q 160 82 243 -8 q 76 358 76 172 q 158 639 76 543 q 400 735 240 735 m 396 635 q 201 415 217 635 l 563 415 q 396 635 563 635 m 278 975 q 333 944 333 975 l 333 874 q 272 843 333 843 q 217 874 217 843 l 217 944 q 278 975 217 975 m 478 975 q 533 944 533 975 l 533 874 q 472 843 533 843 q 417 874 417 843 l 417 944 q 478 975 417 975 z "},"ė":{"ha":749,"x_min":76,"x_max":686,"o":"m 76 0 m 400 735 q 614 642 542 735 q 686 372 686 550 q 669 338 686 360 q 640 315 653 315 l 201 315 q 261 146 210 200 q 415 92 313 92 q 516 106 474 92 q 586 135 558 121 q 618 150 614 150 q 649 122 632 150 q 667 81 667 94 q 632 42 667 64 q 540 6 597 21 q 417 -8 482 -8 q 160 82 243 -8 q 76 358 76 172 q 158 639 76 543 q 400 735 240 735 m 396 635 q 201 415 217 635 l 563 415 q 396 635 563 635 m 378 975 q 433 944 433 975 l 433 874 q 372 843 433 843 q 317 874 317 843 l 317 944 q 378 975 317 975 z "},"ẹ":{"ha":749,"x_min":76,"x_max":686,"o":"m 76 0 m 400 735 q 614 642 542 735 q 686 372 686 550 q 669 338 686 360 q 640 315 653 315 l 201 315 q 261 146 210 200 q 415 92 313 92 q 516 106 474 92 q 586 135 558 121 q 618 150 614 150 q 649 122 632 150 q 667 81 667 94 q 632 42 667 64 q 540 6 597 21 q 417 -8 482 -8 q 160 82 243 -8 q 76 358 76 172 q 158 639 76 543 q 400 735 240 735 m 396 635 q 201 415 217 635 l 563 415 q 396 635 563 635 m 381 -111 q 436 -142 436 -111 l 436 -212 q 375 -243 436 -243 q 319 -212 319 -243 l 319 -142 q 381 -111 319 -111 z "},"è":{"ha":749,"x_min":76,"x_max":686,"o":"m 76 0 m 400 735 q 614 642 542 735 q 686 372 686 550 q 669 338 686 360 q 640 315 653 315 l 201 315 q 261 146 210 200 q 415 92 313 92 q 516 106 474 92 q 586 135 558 121 q 618 150 614 150 q 649 122 632 150 q 667 81 667 94 q 632 42 667 64 q 540 6 597 21 q 417 -8 482 -8 q 160 82 243 -8 q 76 358 76 172 q 158 639 76 543 q 400 735 240 735 m 396 635 q 201 415 217 635 l 563 415 q 396 635 563 635 m 278 1017 q 332 1008 311 1017 q 364 981 353 1000 q 424 874 404 911 q 444 826 444 836 q 413 813 444 813 q 342 838 365 813 l 289 897 q 223 974 235 958 q 211 999 211 990 q 227 1013 211 1008 q 278 1017 243 1017 z "},"ẻ":{"ha":749,"x_min":76,"x_max":686,"o":"m 76 0 m 400 735 q 614 642 542 735 q 686 372 686 550 q 669 338 686 360 q 640 315 653 315 l 201 315 q 261 146 210 200 q 415 92 313 92 q 516 106 474 92 q 586 135 558 121 q 618 150 614 150 q 649 122 632 150 q 667 81 667 94 q 632 42 667 64 q 540 6 597 21 q 417 -8 482 -8 q 160 82 243 -8 q 76 358 76 172 q 158 639 76 543 q 400 735 240 735 m 396 635 q 201 415 217 635 l 563 415 q 396 635 563 635 m 425 933 q 410 961 425 951 q 374 971 396 971 q 328 962 343 971 q 310 953 314 953 q 289 970 301 953 q 276 999 276 988 q 313 1027 276 1013 q 385 1042 349 1042 q 471 1018 431 1042 q 511 943 511 994 q 485 865 511 901 q 428 806 460 829 q 385 782 396 782 q 356 790 374 782 q 339 806 339 797 q 347 826 339 818 q 374 851 354 835 q 411 889 397 871 q 425 933 425 907 z "},"ē":{"ha":749,"x_min":76,"x_max":686,"o":"m 76 0 m 400 735 q 614 642 542 735 q 686 372 686 550 q 669 338 686 360 q 640 315 653 315 l 201 315 q 261 146 210 200 q 415 92 313 92 q 516 106 474 92 q 586 135 558 121 q 618 150 614 150 q 649 122 632 150 q 667 81 667 94 q 632 42 667 64 q 540 6 597 21 q 417 -8 482 -8 q 160 82 243 -8 q 76 358 76 172 q 158 639 76 543 q 400 735 240 735 m 396 635 q 201 415 217 635 l 563 415 q 396 635 563 635 m 529 947 q 551 938 544 947 q 557 906 557 928 l 557 892 q 551 860 557 869 q 529 850 544 850 l 219 850 q 199 860 206 850 q 192 892 192 869 l 192 906 q 199 938 192 928 q 219 947 206 947 l 529 947 z "},"ę":{"ha":749,"x_min":76,"x_max":769,"o":"m 743 -129 q 769 -164 769 -129 q 741 -224 769 -208 q 656 -240 713 -240 q 525 -194 558 -240 q 492 -99 492 -149 q 515 1 492 -33 q 417 -8 463 -8 q 160 82 243 -8 q 76 358 76 172 q 158 639 76 543 q 400 735 240 735 q 614 642 542 735 q 686 372 686 550 q 669 338 686 360 q 640 315 653 315 l 201 315 q 261 146 210 200 q 415 92 313 92 q 516 106 474 92 q 586 135 558 121 q 618 150 614 150 q 649 122 632 150 q 667 81 667 94 q 649 53 667 68 q 599 25 631 39 q 601 13 601 19 q 594 -19 601 1 q 585 -72 585 -56 q 610 -130 585 -117 q 671 -143 635 -143 q 706 -136 685 -143 q 743 -129 738 -129 m 396 635 q 201 415 217 635 l 563 415 q 396 635 563 635 z "},"ẽ":{"ha":749,"x_min":76,"x_max":686,"o":"m 76 0 m 400 735 q 614 642 542 735 q 686 372 686 550 q 669 338 686 360 q 640 315 653 315 l 201 315 q 261 146 210 200 q 415 92 313 92 q 516 106 474 92 q 586 135 558 121 q 618 150 614 150 q 649 122 632 150 q 667 81 667 94 q 632 42 667 64 q 540 6 597 21 q 417 -8 482 -8 q 160 82 243 -8 q 76 358 76 172 q 158 639 76 543 q 400 735 240 735 m 396 635 q 201 415 217 635 l 563 415 q 396 635 563 635 m 267 958 q 325 951 296 958 q 401 926 354 943 q 465 906 442 913 q 508 899 488 899 q 542 908 528 899 q 569 939 556 917 q 597 958 583 958 q 611 956 606 958 l 622 951 q 638 935 638 946 q 632 915 638 926 q 579 843 610 865 q 506 821 549 821 q 367 854 456 821 q 304 874 328 868 q 260 881 281 881 q 229 872 242 881 q 201 839 217 863 q 188 824 193 828 q 176 819 183 819 q 163 822 168 819 l 149 828 q 135 844 135 833 q 139 863 135 853 q 192 936 161 914 q 267 958 224 958 z "},"f":{"ha":451,"x_min":67,"x_max":431,"o":"m 329 1050 q 431 1008 431 1050 q 422 969 431 994 q 401 943 414 943 q 381 947 394 943 q 342 950 368 950 q 286 930 306 950 q 267 847 267 910 l 267 726 l 388 726 q 409 717 403 726 q 415 685 415 707 l 415 668 q 409 636 415 646 q 388 626 403 626 l 267 626 l 267 28 q 211 -3 267 -3 l 206 -3 q 150 28 150 -3 l 150 626 l 94 626 q 74 636 81 626 q 67 668 67 646 l 67 685 q 74 717 67 707 q 94 726 81 726 l 150 726 l 150 858 q 204 1009 150 968 q 329 1050 258 1050 z "},"g":{"ha":758,"x_min":64,"x_max":731,"o":"m 368 735 q 450 726 413 735 l 703 726 q 724 717 718 726 q 731 685 731 707 l 731 668 q 724 636 731 646 q 703 626 718 626 q 606 631 646 626 l 604 628 q 640 508 640 576 q 569 344 640 408 q 367 281 497 281 q 268 256 301 278 q 235 185 235 235 q 258 129 235 149 q 318 101 282 110 q 418 86 354 93 l 458 82 q 613 35 558 69 q 668 -85 668 1 q 588 -240 668 -186 q 351 -294 507 -294 q 141 -253 218 -294 q 64 -122 64 -211 q 99 -17 64 -61 q 190 51 133 28 l 192 54 q 136 168 136 99 q 214 313 136 258 q 125 393 156 342 q 94 508 94 444 q 167 671 94 607 q 368 735 239 735 m 367 642 q 201 507 201 642 q 367 374 201 374 q 488 405 443 374 q 533 507 533 436 q 367 642 533 642 m 260 13 q 168 -100 168 -26 q 367 -200 168 -200 q 510 -175 464 -200 q 557 -97 557 -150 q 511 -32 557 -49 q 374 -6 465 -15 q 260 13 290 3 z "},"ğ":{"ha":758,"x_min":64,"x_max":731,"o":"m 64 0 m 368 735 q 450 726 413 735 l 703 726 q 724 717 718 726 q 731 685 731 707 l 731 668 q 724 636 731 646 q 703 626 718 626 q 606 631 646 626 l 604 628 q 640 508 640 576 q 569 344 640 408 q 367 281 497 281 q 268 256 301 278 q 235 185 235 235 q 258 129 235 149 q 318 101 282 110 q 418 86 354 93 l 458 82 q 613 35 558 69 q 668 -85 668 1 q 588 -240 668 -186 q 351 -294 507 -294 q 141 -253 218 -294 q 64 -122 64 -211 q 99 -17 64 -61 q 190 51 133 28 l 192 54 q 136 168 136 99 q 214 313 136 258 q 125 393 156 342 q 94 508 94 444 q 167 671 94 607 q 368 735 239 735 m 367 642 q 201 507 201 642 q 367 374 201 374 q 488 405 443 374 q 533 507 533 436 q 367 642 533 642 m 260 13 q 168 -100 168 -26 q 367 -200 168 -200 q 510 -175 464 -200 q 557 -97 557 -150 q 511 -32 557 -49 q 374 -6 465 -15 q 260 13 290 3 m 558 993 q 579 972 579 993 q 519 855 579 897 q 379 813 460 813 q 238 855 297 813 q 178 972 178 897 q 199 993 178 993 q 215 989 211 993 q 222 976 219 985 q 229 958 225 967 q 285 917 244 931 q 379 904 325 904 q 473 917 433 904 q 528 958 513 931 q 535 976 532 967 q 543 990 539 986 q 558 993 547 993 z "},"ĝ":{"ha":758,"x_min":64,"x_max":731,"o":"m 64 0 m 368 735 q 450 726 413 735 l 703 726 q 724 717 718 726 q 731 685 731 707 l 731 668 q 724 636 731 646 q 703 626 718 626 q 606 631 646 626 l 604 628 q 640 508 640 576 q 569 344 640 408 q 367 281 497 281 q 268 256 301 278 q 235 185 235 235 q 258 129 235 149 q 318 101 282 110 q 418 86 354 93 l 458 82 q 613 35 558 69 q 668 -85 668 1 q 588 -240 668 -186 q 351 -294 507 -294 q 141 -253 218 -294 q 64 -122 64 -211 q 99 -17 64 -61 q 190 51 133 28 l 192 54 q 136 168 136 99 q 214 313 136 258 q 125 393 156 342 q 94 508 94 444 q 167 671 94 607 q 368 735 239 735 m 367 642 q 201 507 201 642 q 367 374 201 374 q 488 405 443 374 q 533 507 533 436 q 367 642 533 642 m 260 13 q 168 -100 168 -26 q 367 -200 168 -200 q 510 -175 464 -200 q 557 -97 557 -150 q 511 -32 557 -49 q 374 -6 465 -15 q 260 13 290 3 m 396 997 q 460 967 439 997 l 539 844 q 547 821 547 832 q 514 800 547 800 l 511 800 q 465 818 485 800 l 378 921 l 293 818 q 246 800 274 800 l 243 800 q 211 819 211 800 q 219 844 211 831 l 297 967 q 361 997 318 997 l 396 997 z "},"ģ":{"ha":758,"x_min":64,"x_max":731,"o":"m 64 0 m 368 735 q 450 726 413 735 l 703 726 q 724 717 718 726 q 731 685 731 707 l 731 668 q 724 636 731 646 q 703 626 718 626 q 606 631 646 626 l 604 628 q 640 508 640 576 q 569 344 640 408 q 367 281 497 281 q 268 256 301 278 q 235 185 235 235 q 258 129 235 149 q 318 101 282 110 q 418 86 354 93 l 458 82 q 613 35 558 69 q 668 -85 668 1 q 588 -240 668 -186 q 351 -294 507 -294 q 141 -253 218 -294 q 64 -122 64 -211 q 99 -17 64 -61 q 190 51 133 28 l 192 54 q 136 168 136 99 q 214 313 136 258 q 125 393 156 342 q 94 508 94 444 q 167 671 94 607 q 368 735 239 735 m 367 642 q 201 507 201 642 q 367 374 201 374 q 488 405 443 374 q 533 507 533 436 q 367 642 533 642 m 260 13 q 168 -100 168 -26 q 367 -200 168 -200 q 510 -175 464 -200 q 557 -97 557 -150 q 511 -32 557 -49 q 374 -6 465 -15 q 260 13 290 3 m 375 813 q 334 823 349 813 q 319 851 319 833 q 344 963 319 913 q 403 1040 369 1013 q 463 1068 438 1068 q 490 1063 478 1068 q 503 1047 503 1058 q 486 1004 503 1035 q 455 935 467 968 q 443 857 443 901 q 429 824 443 836 q 388 813 415 813 l 375 813 z "},"ġ":{"ha":758,"x_min":64,"x_max":731,"o":"m 64 0 m 368 735 q 450 726 413 735 l 703 726 q 724 717 718 726 q 731 685 731 707 l 731 668 q 724 636 731 646 q 703 626 718 626 q 606 631 646 626 l 604 628 q 640 508 640 576 q 569 344 640 408 q 367 281 497 281 q 268 256 301 278 q 235 185 235 235 q 258 129 235 149 q 318 101 282 110 q 418 86 354 93 l 458 82 q 613 35 558 69 q 668 -85 668 1 q 588 -240 668 -186 q 351 -294 507 -294 q 141 -253 218 -294 q 64 -122 64 -211 q 99 -17 64 -61 q 190 51 133 28 l 192 54 q 136 168 136 99 q 214 313 136 258 q 125 393 156 342 q 94 508 94 444 q 167 671 94 607 q 368 735 239 735 m 367 642 q 201 507 201 642 q 367 374 201 374 q 488 405 443 374 q 533 507 533 436 q 367 642 533 642 m 260 13 q 168 -100 168 -26 q 367 -200 168 -200 q 510 -175 464 -200 q 557 -97 557 -150 q 511 -32 557 -49 q 374 -6 465 -15 q 260 13 290 3 m 382 975 q 438 944 438 975 l 438 874 q 376 843 438 843 q 321 874 321 843 l 321 944 q 382 975 321 975 z "},"h":{"ha":785,"x_min":128,"x_max":678,"o":"m 189 1044 q 244 1014 244 1044 l 244 639 q 341 708 286 681 q 457 735 396 735 q 611 685 544 735 q 678 510 678 636 l 678 28 q 622 -3 678 -3 l 617 -3 q 561 28 561 -3 l 561 499 q 525 597 561 561 q 419 633 489 633 q 335 612 374 633 q 270 565 296 590 q 244 536 244 539 l 244 28 q 189 -3 244 -3 l 183 -3 q 128 28 128 -3 l 128 1014 q 183 1044 128 1044 l 189 1044 z "},"ħ":{"ha":785,"x_min":49,"x_max":678,"o":"m 457 735 q 611 685 544 735 q 678 510 678 636 l 678 28 q 622 -3 678 -3 l 617 -3 q 561 28 561 -3 l 561 499 q 525 597 561 561 q 419 633 489 633 q 335 612 374 633 q 270 565 296 590 q 244 536 244 539 l 244 28 q 189 -3 244 -3 l 183 -3 q 128 28 128 -3 l 128 831 l 76 831 q 56 840 63 831 q 49 872 49 850 l 49 886 q 56 918 49 908 q 76 928 63 928 l 128 928 l 128 1014 q 183 1044 128 1044 l 189 1044 q 244 1014 244 1044 l 244 928 l 386 928 q 408 918 401 928 q 414 886 414 908 l 414 872 q 408 840 414 850 q 386 831 401 831 l 244 831 l 244 639 q 341 708 286 681 q 457 735 396 735 z "},"ĥ":{"ha":785,"x_min":18,"x_max":678,"o":"m 18 0 m 189 1044 q 244 1014 244 1044 l 244 639 q 341 708 286 681 q 457 735 396 735 q 611 685 544 735 q 678 510 678 636 l 678 28 q 622 -3 678 -3 l 617 -3 q 561 28 561 -3 l 561 499 q 525 597 561 561 q 419 633 489 633 q 335 612 374 633 q 270 565 296 590 q 244 536 244 539 l 244 28 q 189 -3 244 -3 l 183 -3 q 128 28 128 -3 l 128 1014 q 183 1044 128 1044 l 189 1044 m 203 1285 q 267 1254 246 1285 l 346 1132 q 354 1108 354 1119 q 321 1088 354 1088 l 318 1088 q 272 1106 292 1088 l 185 1208 l 100 1106 q 53 1088 81 1088 l 50 1088 q 18 1107 18 1088 q 26 1132 18 1118 l 104 1254 q 168 1285 125 1285 l 203 1285 z "},"ḥ":{"ha":785,"x_min":128,"x_max":678,"o":"m 128 0 m 189 1044 q 244 1014 244 1044 l 244 639 q 341 708 286 681 q 457 735 396 735 q 611 685 544 735 q 678 510 678 636 l 678 28 q 622 -3 678 -3 l 617 -3 q 561 28 561 -3 l 561 499 q 525 597 561 561 q 419 633 489 633 q 335 612 374 633 q 270 565 296 590 q 244 536 244 539 l 244 28 q 189 -3 244 -3 l 183 -3 q 128 28 128 -3 l 128 1014 q 183 1044 128 1044 l 189 1044 m 397 -111 q 453 -142 453 -111 l 453 -212 q 392 -243 453 -243 q 336 -212 336 -243 l 336 -142 q 397 -111 336 -111 z "},"i":{"ha":368,"x_min":121,"x_max":249,"o":"m 193 1044 q 249 1014 249 1044 l 249 932 q 193 901 249 901 l 176 901 q 121 932 121 901 l 121 1014 q 176 1044 121 1044 l 193 1044 m 188 729 q 243 699 243 729 l 243 28 q 188 -3 243 -3 l 182 -3 q 126 28 126 -3 l 126 699 q 182 729 126 729 l 188 729 z "},"ı":{"ha":368,"x_min":126,"x_max":243,"o":"m 188 729 q 243 699 243 729 l 243 28 q 188 -3 243 -3 l 182 -3 q 126 28 126 -3 l 126 699 q 182 729 126 729 l 188 729 z "},"í":{"ha":368,"x_min":126,"x_max":363,"o":"m 126 0 m 188 729 q 243 699 243 729 l 243 28 q 188 -3 243 -3 l 182 -3 q 126 28 126 -3 l 126 699 q 182 729 126 729 l 188 729 m 296 1017 q 347 1013 331 1017 q 363 999 363 1008 q 351 974 363 990 q 285 897 339 958 l 232 838 q 161 813 210 813 q 129 826 129 813 q 149 874 129 836 q 210 981 169 911 q 242 1008 221 1000 q 296 1017 263 1017 z "},"ĭ":{"ha":368,"x_min":-17,"x_max":385,"o":"m 0 0 m 188 729 q 243 699 243 729 l 243 28 q 188 -3 243 -3 l 182 -3 q 126 28 126 -3 l 126 699 q 182 729 126 729 l 188 729 m 364 993 q 385 972 385 993 q 325 855 385 897 q 185 813 265 813 q 43 855 103 813 q -17 972 -17 897 q 4 993 -17 993 q 21 989 17 993 q 28 976 25 985 q 35 958 31 967 q 90 917 50 931 q 185 904 131 904 q 278 917 239 904 q 333 958 318 931 q 341 976 338 967 q 349 990 344 986 q 364 993 353 993 z "},"î":{"ha":368,"x_min":17,"x_max":353,"o":"m 17 0 m 188 729 q 243 699 243 729 l 243 28 q 188 -3 243 -3 l 182 -3 q 126 28 126 -3 l 126 699 q 182 729 126 729 l 188 729 m 201 997 q 265 967 244 997 l 344 844 q 353 821 353 832 q 319 800 353 800 l 317 800 q 271 818 290 800 l 183 921 l 99 818 q 51 800 79 800 l 49 800 q 17 819 17 800 q 25 844 17 831 l 103 967 q 167 997 124 997 l 201 997 z "},"ï":{"ha":368,"x_min":26,"x_max":343,"o":"m 26 0 m 188 729 q 243 699 243 729 l 243 28 q 188 -3 243 -3 l 182 -3 q 126 28 126 -3 l 126 699 q 182 729 126 729 l 188 729 m 88 975 q 143 944 143 975 l 143 874 q 82 843 143 843 q 26 874 26 843 l 26 944 q 88 975 26 975 m 288 975 q 343 944 343 975 l 343 874 q 282 843 343 843 q 226 874 226 843 l 226 944 q 288 975 226 975 z "},"ị":{"ha":368,"x_min":121,"x_max":249,"o":"m 121 0 m 193 1044 q 249 1014 249 1044 l 249 932 q 193 901 249 901 l 176 901 q 121 932 121 901 l 121 1014 q 176 1044 121 1044 l 193 1044 m 188 729 q 243 699 243 729 l 243 28 q 188 -3 243 -3 l 182 -3 q 126 28 126 -3 l 126 699 q 182 729 126 729 l 188 729 m 188 -111 q 243 -142 243 -111 l 243 -212 q 182 -243 243 -243 q 126 -212 126 -243 l 126 -142 q 188 -111 126 -111 z "},"ì":{"ha":368,"x_min":21,"x_max":254,"o":"m 21 0 m 188 729 q 243 699 243 729 l 243 28 q 188 -3 243 -3 l 182 -3 q 126 28 126 -3 l 126 699 q 182 729 126 729 l 188 729 m 88 1017 q 142 1008 121 1017 q 174 981 163 1000 q 234 874 214 911 q 254 826 254 836 q 222 813 254 813 q 151 838 175 813 l 99 897 q 33 974 44 958 q 21 999 21 990 q 37 1013 21 1008 q 88 1017 53 1017 z "},"ỉ":{"ha":368,"x_min":86,"x_max":321,"o":"m 86 0 m 188 729 q 243 699 243 729 l 243 28 q 188 -3 243 -3 l 182 -3 q 126 28 126 -3 l 126 699 q 182 729 126 729 l 188 729 m 235 933 q 220 961 235 951 q 183 971 206 971 q 138 962 153 971 q 119 953 124 953 q 99 970 111 953 q 86 999 86 988 q 122 1027 86 1013 q 194 1042 158 1042 q 281 1018 240 1042 q 321 943 321 994 q 295 865 321 901 q 238 806 269 829 q 194 782 206 782 q 166 790 183 782 q 149 806 149 797 q 156 826 149 818 q 183 851 164 835 q 221 889 207 871 q 235 933 235 907 z "},"ĳ":{"ha":751,"x_min":121,"x_max":631,"o":"m 121 0 m 193 1044 q 249 1014 249 1044 l 249 932 q 193 901 249 901 l 176 901 q 121 932 121 901 l 121 1014 q 176 1044 121 1044 l 193 1044 m 188 729 q 243 699 243 729 l 243 28 q 188 -3 243 -3 l 182 -3 q 126 28 126 -3 l 126 699 q 182 729 126 729 l 188 729 m 575 1044 q 631 1014 631 1044 l 631 932 q 575 901 631 901 l 558 901 q 503 932 503 901 l 503 1014 q 558 1044 503 1044 l 575 1044 m 569 729 q 625 699 625 729 l 625 -103 q 570 -252 625 -210 q 446 -294 515 -294 q 344 -253 344 -294 q 353 -213 344 -239 q 374 -187 361 -187 q 394 -191 381 -187 q 433 -194 407 -194 q 488 -172 468 -194 q 508 -92 508 -150 l 508 699 q 564 729 508 729 l 569 729 z "},"ī":{"ha":368,"x_min":1,"x_max":367,"o":"m 1 0 m 188 729 q 243 699 243 729 l 243 28 q 188 -3 243 -3 l 182 -3 q 126 28 126 -3 l 126 699 q 182 729 126 729 l 188 729 m 339 947 q 360 938 354 947 q 367 906 367 928 l 367 892 q 360 860 367 869 q 339 850 354 850 l 29 850 q 8 860 15 850 q 1 892 1 869 l 1 906 q 8 938 1 928 q 29 947 15 947 l 339 947 z "},"į":{"ha":368,"x_min":110,"x_max":388,"o":"m 176 901 q 121 932 121 901 l 121 1014 q 176 1044 121 1044 l 193 1044 q 249 1014 249 1044 l 249 932 q 193 901 249 901 l 176 901 m 361 -143 q 388 -178 388 -143 q 359 -238 388 -222 q 274 -254 331 -254 q 143 -208 176 -254 q 110 -112 110 -162 q 117 -49 110 -82 q 146 1 125 -17 q 126 28 126 10 l 126 699 q 182 729 126 729 l 188 729 q 243 699 243 729 l 243 28 q 219 1 243 7 l 219 -1 q 213 -33 219 -12 q 203 -86 203 -69 q 228 -144 203 -131 q 289 -157 253 -157 q 324 -150 303 -157 q 361 -143 354 -143 z "},"ĩ":{"ha":368,"x_min":-32,"x_max":421,"o":"m 86 958 q 141 950 113 958 q 208 925 169 942 q 304 899 275 899 q 333 908 321 899 q 360 939 346 917 q 385 958 371 958 q 397 956 393 958 l 407 951 q 421 936 421 946 q 415 915 421 932 q 367 842 394 864 q 301 821 340 821 q 244 829 274 821 q 175 854 215 838 q 81 881 108 881 q 53 872 65 881 q 28 839 42 863 q 6 819 17 819 q -7 822 -1 819 l -19 828 q -32 844 -32 833 q -28 863 -32 853 q 19 936 -8 914 q 86 958 47 958 m 188 729 q 243 699 243 729 l 243 28 q 188 -3 243 -3 l 182 -3 q 126 28 126 -3 l 126 699 q 182 729 126 729 l 188 729 z "},"j":{"ha":383,"x_min":-24,"x_max":263,"o":"m 207 1044 q 263 1014 263 1044 l 263 932 q 207 901 263 901 l 190 901 q 135 932 135 901 l 135 1014 q 190 1044 135 1044 l 207 1044 m 201 729 q 257 699 257 729 l 257 -103 q 202 -252 257 -210 q 78 -294 147 -294 q -24 -253 -24 -294 q -15 -213 -24 -239 q 6 -187 -7 -187 q 26 -191 13 -187 q 65 -194 39 -194 q 120 -172 100 -194 q 140 -92 140 -150 l 140 699 q 196 729 140 729 l 201 729 z "},"ȷ":{"ha":383,"x_min":-24,"x_max":257,"o":"m 201 729 q 257 699 257 729 l 257 -103 q 202 -252 257 -210 q 78 -294 147 -294 q -24 -253 -24 -294 q -15 -213 -24 -239 q 6 -187 -7 -187 q 26 -191 13 -187 q 65 -194 39 -194 q 120 -172 100 -194 q 140 -92 140 -150 l 140 699 q 196 729 140 729 l 201 729 z "},"ĵ":{"ha":383,"x_min":-24,"x_max":367,"o":"m 0 0 m 201 729 q 257 699 257 729 l 257 -103 q 202 -252 257 -210 q 78 -294 147 -294 q -24 -253 -24 -294 q -15 -213 -24 -239 q 6 -187 -7 -187 q 26 -191 13 -187 q 65 -194 39 -194 q 120 -172 100 -194 q 140 -92 140 -150 l 140 699 q 196 729 140 729 l 201 729 m 215 997 q 279 967 258 997 l 358 844 q 367 821 367 832 q 333 800 367 800 l 331 800 q 285 818 304 800 l 197 921 l 113 818 q 65 800 93 800 l 63 800 q 31 819 31 800 q 39 844 31 831 l 117 967 q 181 997 138 997 l 215 997 z "},"k":{"ha":724,"x_min":131,"x_max":672,"o":"m 192 1044 q 247 1014 247 1044 l 247 393 l 253 393 l 518 710 q 592 729 533 729 l 597 729 q 633 724 621 729 q 646 711 646 719 q 632 683 646 699 l 374 378 l 660 39 q 672 17 672 25 q 658 1 672 6 q 611 -3 644 -3 l 606 -3 q 558 1 576 -3 q 531 15 540 4 l 253 344 l 247 344 l 247 28 q 192 -3 247 -3 l 186 -3 q 131 28 131 -3 l 131 1014 q 186 1044 131 1044 l 192 1044 z "},"ķ":{"ha":724,"x_min":131,"x_max":672,"o":"m 131 0 m 192 1044 q 247 1014 247 1044 l 247 393 l 253 393 l 518 710 q 592 729 533 729 l 597 729 q 633 724 621 729 q 646 711 646 719 q 632 683 646 699 l 374 378 l 660 39 q 672 17 672 25 q 658 1 672 6 q 611 -3 644 -3 l 606 -3 q 558 1 576 -3 q 531 15 540 4 l 253 344 l 247 344 l 247 28 q 192 -3 247 -3 l 186 -3 q 131 28 131 -3 l 131 1014 q 186 1044 131 1044 l 192 1044 m 368 -71 q 409 -81 394 -71 q 424 -110 424 -92 q 399 -221 424 -171 q 340 -299 374 -271 q 281 -326 306 -326 q 253 -322 265 -326 q 240 -306 240 -317 q 257 -262 240 -293 q 288 -193 276 -226 q 300 -115 300 -160 q 314 -83 300 -94 q 356 -71 328 -71 l 368 -71 z "},"ĸ":{"ha":724,"x_min":131,"x_max":672,"o":"m 192 731 q 247 700 247 731 l 247 393 l 253 393 l 518 710 q 592 729 533 729 l 597 729 q 633 724 621 729 q 646 711 646 719 q 632 683 646 699 l 374 378 l 660 39 q 672 17 672 25 q 658 1 672 6 q 611 -3 644 -3 l 606 -3 q 558 1 576 -3 q 531 15 540 4 l 253 344 l 247 344 l 247 28 q 192 -3 247 -3 l 186 -3 q 131 28 131 -3 l 131 700 q 186 731 131 731 l 192 731 z "},"l":{"ha":413,"x_min":114,"x_max":394,"o":"m 175 1044 q 231 1014 231 1044 l 231 194 q 251 114 231 136 q 306 92 271 92 q 345 95 332 92 q 365 99 358 99 q 386 73 378 99 q 394 33 394 47 q 293 -8 394 -8 q 169 34 224 -8 q 114 183 114 76 l 114 1014 q 169 1044 114 1044 l 175 1044 z "},"ĺ":{"ha":413,"x_min":114,"x_max":394,"o":"m 114 0 m 175 1044 q 231 1014 231 1044 l 231 194 q 251 114 231 136 q 306 92 271 92 q 345 95 332 92 q 365 99 358 99 q 386 73 378 99 q 394 33 394 47 q 293 -8 394 -8 q 169 34 224 -8 q 114 183 114 76 l 114 1014 q 169 1044 114 1044 l 175 1044 m 285 1290 q 335 1286 319 1290 q 351 1272 351 1282 q 340 1248 351 1264 q 274 1171 328 1232 l 221 1111 q 150 1086 199 1086 q 118 1100 118 1086 q 138 1147 118 1110 q 199 1254 158 1185 q 231 1282 210 1274 q 285 1290 251 1290 z "},"ľ":{"ha":413,"x_min":114,"x_max":440,"o":"m 114 0 m 175 1044 q 231 1014 231 1044 l 231 194 q 251 114 231 136 q 306 92 271 92 q 345 95 332 92 q 365 99 358 99 q 386 73 378 99 q 394 33 394 47 q 293 -8 394 -8 q 169 34 224 -8 q 114 183 114 76 l 114 1014 q 169 1044 114 1044 l 175 1044 m 385 975 q 426 965 411 975 q 440 936 440 954 q 423 831 440 878 q 381 759 406 785 q 339 733 357 733 q 311 738 324 733 q 299 754 299 743 q 304 793 299 763 q 317 931 317 863 q 331 963 317 951 q 372 975 344 975 l 385 975 z "},"ļ":{"ha":413,"x_min":114,"x_max":394,"o":"m 114 0 m 175 1044 q 231 1014 231 1044 l 231 194 q 251 114 231 136 q 306 92 271 92 q 345 95 332 92 q 365 99 358 99 q 386 73 378 99 q 394 33 394 47 q 293 -8 394 -8 q 169 34 224 -8 q 114 183 114 76 l 114 1014 q 169 1044 114 1044 l 175 1044 m 254 -71 q 295 -81 281 -71 q 310 -110 310 -92 q 285 -221 310 -171 q 226 -299 260 -271 q 167 -326 192 -326 q 139 -322 151 -326 q 126 -306 126 -317 q 143 -262 126 -293 q 174 -193 163 -226 q 186 -115 186 -160 q 200 -83 186 -94 q 242 -71 214 -71 l 254 -71 z "},"ŀ":{"ha":413,"x_min":114,"x_max":461,"o":"m 114 0 m 175 1044 q 231 1014 231 1044 l 231 194 q 251 114 231 136 q 306 92 271 92 q 345 95 332 92 q 365 99 358 99 q 386 73 378 99 q 394 33 394 47 q 293 -8 394 -8 q 169 34 224 -8 q 114 183 114 76 l 114 1014 q 169 1044 114 1044 l 175 1044 m 389 572 q 440 551 419 572 q 461 500 461 531 q 440 449 461 469 q 389 429 419 429 q 338 449 358 429 q 318 500 318 469 q 338 551 318 531 q 389 572 358 572 z "},"ǉ":{"ha":796,"x_min":114,"x_max":675,"o":"m 114 0 m 175 1044 q 231 1014 231 1044 l 231 194 q 251 114 231 136 q 306 92 271 92 q 345 95 332 92 q 365 99 358 99 q 386 73 378 99 q 394 33 394 47 q 293 -8 394 -8 q 169 34 224 -8 q 114 183 114 76 l 114 1014 q 169 1044 114 1044 l 175 1044 m 619 1044 q 675 1014 675 1044 l 675 932 q 619 901 675 901 l 603 901 q 547 932 547 901 l 547 1014 q 603 1044 547 1044 l 619 1044 m 614 729 q 669 699 669 729 l 669 -103 q 615 -252 669 -210 q 490 -294 560 -294 q 389 -253 389 -294 q 397 -213 389 -239 q 418 -187 406 -187 q 438 -191 425 -187 q 478 -194 451 -194 q 533 -172 513 -194 q 553 -92 553 -150 l 553 699 q 608 729 553 729 l 614 729 z "},"ł":{"ha":407,"x_min":26,"x_max":392,"o":"m 172 1044 q 228 1014 228 1044 l 228 622 l 286 657 q 300 663 297 663 q 309 658 306 663 q 313 643 313 653 l 313 635 q 286 593 313 608 l 228 558 l 228 194 q 248 114 228 136 q 303 92 268 92 q 342 95 329 92 q 363 99 356 99 q 383 73 375 99 q 392 33 392 47 q 290 -8 392 -8 q 166 34 221 -8 q 111 183 111 76 l 111 490 l 53 456 q 39 450 46 450 q 30 455 33 450 q 26 469 26 460 l 26 478 q 53 519 26 504 l 111 553 l 111 1014 q 167 1044 111 1044 l 172 1044 z "},"m":{"ha":1178,"x_min":101,"x_max":1074,"o":"m 856 735 q 1008 685 943 735 q 1074 510 1074 636 l 1074 28 q 1018 -3 1074 -3 l 1013 -3 q 957 28 957 -3 l 957 499 q 923 597 957 561 q 824 633 889 633 q 653 536 735 633 q 654 508 654 526 l 654 28 q 599 -3 654 -3 l 593 -3 q 538 28 538 -3 l 538 499 q 503 597 538 561 q 404 633 469 633 q 322 612 360 633 q 259 565 283 590 q 235 538 235 540 l 235 28 q 179 -3 235 -3 l 174 -3 q 118 28 118 -3 l 118 515 q 110 647 118 607 q 101 690 101 686 q 128 715 101 707 q 176 722 154 722 q 205 702 196 722 q 219 660 214 682 q 225 631 224 638 q 319 705 264 675 q 436 735 374 735 q 553 709 499 735 q 635 619 608 683 q 735 702 678 669 q 856 735 793 735 z "},"n":{"ha":774,"x_min":103,"x_max":669,"o":"m 443 735 q 609 675 549 735 q 669 510 669 615 l 669 28 q 614 -3 669 -3 l 608 -3 q 553 28 553 -3 l 553 499 q 516 598 553 563 q 411 633 479 633 q 317 607 364 633 q 236 536 271 581 l 236 28 q 181 -3 236 -3 l 175 -3 q 119 28 119 -3 l 119 515 q 111 647 119 607 q 103 690 103 686 q 129 715 103 707 q 178 722 156 722 q 206 702 197 722 q 220 660 215 682 q 226 631 225 638 q 328 707 271 679 q 443 735 385 735 z "},"ń":{"ha":774,"x_min":103,"x_max":669,"o":"m 103 0 m 443 735 q 609 675 549 735 q 669 510 669 615 l 669 28 q 614 -3 669 -3 l 608 -3 q 553 28 553 -3 l 553 499 q 516 598 553 563 q 411 633 479 633 q 317 607 364 633 q 236 536 271 581 l 236 28 q 181 -3 236 -3 l 175 -3 q 119 28 119 -3 l 119 515 q 111 647 119 607 q 103 690 103 686 q 129 715 103 707 q 178 722 156 722 q 206 702 197 722 q 220 660 215 682 q 226 631 225 638 q 328 707 271 679 q 443 735 385 735 m 499 1017 q 549 1013 533 1017 q 565 999 565 1008 q 553 974 565 990 q 488 897 542 958 l 435 838 q 364 813 413 813 q 332 826 332 813 q 352 874 332 836 q 413 981 372 911 q 444 1008 424 1000 q 499 1017 465 1017 z "},"ŉ":{"ha":774,"x_min":-19,"x_max":669,"o":"m 0 0 m 108 1001 q 149 991 135 1001 q 164 963 164 981 q 139 851 164 901 q 80 774 114 801 q 21 746 46 746 q -7 751 6 746 q -19 767 -19 756 q -3 810 -19 779 q 28 879 17 846 q 40 957 40 913 q 54 990 40 978 q 96 1001 68 1001 l 108 1001 m 443 735 q 609 675 549 735 q 669 510 669 615 l 669 28 q 614 -3 669 -3 l 608 -3 q 553 28 553 -3 l 553 499 q 516 598 553 563 q 411 633 479 633 q 317 607 364 633 q 236 536 271 581 l 236 28 q 181 -3 236 -3 l 175 -3 q 119 28 119 -3 l 119 515 q 111 647 119 607 q 103 690 103 686 q 129 715 103 707 q 178 722 156 722 q 206 702 197 722 q 220 660 215 682 q 226 631 225 638 q 328 707 271 679 q 443 735 385 735 z "}}}
